<svg width="480" height="330" viewBox="0 0 48 33" fill="none" xmlns="http://www.w3.org/2000/svg">
<g clip-path="url(#clip0_313_712)">
<g clip-path="url(#clip1_313_712)">
<path d="M32.2106 15.1154C31.884 15.3308 31.394 15.4923 30.7952 15.4923C29.8697 15.4923 28.9986 15.3846 28.1275 15.1154C27.9098 15.0615 27.7464 15.0077 27.6376 15.0077C27.4742 15.0077 27.4198 15.1154 27.4198 15.3308V15.8692C27.4198 16.0308 27.4742 16.1385 27.5287 16.2461C27.5831 16.3 27.692 16.4077 27.8553 16.4615C28.7264 16.8385 29.7063 17 30.7952 17C31.9384 17 32.8095 16.7308 33.5172 16.1923C34.225 15.6538 34.5516 14.9538 34.5516 14.0385C34.5516 13.3923 34.3883 12.9077 34.0616 12.4769C33.735 12.1 33.1906 11.7231 32.4284 11.4538L30.904 10.8615C30.3052 10.6461 29.8697 10.4308 29.7063 10.2154C29.4886 9.99999 29.3797 9.78461 29.3797 9.40769C29.3797 8.59999 29.9785 8.16922 31.2307 8.16922C31.9384 8.16922 32.6462 8.27692 33.2995 8.4923C33.5172 8.54615 33.6806 8.59999 33.735 8.59999C33.8983 8.59999 34.0072 8.4923 34.0072 8.27692V7.73845C34.0072 7.57692 33.9528 7.46922 33.8983 7.36153C33.8439 7.25384 33.735 7.19999 33.5717 7.14615C32.7551 6.87692 31.9384 6.71538 31.1218 6.71538C30.0874 6.71538 29.2164 6.98461 28.5631 7.46922C27.9098 7.95384 27.5831 8.65384 27.5831 9.46153C27.5831 10.7 28.2909 11.6154 29.7063 12.1538L31.3396 12.7461C31.884 12.9615 32.2106 13.1231 32.4284 13.3385C32.6462 13.5538 32.7006 13.7692 32.7006 14.0923C32.7006 14.5231 32.5373 14.9 32.2106 15.1154Z" fill="white"/>
<path d="M23.6633 7.36154V14.5231C22.7378 15.1154 21.8123 15.4385 20.8868 15.4385C20.288 15.4385 19.8524 15.2769 19.5802 14.9538C19.308 14.6308 19.1991 14.1462 19.1991 13.4462V7.36154C19.1991 7.09231 19.0903 6.98462 18.8181 6.98462H17.6748C17.4026 6.98462 17.2937 7.09231 17.2937 7.36154V14.0385C17.2937 14.9538 17.5115 15.7077 18.0014 16.1923C18.4914 16.6769 19.1991 16.9462 20.1247 16.9462C21.3768 16.9462 22.629 16.5154 23.8267 15.6538L23.9355 16.3C23.9355 16.4615 23.99 16.5154 24.0989 16.5692C24.1533 16.6231 24.2622 16.6231 24.4255 16.6231H25.2421C25.5143 16.6231 25.6232 16.5154 25.6232 16.2462V7.36154C25.6232 7.09231 25.5143 6.98462 25.2421 6.98462H24.0989C23.7722 6.98462 23.6633 7.14616 23.6633 7.36154Z" fill="white"/>
<path d="M13.3195 16.6769H14.4627C14.735 16.6769 14.8438 16.5692 14.8438 16.3V9.56922C14.8438 8.65384 14.6261 7.95384 14.1361 7.46922C13.6461 6.98461 12.9928 6.71538 12.0673 6.71538C10.8152 6.71538 9.50858 7.14615 8.25643 8.06153C7.8209 7.14615 7.00428 6.71538 5.80657 6.71538C4.60886 6.71538 3.41115 7.14615 2.21344 7.95384L2.10455 7.36153C2.10455 7.19999 2.05011 7.14615 1.94123 7.0923C1.88679 7.03846 1.7779 7.03845 1.66902 7.03845H0.79796C0.525753 7.03845 0.41687 7.14615 0.41687 7.41538V16.3538C0.41687 16.6231 0.525753 16.7308 0.79796 16.7308H1.94123C2.21344 16.7308 2.32232 16.6231 2.32232 16.3538V9.08461C3.24782 8.54615 4.17333 8.22307 5.15327 8.22307C5.69768 8.22307 6.07877 8.38461 6.29654 8.70769C6.5143 9.03076 6.67763 9.46153 6.67763 10.1077V16.3C6.67763 16.5692 6.78651 16.6769 7.05872 16.6769H8.20199C8.47419 16.6769 8.58308 16.5692 8.58308 16.3V9.67692V9.35384C8.58308 9.24615 8.58308 9.13845 8.58308 9.08461C9.56302 8.4923 10.4885 8.22307 11.414 8.22307C11.9584 8.22307 12.3395 8.38461 12.5573 8.70769C12.7751 9.03076 12.9384 9.46153 12.9384 10.1077V16.3C12.9384 16.5692 13.0473 16.6769 13.3195 16.6769Z" fill="white"/>
<path d="M42.9901 23.8385C37.0559 26.3154 30.5774 27.5538 24.6978 27.5538C15.9871 27.5538 7.54872 25.1846 0.743545 21.2538C0.634662 21.2 0.525779 21.1461 0.416896 21.1461C0.0358067 21.1461 -0.181959 21.5769 0.199131 21.9538C6.51433 27.6077 14.8983 31 24.1533 31C30.7952 31 38.4714 28.9538 43.7522 25.0769C44.6777 24.4308 43.9156 23.4615 42.9901 23.8385Z" fill="white"/>
<path d="M42.8267 9.13846C43.3167 8.6 44.0789 8.33076 45.1677 8.33076C45.7121 8.33076 46.2565 8.38461 46.7465 8.54615C46.9098 8.6 46.9643 8.6 47.0732 8.6C47.2365 8.6 47.3454 8.4923 47.3454 8.22307V7.68461C47.3454 7.52307 47.2909 7.36153 47.2365 7.30769C47.1821 7.25384 47.0732 7.14615 46.9643 7.0923C46.2565 6.93076 45.5488 6.76923 44.8955 6.76923C43.3712 6.76923 42.2279 7.2 41.3568 8.11538C40.5402 8.97692 40.1047 10.2692 40.1047 11.8846C40.1047 13.5 40.4858 14.7385 41.3024 15.6C42.119 16.4615 43.2623 16.8923 44.7866 16.8923C45.6033 16.8923 46.3654 16.7846 46.9643 16.5154C47.1276 16.4615 47.2365 16.4077 47.2909 16.3C47.3454 16.2462 47.3454 16.0846 47.3454 15.9231V15.3846C47.3454 15.1154 47.2365 15.0077 47.0732 15.0077C47.0187 15.0077 46.9098 15.0077 46.801 15.0615C46.2021 15.2231 45.6033 15.3308 45.0588 15.3308C44.0245 15.3308 43.2623 15.0615 42.7723 14.5231C42.2823 13.9846 42.0646 13.1231 42.0646 11.9923V11.7231C42.119 10.5385 42.3368 9.67692 42.8267 9.13846Z" fill="white"/>
<path d="M45.2766 28.9C48.1076 26.5308 48.8698 21.6308 48.2709 20.8769C47.9987 20.5539 46.6921 20.2308 45.0589 20.2308C43.3167 20.2308 41.248 20.6077 39.6692 21.6846C39.1792 22.0077 39.2881 22.4385 39.778 22.3846C41.4657 22.1692 45.2766 21.7385 45.9844 22.6C46.6377 23.4615 45.2222 27.0154 44.5689 28.5769C44.4056 29.0615 44.7867 29.2231 45.2766 28.9Z" fill="white"/>
<path d="M37.7092 6.98462H36.566C36.2938 6.98462 36.1849 7.09231 36.1849 7.36154V16.3C36.1849 16.5692 36.2938 16.6769 36.566 16.6769H37.7092C37.9814 16.6769 38.0903 16.5692 38.0903 16.3V7.36154C38.0903 7.14616 37.9814 6.98462 37.7092 6.98462Z" fill="white"/>
<path d="M38.0359 3.32308C37.8181 3.10769 37.4915 3 37.1104 3C36.7293 3 36.4571 3.10769 36.2393 3.32308C36.0215 3.53846 35.9127 3.80769 35.9127 4.13077C35.9127 4.45385 36.0215 4.77692 36.2393 4.93846C36.4571 5.15385 36.7293 5.26154 37.1104 5.26154C37.4915 5.26154 37.7637 5.15385 37.9814 4.93846C38.1992 4.72308 38.3081 4.45385 38.3081 4.13077C38.3081 3.80769 38.2536 3.48462 38.0359 3.32308Z" fill="white"/>
</g>
</g>
<defs>
<clipPath id="clip0_313_712">
<rect width="48" height="33" fill="white"/>
</clipPath>
<clipPath id="clip1_313_712">
<rect width="48.4615" height="28" fill="white" transform="translate(0 3)"/>
</clipPath>
</defs>
</svg>
