<svg width="486" height="54" viewBox="0 0 486 56" fill="none" xmlns="http://www.w3.org/2000/svg">
<path d="M32.0522 43.628L33.4702 43.1387L33.1214 42.128H32.0522V43.628ZM13.3742 43.628V42.128H12.3121L11.9594 43.1298L13.3742 43.628ZM10.0742 53V54.5H11.1363L11.4891 53.4982L10.0742 53ZM0.240242 53L-1.16541 52.4764L-1.91918 54.5H0.240242V53ZM17.4002 6.932V5.432H16.3583L15.9946 6.40841L17.4002 6.932ZM28.0262 6.932L29.4326 6.41018L29.0696 5.432H28.0262V6.932ZM45.1202 53V54.5H47.2768L46.5266 52.4782L45.1202 53ZM35.2862 53L33.8683 53.4893L34.2171 54.5H35.2862V53ZM29.5442 36.566V38.066H31.6565L30.9605 36.0717L29.5442 36.566ZM22.6802 16.898L24.0965 16.4037L22.6802 12.3457L21.264 16.4037L22.6802 16.898ZM15.8162 36.566L14.4 36.0717L13.704 38.066H15.8162V36.566ZM32.0522 42.128H13.3742V45.128H32.0522V42.128ZM11.9594 43.1298L8.65939 52.5018L11.4891 53.4982L14.7891 44.1262L11.9594 43.1298ZM10.0742 51.5H0.240242V54.5H10.0742V51.5ZM1.64589 53.5236L18.8059 7.45559L15.9946 6.40841L-1.16541 52.4764L1.64589 53.5236ZM17.4002 8.432H28.0262V5.432H17.4002V8.432ZM26.6199 7.45382L43.7139 53.5218L46.5266 52.4782L29.4326 6.41018L26.6199 7.45382ZM45.1202 51.5H35.2862V54.5H45.1202V51.5ZM36.7042 52.5107L33.4702 43.1387L30.6343 44.1173L33.8683 53.4893L36.7042 52.5107ZM30.9605 36.0717L24.0965 16.4037L21.264 17.3923L28.128 37.0603L30.9605 36.0717ZM21.264 16.4037L14.4 36.0717L17.2325 37.0603L24.0965 17.3923L21.264 16.4037ZM15.8162 38.066H29.5442V35.066H15.8162V38.066ZM107.167 20.066L106.063 21.082L106.072 21.0911L106.08 21.1L107.167 20.066ZM111.061 53V54.5H112.561V53H111.061ZM101.821 53H100.321V54.5H101.821V53ZM99.6429 26.336L98.5359 27.3482L98.551 27.3647L98.5666 27.3807L99.6429 26.336ZM87.5649 26.468L88.6546 27.4988L87.5649 26.468ZM85.2549 53V54.5H86.7549V53H85.2549ZM76.0149 53H74.5149V54.5H76.0149V53ZM73.8369 26.336L72.7299 27.3482L72.745 27.3647L72.7606 27.3807L73.8369 26.336ZM59.4489 53V54.5H60.9489V53H59.4489ZM50.1429 53H48.6429V54.5H50.1429V53ZM50.1429 16.436V14.936H48.6429V16.436H50.1429ZM59.4489 16.436H60.9489V14.936H59.4489V16.436ZM59.4489 23.366H57.9489L60.8381 23.9319L59.4489 23.366ZM64.0029 17.888L64.7906 19.1646L64.7979 19.16L64.0029 17.888ZM78.9849 18.02L78.1647 19.276L78.1764 19.2834L78.9849 18.02ZM83.9349 24.092L82.5503 24.6689L83.8728 27.8427L85.2997 24.7145L83.9349 24.092ZM89.017 18.152L89.8318 19.4114L89.8378 19.4075L89.017 18.152ZM96.673 17.408C100.78 17.408 103.847 18.6741 106.063 21.082L108.27 19.05C105.383 15.9139 101.454 14.408 96.673 14.408V17.408ZM106.08 21.1C108.33 23.4646 109.561 26.9377 109.561 31.748H112.561C112.561 26.4383 111.195 22.1234 108.254 19.032L106.08 21.1ZM109.561 31.748V53H112.561V31.748H109.561ZM111.061 51.5H101.821V54.5H111.061V51.5ZM103.321 53V32.804H100.321V53H103.321ZM103.321 32.804C103.321 29.738 102.527 27.1538 100.719 25.2913L98.5666 27.3807C99.6629 28.5103 100.321 30.238 100.321 32.804H103.321ZM100.75 25.3238C99.001 23.4109 96.6058 22.526 93.7689 22.526V25.526C95.9481 25.526 97.4689 26.1811 98.5359 27.3482L100.75 25.3238ZM93.7689 22.526C90.832 22.526 88.3441 23.4616 86.4752 25.4372L88.6546 27.4988C89.8658 26.2184 91.5139 25.526 93.7689 25.526V22.526ZM86.4752 25.4372C84.583 27.4376 83.7549 30.2409 83.7549 33.596H86.7549C86.7549 30.7031 87.4669 28.7544 88.6546 27.4988L86.4752 25.4372ZM83.7549 33.596V53H86.7549V33.596H83.7549ZM85.2549 51.5H76.0149V54.5H85.2549V51.5ZM77.5149 53V32.804H74.5149V53H77.5149ZM77.5149 32.804C77.5149 29.738 76.721 27.1538 74.9133 25.2913L72.7606 27.3807C73.8569 28.5103 74.5149 30.238 74.5149 32.804H77.5149ZM74.944 25.3238C73.195 23.4109 70.7998 22.526 67.9629 22.526V25.526C70.1421 25.526 71.6629 26.1811 72.7299 27.3482L74.944 25.3238ZM67.9629 22.526C65.026 22.526 62.5381 23.4616 60.6692 25.4372L62.8486 27.4988C64.0598 26.2184 65.7079 25.526 67.9629 25.526V22.526ZM60.6692 25.4372C58.777 27.4376 57.9489 30.2409 57.9489 33.596H60.9489C60.9489 30.7031 61.6609 28.7544 62.8486 27.4988L60.6692 25.4372ZM57.9489 33.596V53H60.9489V33.596H57.9489ZM59.4489 51.5H50.1429V54.5H59.4489V51.5ZM51.6429 53V16.436H48.6429V53H51.6429ZM50.1429 17.936H59.4489V14.936H50.1429V17.936ZM57.9489 16.436V23.366H60.9489V16.436H57.9489ZM60.8381 23.9319C61.6932 21.8331 63.009 20.2638 64.7906 19.1646L63.2153 16.6114C60.8608 18.0642 59.1407 20.1469 58.0598 22.8001L60.8381 23.9319ZM64.7979 19.16C66.6452 18.0055 68.8053 17.408 71.3289 17.408V14.408C68.3086 14.408 65.5847 15.1305 63.2079 16.616L64.7979 19.16ZM71.3289 17.408C74.029 17.408 76.2866 18.0493 78.1648 19.2759L79.8051 16.7641C77.3713 15.1747 74.5249 14.408 71.3289 14.408V17.408ZM78.1764 19.2834C80.0944 20.511 81.5562 22.283 82.5503 24.6689L85.3196 23.5151C84.1137 20.621 82.2755 18.345 79.7935 16.7566L78.1764 19.2834ZM85.2997 24.7145C86.3288 22.4583 87.8359 20.7028 89.8318 19.4114L88.2021 16.8926C85.71 18.5052 83.8291 20.7097 82.5702 23.4695L85.2997 24.7145ZM89.8378 19.4075C91.8741 18.076 94.1392 17.408 96.673 17.408V14.408C93.5747 14.408 90.7358 15.236 88.1961 16.8965L89.8378 19.4075ZM141.479 18.152L140.652 19.4039V19.4039L141.479 18.152ZM146.165 24.026L144.76 24.5527L147.665 24.026H146.165ZM146.165 16.436V14.936H144.665V16.436H146.165ZM155.405 16.436H156.905V14.936H155.405V16.436ZM155.405 53V54.5H156.905V53H155.405ZM146.165 53H144.665V54.5H146.165V53ZM146.165 45.344H147.665L144.76 44.8173L146.165 45.344ZM141.479 51.284L142.305 52.5359L142.314 52.5302L142.322 52.5244L141.479 51.284ZM125.243 51.218L124.464 52.5002V52.5002L125.243 51.218ZM119.435 44.75L118.081 45.3957L118.087 45.4083L118.093 45.4208L119.435 44.75ZM119.435 24.752L118.089 24.0895L118.085 24.0981L119.435 24.752ZM125.243 18.218L126.021 19.5002L125.243 18.218ZM129.467 26.93L130.565 27.9517L129.467 26.93ZM129.467 42.506L128.368 43.5277L128.374 43.5341L128.38 43.5405L129.467 42.506ZM143.393 42.44L142.308 41.4043L142.307 41.4049L143.393 42.44ZM143.393 26.996L142.295 28.0186L142.307 28.0315L142.32 28.0441L143.393 26.996ZM133.559 17.474C136.396 17.474 138.737 18.1395 140.652 19.4039L142.305 16.9001C139.821 15.2605 136.882 14.474 133.559 14.474V17.474ZM140.652 19.4039C142.588 20.6816 143.948 22.386 144.76 24.5527L147.569 23.4993C146.534 20.738 144.769 18.5264 142.305 16.9001L140.652 19.4039ZM147.665 24.026V16.436H144.665V24.026H147.665ZM146.165 17.936H155.405V14.936H146.165V17.936ZM153.905 16.436V53H156.905V16.436H153.905ZM155.405 51.5H146.165V54.5H155.405V51.5ZM147.665 53V45.344H144.665V53H147.665ZM144.76 44.8173C143.946 46.9878 142.582 48.7198 140.635 50.0436L142.322 52.5244C144.775 50.8562 146.535 48.6282 147.569 45.8707L144.76 44.8173ZM140.652 50.0321C138.737 51.2965 136.396 51.962 133.559 51.962V54.962C136.882 54.962 139.821 54.1755 142.305 52.5359L140.652 50.0321ZM133.559 51.962C130.734 51.962 128.234 51.2795 126.021 49.9358L124.464 52.5002C127.179 54.1485 130.224 54.962 133.559 54.962V51.962ZM126.021 49.9358C123.821 48.5999 122.07 46.6666 120.776 44.0792L118.093 45.4208C119.615 48.4654 121.737 50.8441 124.464 52.5002L126.021 49.9358ZM120.789 44.1043C119.539 41.4836 118.889 38.3683 118.889 34.718H115.889C115.889 38.7237 116.603 42.2964 118.081 45.3957L120.789 44.1043ZM118.889 34.718C118.889 31.0668 119.539 27.9776 120.785 25.4059L118.085 24.0981C116.602 27.1584 115.889 30.7132 115.889 34.718H118.889ZM120.78 25.4145C122.076 22.7828 123.827 20.8324 126.021 19.5002L124.464 16.9358C121.731 18.5956 119.609 21.0012 118.089 24.0895L120.78 25.4145ZM126.021 19.5002C128.234 18.1565 130.734 17.474 133.559 17.474V14.474C130.224 14.474 127.179 15.2875 124.464 16.9358L126.021 19.5002ZM136.463 22.592C133.199 22.592 130.449 23.6719 128.368 25.9083L130.565 27.9517C132.005 26.4041 133.918 25.592 136.463 25.592V22.592ZM128.368 25.9083C126.285 28.1485 125.327 31.1479 125.327 34.718H128.327C128.327 31.6881 129.129 29.4955 130.565 27.9517L128.368 25.9083ZM125.327 34.718C125.327 38.2881 126.285 41.2875 128.368 43.5277L130.565 41.4843C129.129 39.9405 128.327 37.7479 128.327 34.718H125.327ZM128.38 43.5405C130.464 45.7279 133.21 46.778 136.463 46.778V43.778C133.907 43.778 131.99 42.9801 130.553 41.4715L128.38 43.5405ZM136.463 46.778C139.654 46.778 142.368 45.6886 144.478 43.4751L142.307 41.4049C140.81 42.9754 138.904 43.778 136.463 43.778V46.778ZM144.478 43.4757C146.644 41.2065 147.665 38.2337 147.665 34.718H144.665C144.665 37.6263 143.838 39.8015 142.308 41.4043L144.478 43.4757ZM147.665 34.718C147.665 31.166 146.648 28.1819 144.466 25.9479L142.32 28.0441C143.834 29.5941 144.665 31.758 144.665 34.718H147.665ZM144.49 25.9734C142.383 23.7117 139.665 22.592 136.463 22.592V25.592C138.892 25.592 140.795 26.4083 142.295 28.0186L144.49 25.9734ZM171.362 45.212L170.194 44.2706L168.226 46.712H171.362V45.212ZM189.314 45.212H190.814V43.712H189.314V45.212ZM189.314 53V54.5H190.814V53H189.314ZM161.198 53H159.698V54.5H161.198V53ZM161.198 45.608L160.018 44.6821L159.698 45.0898V45.608H161.198ZM178.028 24.158L179.208 25.0839L181.112 22.658H178.028V24.158ZM161.594 24.158H160.094V25.658H161.594V24.158ZM161.594 16.436V14.936H160.094V16.436H161.594ZM188.654 16.436H190.154V14.936H188.654V16.436ZM188.654 23.762L189.822 24.7034L190.154 24.2913V23.762H188.654ZM171.362 46.712H189.314V43.712H171.362V46.712ZM187.814 45.212V53H190.814V45.212H187.814ZM189.314 51.5H161.198V54.5H189.314V51.5ZM162.698 53V45.608H159.698V53H162.698ZM162.378 46.5339L179.208 25.0839L176.848 23.2321L160.018 44.6821L162.378 46.5339ZM178.028 22.658H161.594V25.658H178.028V22.658ZM163.094 24.158V16.436H160.094V24.158H163.094ZM161.594 17.936H188.654V14.936H161.594V17.936ZM187.154 16.436V23.762H190.154V16.436H187.154ZM187.486 22.8206L170.194 44.2706L172.53 46.1534L189.822 24.7034L187.486 22.8206ZM221.564 18.218L220.86 19.5427L220.869 19.5471L221.564 18.218ZM228.296 24.752L226.992 25.4941L226.997 25.5028L228.296 24.752ZM228.296 44.684L229.595 45.4348L228.296 44.684ZM221.564 51.218L222.268 52.5427L222.275 52.5387L221.564 51.218ZM202.358 51.218L201.638 52.5341L201.65 52.5407L201.663 52.5471L202.358 51.218ZM195.692 44.684L194.393 45.4348L195.692 44.684ZM195.692 24.752L196.991 25.5028L196.996 25.494L195.692 24.752ZM202.358 18.218L201.663 16.8888L201.654 16.8933L202.358 18.218ZM205.394 26.798L206.455 27.8587L206.461 27.8523L206.467 27.8458L205.394 26.798ZM205.394 42.704L204.321 43.7518L204.327 43.7583L204.333 43.7647L205.394 42.704ZM218.594 42.704L219.655 43.7647L219.661 43.7583L219.667 43.7518L218.594 42.704ZM218.594 26.798L217.521 27.8458L217.527 27.8523L217.533 27.8587L218.594 26.798ZM211.994 17.474C215.342 17.474 218.285 18.1748 220.86 19.5427L222.268 16.8933C219.211 15.2692 215.774 14.474 211.994 14.474V17.474ZM220.869 19.5471C223.469 20.9071 225.504 22.8788 226.992 25.494L229.6 24.0099C227.832 20.9052 225.379 18.5209 222.259 16.8889L220.869 19.5471ZM226.997 25.5028C228.472 28.0531 229.238 31.1066 229.238 34.718H232.238C232.238 30.6734 231.376 27.0829 229.595 24.0012L226.997 25.5028ZM229.238 34.718C229.238 38.3293 228.472 41.3829 226.997 43.9332L229.595 45.4348C231.376 42.3531 232.238 38.7626 232.238 34.718H229.238ZM226.997 43.9332C225.508 46.5088 223.468 48.4893 220.853 49.8973L222.275 52.5387C225.38 50.8667 227.828 48.4912 229.595 45.4348L226.997 43.9332ZM220.86 49.8933C218.285 51.2612 215.342 51.962 211.994 51.962V54.962C215.774 54.962 219.211 54.1668 222.268 52.5427L220.86 49.8933ZM211.994 51.962C208.646 51.962 205.677 51.2613 203.053 49.8889L201.663 52.5471C204.759 54.1667 208.214 54.962 211.994 54.962V51.962ZM203.078 49.9019C200.506 48.4957 198.483 46.5147 196.991 43.9332L194.393 45.4348C196.157 48.4853 198.578 50.8603 201.638 52.5341L203.078 49.9019ZM196.991 43.9332C195.516 41.3829 194.75 38.3293 194.75 34.718H191.75C191.75 38.7626 192.612 42.3531 194.393 45.4348L196.991 43.9332ZM194.75 34.718C194.75 31.1066 195.516 28.0531 196.991 25.5028L194.393 24.0012C192.612 27.0829 191.75 30.6734 191.75 34.718H194.75ZM196.996 25.494C198.488 22.8728 200.505 20.9008 203.062 19.5427L201.654 16.8933C198.579 18.5272 196.152 20.9112 194.388 24.0099L196.996 25.494ZM203.053 19.5471C205.677 18.1747 208.646 17.474 211.994 17.474V14.474C208.214 14.474 204.759 15.2693 201.663 16.8889L203.053 19.5471ZM211.994 22.526C208.996 22.526 206.409 23.6113 204.321 25.7502L206.467 27.8458C207.987 26.2887 209.8 25.526 211.994 25.526V22.526ZM204.333 25.7373C202.158 27.9123 201.188 30.992 201.188 34.718H204.188C204.188 31.492 205.022 29.2917 206.455 27.8587L204.333 25.7373ZM201.188 34.718C201.188 38.4466 202.159 41.5378 204.321 43.7518L206.467 41.6562C205.021 40.1742 204.188 37.9414 204.188 34.718H201.188ZM204.333 43.7647C206.424 45.8555 209.008 46.91 211.994 46.91V43.91C209.788 43.91 207.972 43.1605 206.455 41.6433L204.333 43.7647ZM211.994 46.91C214.98 46.91 217.564 45.8555 219.655 43.7647L217.533 41.6433C216.016 43.1605 214.2 43.91 211.994 43.91V46.91ZM219.667 43.7518C221.829 41.5378 222.8 38.4466 222.8 34.718H219.8C219.8 37.9414 218.967 40.1742 217.521 41.6562L219.667 43.7518ZM222.8 34.718C222.8 30.992 221.83 27.9123 219.655 25.7373L217.533 27.8587C218.966 29.2917 219.8 31.492 219.8 34.718H222.8ZM219.667 25.7502C217.579 23.6113 214.992 22.526 211.994 22.526V25.526C214.188 25.526 216.001 26.2887 217.521 27.8458L219.667 25.7502ZM269.193 20.066L270.305 19.0596L269.193 20.066ZM272.955 53V54.5H274.455V53H272.955ZM263.715 53H262.215V54.5H263.715V53ZM261.471 26.072L260.366 27.0869L260.373 27.0945L260.38 27.1019L261.471 26.072ZM246.621 53V54.5H248.121V53H246.621ZM237.315 53H235.815V54.5H237.315V53ZM237.315 16.436V14.936H235.815V16.436H237.315ZM246.621 16.436H248.121V14.936H246.621V16.436ZM246.621 23.762H245.121L248.017 24.3105L246.621 23.762ZM251.373 18.02L252.163 19.2949L252.17 19.2906L251.373 18.02ZM259.095 17.408C262.956 17.408 265.895 18.6573 268.081 21.0724L270.305 19.0596C267.474 15.9307 263.682 14.408 259.095 14.408V17.408ZM268.081 21.0724C270.264 23.4859 271.455 26.9748 271.455 31.748H274.455C274.455 26.4892 273.138 22.1901 270.305 19.0596L268.081 21.0724ZM271.455 31.748V53H274.455V31.748H271.455ZM272.955 51.5H263.715V54.5H272.955V51.5ZM265.215 53V32.804H262.215V53H265.215ZM265.215 32.804C265.215 29.6476 264.398 26.9868 262.561 25.0421L260.38 27.1019C261.536 28.3252 262.215 30.1524 262.215 32.804H265.215ZM262.575 25.0571C260.745 23.0657 258.269 22.13 255.333 22.13V25.13C257.589 25.13 259.204 25.8223 260.366 27.0869L262.575 25.0571ZM255.333 22.13C252.334 22.13 249.801 23.1213 247.895 25.1866L250.099 27.2214C251.361 25.8547 253.051 25.13 255.333 25.13V22.13ZM247.895 25.1866C245.972 27.2693 245.121 30.1498 245.121 33.596H248.121C248.121 30.6182 248.854 28.5707 250.099 27.2214L247.895 25.1866ZM245.121 33.596V53H248.121V33.596H245.121ZM246.621 51.5H237.315V54.5H246.621V51.5ZM238.815 53V16.436H235.815V53H238.815ZM237.315 17.936H246.621V14.936H237.315V17.936ZM245.121 16.436V23.762H248.121V16.436H245.121ZM248.017 24.3105C248.87 22.1402 250.245 20.4843 252.163 19.2949L250.582 16.7451C248.101 18.2837 246.308 20.4558 245.225 23.2135L248.017 24.3105ZM252.17 19.2906C254.152 18.0468 256.445 17.408 259.095 17.408V14.408C255.937 14.408 253.081 15.1772 250.576 16.7494L252.17 19.2906ZM345.742 6.932H347.242V5.432H345.742V6.932ZM345.742 53V54.5H347.242V53H345.742ZM336.502 53H335.002V54.5H336.502V53ZM336.502 20.858H338.002L335.094 20.3405L336.502 20.858ZM324.688 53V54.5H325.735L326.096 53.5175L324.688 53ZM316.636 53L315.229 53.5194L315.591 54.5H316.636V53ZM304.822 20.99L306.229 20.4706L303.322 20.99H304.822ZM304.822 53V54.5H306.322V53H304.822ZM295.516 53H294.016V54.5H295.516V53ZM295.516 6.932V5.432H294.016V6.932H295.516ZM306.802 6.932L308.193 6.37035L307.814 5.432H306.802V6.932ZM320.794 41.582L319.403 42.1437L320.807 45.6209L322.189 42.1345L320.794 41.582ZM334.522 6.932V5.432H333.503L333.127 6.3795L334.522 6.932ZM344.242 6.932V53H347.242V6.932H344.242ZM345.742 51.5H336.502V54.5H345.742V51.5ZM338.002 53V20.858H335.002V53H338.002ZM335.094 20.3405L323.28 52.4825L326.096 53.5175L337.91 21.3755L335.094 20.3405ZM324.688 51.5H316.636V54.5H324.688V51.5ZM318.043 52.4806L306.229 20.4706L303.415 21.5094L315.229 53.5194L318.043 52.4806ZM303.322 20.99V53H306.322V20.99H303.322ZM304.822 51.5H295.516V54.5H304.822V51.5ZM297.016 53V6.932H294.016V53H297.016ZM295.516 8.432H306.802V5.432H295.516V8.432ZM305.411 7.49365L319.403 42.1437L322.185 41.0203L308.193 6.37035L305.411 7.49365ZM322.189 42.1345L335.917 7.4845L333.127 6.3795L319.399 41.0295L322.189 42.1345ZM334.522 8.432H345.742V5.432H334.522V8.432ZM389.148 16.436H390.648V14.936H389.148V16.436ZM389.148 53V54.5H390.648V53H389.148ZM379.842 53H378.342V54.5H379.842V53ZM379.842 45.608H381.342L378.446 45.0595L379.842 45.608ZM375.024 51.416L375.815 52.6909L375.822 52.6866L375.024 51.416ZM357.27 49.304L358.383 48.2976L357.27 49.304ZM353.508 16.436V14.936H352.008V16.436H353.508ZM362.748 16.436H364.248V14.936H362.748V16.436ZM364.992 43.43L363.888 44.4449L363.895 44.4525L363.902 44.4599L364.992 43.43ZM377.466 43.232L378.569 44.2494L377.466 43.232ZM379.842 16.436V14.936H378.342V16.436H379.842ZM387.648 16.436V53H390.648V16.436H387.648ZM389.148 51.5H379.842V54.5H389.148V51.5ZM381.342 53V45.608H378.342V53H381.342ZM378.446 45.0595C377.596 47.2248 376.2 48.9078 374.227 50.1454L375.822 52.6866C378.337 51.1082 380.153 48.9193 381.238 46.1565L378.446 45.0595ZM374.234 50.1411C372.299 51.3406 370.028 51.962 367.368 51.962V54.962C370.517 54.962 373.349 54.2194 375.815 52.6909L374.234 50.1411ZM367.368 51.962C363.507 51.962 360.568 50.7127 358.383 48.2976L356.158 50.3104C358.989 53.4393 362.782 54.962 367.368 54.962V51.962ZM358.383 48.2976C356.197 45.8819 355.008 42.4131 355.008 37.688H352.008C352.008 42.9069 353.328 47.1821 356.158 50.3104L358.383 48.2976ZM355.008 37.688V16.436H352.008V37.688H355.008ZM353.508 17.936H362.748V14.936H353.508V17.936ZM361.248 16.436V36.632H364.248V16.436H361.248ZM361.248 36.632C361.248 39.7911 362.066 42.4624 363.888 44.4449L366.097 42.4151C364.927 41.1416 364.248 39.2809 364.248 36.632H361.248ZM363.902 44.4599C365.73 46.3957 368.177 47.306 371.064 47.306V44.306C368.848 44.306 367.247 43.6323 366.083 42.4001L363.902 44.4599ZM371.064 47.306C374.098 47.306 376.657 46.3201 378.569 44.2494L376.364 42.2146C375.108 43.5759 373.398 44.306 371.064 44.306V47.306ZM378.569 44.2494C380.491 42.1667 381.342 39.2862 381.342 35.84H378.342C378.342 38.8178 377.61 40.8653 376.364 42.2146L378.569 44.2494ZM381.342 35.84V16.436H378.342V35.84H381.342ZM379.842 17.936H389.148V14.936H379.842V17.936ZM420.908 19.34L421.87 18.1892L420.908 19.34ZM425.924 28.316V29.816H427.712L427.401 28.0553L425.924 28.316ZM417.212 28.316L415.741 28.6102L415.982 29.816H417.212V28.316ZM406.058 29.108L405.07 30.2369L406.058 29.108ZM408.698 30.56L408.223 31.983L408.698 30.56ZM413.252 31.814L412.896 33.2711L412.911 33.2749L412.926 33.2783L413.252 31.814ZM419.984 33.794L419.414 35.1818L419.436 35.1904L419.457 35.1985L419.984 33.794ZM424.472 37.028L423.314 37.9816L423.329 38.0001L423.345 38.0182L424.472 37.028ZM422.69 50.558L421.763 49.3785L421.753 49.3867L422.69 50.558ZM401.438 50.294L400.535 51.4918L400.541 51.4962L400.547 51.5006L401.438 50.294ZM396.224 41.12V39.62H394.472L394.742 41.3506L396.224 41.12ZM405.134 41.12L406.623 40.9384L406.462 39.62H405.134V41.12ZM407.51 45.41L406.591 46.5961L406.604 46.6055L406.616 46.6146L407.51 45.41ZM416.486 45.806L417.486 46.9239L417.502 46.9096L417.517 46.8949L416.486 45.806ZM416.618 40.196L415.592 41.2903L415.608 41.3058L415.625 41.3208L416.618 40.196ZM413.912 38.678L413.437 40.101L413.446 40.1039L413.455 40.1066L413.912 38.678ZM409.358 37.424L409.714 35.9669L409.701 35.9638L409.688 35.9608L409.358 37.424ZM402.692 35.576L402.141 36.9712L402.163 36.9799L402.185 36.9878L402.692 35.576ZM398.336 32.474L397.189 33.4413L397.198 33.4516L397.207 33.4618L398.336 32.474ZM400.184 18.944L401.134 20.1049L400.184 18.944ZM410.216 17.474C414.405 17.474 417.598 18.5278 419.946 20.4908L421.87 18.1892C418.85 15.6642 414.914 14.474 410.216 14.474V17.474ZM419.946 20.4908C422.334 22.488 423.842 25.1528 424.447 28.5767L427.401 28.0553C426.685 23.9992 424.849 20.68 421.87 18.1892L419.946 20.4908ZM425.924 26.816H417.212V29.816H425.924V26.816ZM418.683 28.0218C418.272 25.9699 417.326 24.2508 415.812 22.9531L413.86 25.2309C414.81 26.0452 415.447 27.1421 415.741 28.6102L418.683 28.0218ZM415.812 22.9531C414.252 21.6157 412.274 21.008 410.018 21.008V24.008C411.722 24.008 412.956 24.4563 413.86 25.2309L415.812 22.9531ZM410.018 21.008C408.21 21.008 406.587 21.4354 405.35 22.4871L407.293 24.7729C407.816 24.3286 408.658 24.008 410.018 24.008V21.008ZM405.35 22.4871C404.097 23.5521 403.502 25.0019 403.502 26.666H406.502C406.502 25.7781 406.786 25.2039 407.293 24.7729L405.35 22.4871ZM403.502 26.666C403.502 28.0706 404.012 29.3107 405.07 30.2369L407.046 27.9791C406.696 27.6733 406.502 27.2854 406.502 26.666H403.502ZM405.07 30.2369C405.95 31.0065 407.014 31.5798 408.223 31.983L409.172 29.137C408.27 28.8362 407.574 28.4415 407.046 27.9791L405.07 30.2369ZM408.223 31.983C409.338 32.3545 410.903 32.7839 412.896 33.2711L413.608 30.3569C411.641 29.8761 410.17 29.4695 409.172 29.137L408.223 31.983ZM412.926 33.2783C415.654 33.8844 417.807 34.5224 419.414 35.1818L420.553 32.4062C418.728 31.6576 416.394 30.9756 413.577 30.3497L412.926 33.2783ZM419.457 35.1985C420.963 35.7632 422.244 36.682 423.314 37.9816L425.63 36.0744C424.236 34.382 422.525 33.1448 420.51 32.3895L419.457 35.1985ZM423.345 38.0182C424.316 39.1232 424.886 40.7135 424.886 42.968H427.886C427.886 40.2065 427.179 37.8368 425.598 36.0378L423.345 38.0182ZM424.886 42.968C424.886 45.6301 423.866 47.7259 421.763 49.3785L423.616 51.7375C426.441 49.5181 427.886 46.5539 427.886 42.968H424.886ZM421.753 49.3867C419.676 51.0482 416.765 51.962 412.856 51.962V54.962C417.218 54.962 420.864 53.9398 423.627 51.7293L421.753 49.3867ZM412.856 51.962C408.318 51.962 404.856 50.9538 402.329 49.0873L400.547 51.5006C403.739 53.8582 407.89 54.962 412.856 54.962V51.962ZM402.341 49.0962C399.83 47.2038 398.27 44.5139 397.706 40.8894L394.742 41.3506C395.41 45.6461 397.325 49.0722 400.535 51.4918L402.341 49.0962ZM396.224 42.62H405.134V39.62H396.224V42.62ZM403.645 41.3016C403.91 43.4795 404.892 45.2806 406.591 46.5961L408.428 44.2239C407.399 43.4274 406.797 42.3685 406.623 40.9384L403.645 41.3016ZM406.616 46.6146C408.306 47.8683 410.429 48.428 412.856 48.428V45.428C410.882 45.428 409.442 44.9757 408.404 44.2054L406.616 46.6146ZM412.856 48.428C414.657 48.428 416.28 48.003 417.486 46.9239L415.486 44.6881C415.02 45.105 414.222 45.428 412.856 45.428V48.428ZM417.517 46.8949C418.675 45.7983 419.24 44.3818 419.24 42.77H416.24C416.24 43.6222 415.969 44.2297 415.454 44.7171L417.517 46.8949ZM419.24 42.77C419.24 41.3122 418.702 40.0344 417.61 39.0712L415.625 41.3208C416.03 41.6776 416.24 42.1158 416.24 42.77H419.24ZM417.644 39.1017C416.748 38.2624 415.64 37.656 414.369 37.2494L413.455 40.1066C414.384 40.404 415.079 40.8096 415.592 41.2903L417.644 39.1017ZM414.386 37.255C413.272 36.8835 411.707 36.4541 409.714 35.9669L409.002 38.8811C410.969 39.3619 412.44 39.7685 413.437 40.101L414.386 37.255ZM409.688 35.9608C406.992 35.352 404.835 34.7517 403.199 34.1642L402.185 36.9878C403.98 37.6323 406.267 38.264 409.027 38.8872L409.688 35.9608ZM403.242 34.1808C401.802 33.6122 400.546 32.7219 399.465 31.4862L397.207 33.4618C398.59 35.0421 400.237 36.2198 402.141 36.9712L403.242 34.1808ZM399.482 31.5067C398.59 30.4489 398.054 28.8963 398.054 26.666H395.054C395.054 29.3637 395.706 31.6831 397.189 33.4413L399.482 31.5067ZM398.054 26.666C398.054 23.941 399.067 21.7957 401.134 20.1049L399.234 17.7831C396.46 20.0523 395.054 23.055 395.054 26.666H398.054ZM401.134 20.1049C403.202 18.4125 406.168 17.474 410.216 17.474V14.474C405.727 14.474 402.005 15.5155 399.234 17.7831L401.134 20.1049ZM433.845 2.312L434.833 3.44087L434.846 3.42945L434.858 3.41773L433.845 2.312ZM442.161 2.312L441.147 3.41773L441.16 3.42945L441.173 3.44087L442.161 2.312ZM442.161 9.572L443.149 10.7009L443.162 10.6894L443.174 10.6777L442.161 9.572ZM433.845 9.572L432.831 10.6777L432.844 10.6894L432.857 10.7009L433.845 9.572ZM442.623 16.436H444.123V14.936H442.623V16.436ZM442.623 53V54.5H444.123V53H442.623ZM433.317 53H431.817V54.5H433.317V53ZM433.317 16.436V14.936H431.817V16.436H433.317ZM433.761 5.942C433.761 4.84613 434.126 4.05936 434.833 3.44087L432.857 1.18313C431.452 2.41264 430.761 4.04587 430.761 5.942H433.761ZM434.858 3.41773C435.585 2.75179 436.584 2.36 438.003 2.36V-0.640001C435.99 -0.640001 434.217 -0.0637913 432.831 1.20627L434.858 3.41773ZM438.003 2.36C439.422 2.36 440.421 2.75179 441.147 3.41773L443.174 1.20627C441.789 -0.0637913 440.016 -0.640001 438.003 -0.640001V2.36ZM441.173 3.44087C441.88 4.05936 442.245 4.84613 442.245 5.942H445.245C445.245 4.04587 444.554 2.41264 443.149 1.18313L441.173 3.44087ZM442.245 5.942C442.245 6.98005 441.888 7.78675 441.147 8.46626L443.174 10.6777C444.545 9.42125 445.245 7.80795 445.245 5.942H442.245ZM441.173 8.44313C440.448 9.07755 439.44 9.458 438.003 9.458V12.458C439.998 12.458 441.762 11.9144 443.149 10.7009L441.173 8.44313ZM438.003 9.458C436.566 9.458 435.558 9.07755 434.833 8.44313L432.857 10.7009C434.244 11.9144 436.008 12.458 438.003 12.458V9.458ZM434.858 8.46626C434.117 7.78675 433.761 6.98005 433.761 5.942H430.761C430.761 7.80795 431.46 9.42125 432.831 10.6777L434.858 8.46626ZM441.123 16.436V53H444.123V16.436H441.123ZM442.623 51.5H433.317V54.5H442.623V51.5ZM434.817 53V16.436H431.817V53H434.817ZM433.317 17.936H442.623V14.936H433.317V17.936ZM479.223 19.802L478.274 20.9637L478.282 20.9701L479.223 19.802ZM485.163 30.23V31.73H486.957L486.64 29.9643L485.163 30.23ZM475.329 30.23L473.86 30.5306L474.105 31.73H475.329V30.23ZM472.623 25.676L471.677 26.8402L471.689 26.8492L471.7 26.858L472.623 25.676ZM461.073 26.732L459.961 25.7256L459.96 25.7271L461.073 26.732ZM461.073 42.77L459.948 43.7615L459.96 43.7758L459.973 43.7896L461.073 42.77ZM472.623 43.826L473.547 45.008L473.558 44.9992L473.569 44.9902L472.623 43.826ZM475.329 39.206V37.706H474.105L473.86 38.9054L475.329 39.206ZM485.163 39.206L486.64 39.4717L486.957 37.706H485.163V39.206ZM479.223 49.634L478.282 48.4658L478.274 48.4723L479.223 49.634ZM457.971 51.218L457.243 52.5292L457.251 52.5337L457.259 52.538L457.971 51.218ZM451.503 44.684L450.187 45.4037L451.503 44.684ZM451.503 24.752L452.819 25.4717L452.824 25.4631L451.503 24.752ZM457.971 18.218L458.684 19.538L457.971 18.218ZM467.475 17.474C471.898 17.474 475.462 18.666 478.274 20.9637L480.172 18.6403C476.737 15.834 472.469 14.474 467.475 14.474V17.474ZM478.282 20.9701C481.141 23.2726 482.952 26.4133 483.687 30.4957L486.64 29.9643C485.79 25.2467 483.642 21.4354 480.164 18.6339L478.282 20.9701ZM485.163 28.73H475.329V31.73H485.163V28.73ZM476.799 29.9294C476.34 27.6837 475.266 25.8372 473.547 24.494L471.7 26.858C472.797 27.7148 473.527 28.9043 473.86 30.5306L476.799 29.9294ZM473.569 24.5118C471.846 23.1115 469.71 22.46 467.277 22.46V25.46C469.157 25.46 470.585 25.9525 471.677 26.8402L473.569 24.5118ZM467.277 22.46C464.384 22.46 461.914 23.5674 459.961 25.7256L462.186 27.7384C463.577 26.2006 465.243 25.46 467.277 25.46V22.46ZM459.96 25.7271C457.991 27.9082 457.131 30.9911 457.131 34.718H460.131C460.131 31.4049 460.899 29.1638 462.187 27.7369L459.96 25.7271ZM457.131 34.718C457.131 38.4482 457.993 41.5422 459.948 43.7615L462.199 41.7785C460.898 40.3018 460.131 38.0278 460.131 34.718H457.131ZM459.973 43.7896C461.93 45.9005 464.397 46.976 467.277 46.976V43.976C465.23 43.976 463.561 43.2475 462.174 41.7504L459.973 43.7896ZM467.277 46.976C469.697 46.976 471.824 46.3541 473.547 45.008L471.7 42.644C470.607 43.4979 469.17 43.976 467.277 43.976V46.976ZM473.569 44.9902C475.271 43.6075 476.34 41.7499 476.799 39.5066L473.86 38.9054C473.527 40.5341 472.792 41.7565 471.677 42.6618L473.569 44.9902ZM475.329 40.706H485.163V37.706H475.329V40.706ZM483.687 38.9403C482.952 43.0227 481.141 46.1634 478.282 48.4659L480.164 50.8021C483.642 48.0006 485.79 44.1893 486.64 39.4717L483.687 38.9403ZM478.274 48.4723C475.462 50.77 471.898 51.962 467.475 51.962V54.962C472.469 54.962 476.737 53.602 480.172 50.7957L478.274 48.4723ZM467.475 51.962C464.127 51.962 461.21 51.2611 458.684 49.898L457.259 52.538C460.277 54.1669 463.696 54.962 467.475 54.962V51.962ZM458.7 49.9068C456.179 48.5062 454.225 46.5347 452.819 43.9643L450.187 45.4037C451.862 48.4653 454.22 50.8498 457.243 52.5292L458.7 49.9068ZM452.819 43.9643C451.421 41.4078 450.693 38.3428 450.693 34.718H447.693C447.693 38.7491 448.505 42.3282 450.187 45.4037L452.819 43.9643ZM450.693 34.718C450.693 31.0931 451.421 28.0281 452.819 25.4717L450.187 24.0323C448.505 27.1078 447.693 30.6868 447.693 34.718H450.693ZM452.824 25.4631C454.23 22.8526 456.178 20.8903 458.684 19.538L457.259 16.898C454.221 18.5377 451.857 20.9313 450.183 24.0408L452.824 25.4631ZM458.684 19.538C461.21 18.1749 464.127 17.474 467.475 17.474V14.474C463.696 14.474 460.277 15.2691 457.259 16.898L458.684 19.538Z" fill="url(#paint0_linear_338_9727)"/>
<defs>
<linearGradient id="paint0_linear_338_9727" x1="168.92" y1="29.5" x2="271.886" y2="165.523" gradientUnits="userSpaceOnUse">
<stop stop-color="#2465FF" stop-opacity="0.9"/>
<stop offset="0.62938" stop-color="#BB4CFF" stop-opacity="0.453125"/>
<stop offset="1" stop-color="#D68AD3" stop-opacity="0.587575"/>
</linearGradient>
</defs>
</svg>
