<svg width="840" height="330" viewBox="0 0 84 33" fill="none" xmlns="http://www.w3.org/2000/svg">
<g clip-path="url(#clip0_313_710)">
<g clip-path="url(#clip1_313_710)">
<path d="M35.4 25.1V11.6H35.3L29.9 25.1H27.8L22.4 11.6H22.3V25.1H19.8V6.79999H23L28.8 21.4H28.9L34.7 6.79999H38V25.1H35.4ZM52.1 25.1H49.5V22.8H49.4C48.7 24.4 47.3 25.3 45.3 25.3C42.4 25.3 40.7 23.4 40.7 20.3V11.7H43.4V19.8C43.4 21.8 44.4 22.9 46.2 22.9C48.2 22.9 49.3 21.5 49.3 19.4V11.7H52L52.1 25.1ZM59.5 11.5C62.6 11.5 64.5 13.2 64.6 15.7H62.1C61.9 14.4 61 13.6 59.5 13.6C58 13.6 57 14.3 57 15.4C57 16.2 57.6 16.8 59 17.1L61.1 17.6C63.8 18.2 64.8 19.3 64.8 21.2C64.8 23.6 62.6 25.3 59.5 25.3C56.2 25.3 54.2 23.7 54 21.1H56.7C56.9 22.5 57.9 23.2 59.5 23.2C61.1 23.2 62.1 22.5 62.1 21.4C62.1 20.5 61.6 20 60.2 19.7L58.1 19.2C55.6 18.6 54.4 17.4 54.4 15.4C54.4 13.1 56.4 11.5 59.5 11.5ZM66.8 8.19999C66.8 7.29999 67.5 6.59999 68.4 6.59999C69.3 6.59999 70 7.29999 70 8.19999C70 9.09999 69.3 9.79999 68.4 9.79999C67.5 9.79999 66.8 9.09999 66.8 8.19999ZM67 11.7H69.7V25.1H67V11.7ZM81.1 16.3C80.8 14.9 79.8 13.7 78 13.7C75.9 13.7 74.5 15.5 74.5 18.3C74.5 21.2 75.9 22.9 78 22.9C79.7 22.9 80.7 22 81.1 20.4H83.7C83.4 23.2 81.2 25.2 78 25.2C74.2 25.2 71.8 22.6 71.8 18.3C71.8 14.1 74.2 11.4 78 11.4C81.4 11.4 83.4 13.6 83.7 16.2L81.1 16.3ZM11.5 8.59999C10.8 9.39999 9.69999 10.1 8.59999 9.99999C8.39999 8.79999 8.99999 7.59999 9.59999 6.89999C10.3 5.99999 11.5 5.39999 12.5 5.39999C12.6 6.49999 12.2 7.69999 11.5 8.59999ZM12.5 10.2C13.1 10.2 14.9 10.4 16.1 12.2C16 12.3 14 13.5 14 16C14 19 16.6 20 16.6 20C16.6 20.1 16.2 21.4 15.3 22.8C14.5 24 13.6 25.2 12.3 25.2C11 25.2 10.6 24.4 9.09999 24.4C7.59999 24.4 7.09999 25.2 5.89999 25.2C4.59999 25.2 3.59999 23.9 2.79999 22.7C1.09999 20.2 -0.200013 15.7 1.59999 12.7C2.39999 11.2 3.99999 10.2 5.59999 10.2C6.89999 10.2 8.09999 11.1 8.79999 11.1C9.49999 11.1 10.9 10.1 12.5 10.2Z" fill="white"/>
</g>
</g>
<defs>
<clipPath id="clip0_313_710">
<rect width="84" height="33" fill="white"/>
</clipPath>
<clipPath id="clip1_313_710">
<rect width="84.3" height="20.7" fill="white" transform="translate(0 5)"/>
</clipPath>
</defs>
</svg>
