<svg width="403" height="71" viewBox="0 0 403 73" fill="none" xmlns="http://www.w3.org/2000/svg">
<path d="M32.5923 43.628L34.0102 43.1387L33.6615 42.128H32.5923V43.628ZM13.9143 43.628V42.128H12.8522L12.4994 43.1298L13.9143 43.628ZM10.6143 53V54.5H11.6764L12.0291 53.4982L10.6143 53ZM0.780281 53L-0.625368 52.4764L-1.37914 54.5H0.780281V53ZM17.9403 6.932V5.432H16.8983L16.5346 6.40841L17.9403 6.932ZM28.5663 6.932L29.9726 6.41018L29.6096 5.432H28.5663V6.932ZM45.6603 53V54.5H47.8168L47.0666 52.4782L45.6603 53ZM35.8263 53L34.4083 53.4893L34.7571 54.5H35.8263V53ZM30.0843 36.566V38.066H32.1965L31.5005 36.0717L30.0843 36.566ZM23.2203 16.898L24.6365 16.4037L23.2203 12.3457L21.8041 16.4037L23.2203 16.898ZM16.3563 36.566L14.9401 36.0717L14.2441 38.066H16.3563V36.566ZM32.5923 42.128H13.9143V45.128H32.5923V42.128ZM12.4994 43.1298L9.19943 52.5018L12.0291 53.4982L15.3291 44.1262L12.4994 43.1298ZM10.6143 51.5H0.780281V54.5H10.6143V51.5ZM2.18593 53.5236L19.3459 7.45559L16.5346 6.40841L-0.625368 52.4764L2.18593 53.5236ZM17.9403 8.432H28.5663V5.432H17.9403V8.432ZM27.16 7.45382L44.254 53.5218L47.0666 52.4782L29.9726 6.41018L27.16 7.45382ZM45.6603 51.5H35.8263V54.5H45.6603V51.5ZM37.2442 52.5107L34.0102 43.1387L31.1743 44.1173L34.4083 53.4893L37.2442 52.5107ZM31.5005 36.0717L24.6365 16.4037L21.8041 17.3923L28.6681 37.0603L31.5005 36.0717ZM21.8041 16.4037L14.9401 36.0717L17.7725 37.0603L24.6365 17.3923L21.8041 16.4037ZM16.3563 38.066H30.0843V35.066H16.3563V38.066ZM80.845 18.218L80.0665 19.5002V19.5002L80.845 18.218ZM86.587 24.752L85.2331 25.3977L85.2391 25.4103L85.2453 25.4228L86.587 24.752ZM86.587 44.75L85.2412 44.0875L85.237 44.0961L86.587 44.75ZM80.845 51.218L81.6235 52.5002L80.845 51.218ZM64.609 51.284L63.7539 52.5164L63.7682 52.5263L63.7827 52.5359L64.609 51.284ZM59.989 45.344L61.3935 44.8173L58.489 45.344H59.989ZM59.989 70.424V71.924H61.489V70.424H59.989ZM50.683 70.424H49.183V71.924H50.683V70.424ZM50.683 16.436V14.936H49.183V16.436H50.683ZM59.989 16.436H61.489V14.936H59.989V16.436ZM59.989 24.026H58.489L61.3935 24.5527L59.989 24.026ZM64.609 18.152L63.7827 16.9L63.7711 16.9078L64.609 18.152ZM62.629 26.996L61.544 25.9603L61.5434 25.9609L62.629 26.996ZM62.629 42.44L61.5316 43.4626L61.5436 43.4755L61.5559 43.4881L62.629 42.44ZM76.621 42.506L77.7072 43.5405L77.7133 43.5341L77.7193 43.5277L76.621 42.506ZM76.621 26.93L75.5227 27.9517L76.621 26.93ZM72.529 17.474C75.354 17.474 77.8534 18.1565 80.0665 19.5002L81.6235 16.9358C78.9086 15.2875 75.864 14.474 72.529 14.474V17.474ZM80.0665 19.5002C82.2562 20.8297 83.9818 22.7742 85.2331 25.3977L87.9409 24.1063C86.4641 21.0098 84.3617 18.5983 81.6235 16.9358L80.0665 19.5002ZM85.2453 25.4228C86.5291 27.9903 87.199 31.0733 87.199 34.718H90.199C90.199 30.7067 89.4609 27.1457 87.9286 24.0812L85.2453 25.4228ZM87.199 34.718C87.199 38.3619 86.5294 41.4709 85.2412 44.0875L87.9327 45.4125C89.4606 42.3091 90.199 38.7301 90.199 34.718H87.199ZM85.237 44.0961C83.9878 46.6752 82.2623 48.6026 80.0665 49.9358L81.6235 52.5002C84.3556 50.8414 86.4582 48.4568 87.937 45.4039L85.237 44.0961ZM80.0665 49.9358C77.8534 51.2795 75.354 51.962 72.529 51.962V54.962C75.864 54.962 78.9086 54.1485 81.6235 52.5002L80.0665 49.9358ZM72.529 51.962C69.6922 51.962 67.351 51.2965 65.4352 50.0321L63.7827 52.5359C66.267 54.1755 69.2058 54.962 72.529 54.962V51.962ZM65.4641 50.0516C63.5595 48.73 62.2107 46.9966 61.3935 44.8173L58.5845 45.8707C59.6153 48.6194 61.3465 50.846 63.7539 52.5164L65.4641 50.0516ZM58.489 45.344V70.424H61.489V45.344H58.489ZM59.989 68.924H50.683V71.924H59.989V68.924ZM52.183 70.424V16.436H49.183V70.424H52.183ZM50.683 17.936H59.989V14.936H50.683V17.936ZM58.489 16.436V24.026H61.489V16.436H58.489ZM61.3935 24.5527C62.2093 22.3771 63.5532 20.6715 65.4469 19.3962L63.7711 16.9078C61.3527 18.5365 59.6166 20.7469 58.5845 23.4993L61.3935 24.5527ZM65.4352 19.4039C67.351 18.1395 69.6922 17.474 72.529 17.474V14.474C69.2058 14.474 66.267 15.2605 63.7827 16.9001L65.4352 19.4039ZM69.625 22.592C66.423 22.592 63.6911 23.7109 61.544 25.9603L63.714 28.0317C65.2628 26.4091 67.195 25.592 69.625 25.592V22.592ZM61.5434 25.9609C59.4119 28.1963 58.423 31.1759 58.423 34.718H61.423C61.423 31.7481 62.238 29.5797 63.7146 28.0311L61.5434 25.9609ZM58.423 34.718C58.423 38.2239 59.4159 41.1921 61.5316 43.4626L63.7264 41.4174C62.2341 39.8159 61.423 37.6361 61.423 34.718H58.423ZM61.5559 43.4881C63.7059 45.6893 66.4341 46.778 69.625 46.778V43.778C67.1838 43.778 65.2481 42.9747 63.702 41.3919L61.5559 43.4881ZM69.625 46.778C72.8774 46.778 75.6239 45.7279 77.7072 43.5405L75.5348 41.4715C74.098 42.9801 72.1805 43.778 69.625 43.778V46.778ZM77.7193 43.5277C79.8032 41.2875 80.761 38.2881 80.761 34.718H77.761C77.761 37.7479 76.9588 39.9405 75.5227 41.4843L77.7193 43.5277ZM80.761 34.718C80.761 31.1479 79.8032 28.1485 77.7193 25.9083L75.5227 27.9517C76.9588 29.4955 77.761 31.6881 77.761 34.718H80.761ZM77.7193 25.9083C75.6389 23.6719 72.8886 22.592 69.625 22.592V25.592C72.1693 25.592 74.0831 26.4041 75.5227 27.9517L77.7193 25.9083ZM125.447 18.218L124.668 19.5002V19.5002L125.447 18.218ZM131.189 24.752L129.835 25.3977L129.841 25.4103L129.847 25.4228L131.189 24.752ZM131.189 44.75L129.843 44.0875L129.839 44.0961L131.189 44.75ZM125.447 51.218L126.225 52.5002L125.447 51.218ZM109.211 51.284L108.355 52.5164L108.37 52.5263L108.384 52.5359L109.211 51.284ZM104.591 45.344L105.995 44.8173L103.091 45.344H104.591ZM104.591 70.424V71.924H106.091V70.424H104.591ZM95.2845 70.424H93.7845V71.924H95.2845V70.424ZM95.2845 16.436V14.936H93.7845V16.436H95.2845ZM104.591 16.436H106.091V14.936H104.591V16.436ZM104.591 24.026H103.091L105.995 24.5527L104.591 24.026ZM109.211 18.152L108.384 16.9L108.373 16.9078L109.211 18.152ZM107.231 26.996L106.146 25.9603L106.145 25.9609L107.231 26.996ZM107.231 42.44L106.133 43.4626L106.145 43.4755L106.157 43.4881L107.231 42.44ZM121.223 42.506L122.309 43.5405L122.315 43.5341L122.321 43.5277L121.223 42.506ZM121.223 26.93L120.124 27.9517L121.223 26.93ZM117.131 17.474C119.956 17.474 122.455 18.1565 124.668 19.5002L126.225 16.9358C123.51 15.2875 120.466 14.474 117.131 14.474V17.474ZM124.668 19.5002C126.858 20.8297 128.583 22.7742 129.835 25.3977L132.542 24.1063C131.066 21.0098 128.963 18.5983 126.225 16.9358L124.668 19.5002ZM129.847 25.4228C131.131 27.9903 131.801 31.0733 131.801 34.718H134.801C134.801 30.7067 134.062 27.1457 132.53 24.0812L129.847 25.4228ZM131.801 34.718C131.801 38.3619 131.131 41.4709 129.843 44.0875L132.534 45.4125C134.062 42.3091 134.801 38.7301 134.801 34.718H131.801ZM129.839 44.0961C128.589 46.6752 126.864 48.6026 124.668 49.9358L126.225 52.5002C128.957 50.8414 131.06 48.4568 132.539 45.4039L129.839 44.0961ZM124.668 49.9358C122.455 51.2795 119.956 51.962 117.131 51.962V54.962C120.466 54.962 123.51 54.1485 126.225 52.5002L124.668 49.9358ZM117.131 51.962C114.294 51.962 111.953 51.2965 110.037 50.0321L108.384 52.5359C110.869 54.1755 113.807 54.962 117.131 54.962V51.962ZM110.066 50.0516C108.161 48.73 106.812 46.9966 105.995 44.8173L103.186 45.8707C104.217 48.6194 105.948 50.846 108.355 52.5164L110.066 50.0516ZM103.091 45.344V70.424H106.091V45.344H103.091ZM104.591 68.924H95.2845V71.924H104.591V68.924ZM96.7845 70.424V16.436H93.7845V70.424H96.7845ZM95.2845 17.936H104.591V14.936H95.2845V17.936ZM103.091 16.436V24.026H106.091V16.436H103.091ZM105.995 24.5527C106.811 22.3771 108.155 20.6715 110.048 19.3962L108.373 16.9078C105.954 18.5365 104.218 20.7469 103.186 23.4993L105.995 24.5527ZM110.037 19.4039C111.953 18.1395 114.294 17.474 117.131 17.474V14.474C113.807 14.474 110.869 15.2605 108.384 16.9001L110.037 19.4039ZM114.227 22.592C111.025 22.592 108.293 23.7109 106.146 25.9603L108.316 28.0317C109.864 26.4091 111.797 25.592 114.227 25.592V22.592ZM106.145 25.9609C104.013 28.1963 103.025 31.1759 103.025 34.718H106.025C106.025 31.7481 106.84 29.5797 108.316 28.0311L106.145 25.9609ZM103.025 34.718C103.025 38.2239 104.017 41.1921 106.133 43.4626L108.328 41.4174C106.836 39.8159 106.025 37.6361 106.025 34.718H103.025ZM106.157 43.4881C108.307 45.6893 111.036 46.778 114.227 46.778V43.778C111.785 43.778 109.85 42.9747 108.304 41.3919L106.157 43.4881ZM114.227 46.778C117.479 46.778 120.226 45.7279 122.309 43.5405L120.136 41.4715C118.7 42.9801 116.782 43.778 114.227 43.778V46.778ZM122.321 43.5277C124.405 41.2875 125.363 38.2881 125.363 34.718H122.363C122.363 37.7479 121.56 39.9405 120.124 41.4843L122.321 43.5277ZM125.363 34.718C125.363 31.1479 124.405 28.1485 122.321 25.9083L120.124 27.9517C121.56 29.4955 122.363 31.6881 122.363 34.718H125.363ZM122.321 25.9083C120.24 23.6719 117.49 22.592 114.227 22.592V25.592C116.771 25.592 118.685 26.4041 120.124 27.9517L122.321 25.9083ZM149.192 4.16H150.692V2.66H149.192V4.16ZM149.192 53V54.5H150.692V53H149.192ZM139.886 53H138.386V54.5H139.886V53ZM139.886 4.16V2.66H138.386V4.16H139.886ZM147.692 4.16V53H150.692V4.16H147.692ZM149.192 51.5H139.886V54.5H149.192V51.5ZM141.386 53V4.16H138.386V53H141.386ZM139.886 5.66H149.192V2.66H139.886V5.66ZM191.667 36.5V38H192.914L193.142 36.7731L191.667 36.5ZM164.871 36.5V35H163.309L163.372 36.5608L164.871 36.5ZM167.511 43.694L166.48 44.7837L167.511 43.694ZM178.929 44.42L178.046 43.2069L178.038 43.2134L178.029 43.22L178.929 44.42ZM181.701 40.13V38.63H180.494L180.236 39.8084L181.701 40.13ZM191.535 40.13L193.008 40.4095L193.346 38.63H191.535V40.13ZM188.433 46.994L187.251 46.0695L188.433 46.994ZM182.295 51.746L181.672 50.3812L181.663 50.3855L182.295 51.746ZM164.541 51.218L163.812 52.5292L163.82 52.5337L163.828 52.538L164.541 51.218ZM158.073 44.684L156.757 45.4037L158.073 44.684ZM158.073 24.752L159.389 25.4717L159.393 25.4631L158.073 24.752ZM164.541 18.218L165.253 19.538L164.541 18.218ZM183.483 18.218L182.752 19.5283L182.761 19.5332L183.483 18.218ZM189.753 24.422L188.438 25.1449L188.446 25.158L188.453 25.1709L189.753 24.422ZM182.625 32.408V33.908H184.06L184.123 32.4741L182.625 32.408ZM180.249 25.61L179.232 26.7133L179.24 26.7199L179.247 26.7264L180.249 25.61ZM164.871 32.408L163.373 32.3199L163.28 33.908H164.871V32.408ZM190.497 33.332C190.497 34.1414 190.4 35.1032 190.192 36.2269L193.142 36.7731C193.374 35.5208 193.497 34.3706 193.497 33.332H190.497ZM191.667 35H164.871V38H191.667V35ZM163.372 36.5608C163.513 40.0308 164.461 42.8738 166.48 44.7837L168.542 42.6043C167.305 41.4342 166.493 39.4812 166.369 36.4392L163.372 36.5608ZM166.48 44.7837C168.41 46.6094 170.813 47.504 173.583 47.504V44.504C171.513 44.504 169.868 43.8586 168.542 42.6043L166.48 44.7837ZM173.583 47.504C175.989 47.504 178.107 46.9112 179.829 45.62L178.029 43.22C176.934 44.0408 175.489 44.504 173.583 44.504V47.504ZM179.811 45.6331C181.569 44.3545 182.694 42.6028 183.166 40.4516L180.236 39.8084C179.916 41.2652 179.192 42.3735 178.046 43.2069L179.811 45.6331ZM181.701 41.63H191.535V38.63H181.701V41.63ZM190.061 39.8505C189.621 42.1699 188.686 44.2362 187.251 46.0695L189.614 47.9185C191.347 45.7038 192.48 43.1941 193.008 40.4095L190.061 39.8505ZM187.251 46.0695C185.826 47.8905 183.978 49.3297 181.672 50.3813L182.917 53.1107C185.628 51.8743 187.871 50.1455 189.614 47.9185L187.251 46.0695ZM181.663 50.3855C179.419 51.4273 176.888 51.962 174.045 51.962V54.962C177.273 54.962 180.242 54.3527 182.926 53.1065L181.663 50.3855ZM174.045 51.962C170.696 51.962 167.779 51.2611 165.253 49.898L163.828 52.538C166.847 54.1669 170.265 54.962 174.045 54.962V51.962ZM165.269 49.9068C162.748 48.5062 160.794 46.5347 159.389 43.9643L156.757 45.4037C158.431 48.4653 160.789 50.8498 163.812 52.5292L165.269 49.9068ZM159.389 43.9643C157.991 41.4078 157.263 38.3428 157.263 34.718H154.263C154.263 38.7491 155.075 42.3282 156.757 45.4037L159.389 43.9643ZM157.263 34.718C157.263 31.0931 157.991 28.0281 159.389 25.4717L156.757 24.0323C155.075 27.1078 154.263 30.6868 154.263 34.718H157.263ZM159.393 25.4631C160.799 22.8526 162.747 20.8903 165.253 19.538L163.828 16.898C160.79 18.5377 158.426 20.9313 156.752 24.0408L159.393 25.4631ZM165.253 19.538C167.779 18.1749 170.696 17.474 174.045 17.474V14.474C170.265 14.474 166.847 15.2691 163.828 16.898L165.253 19.538ZM174.045 17.474C177.442 17.474 180.328 18.1768 182.752 19.5282L184.213 16.9078C181.27 15.2672 177.864 14.474 174.045 14.474V17.474ZM182.761 19.5332C185.248 20.8969 187.128 22.7631 188.438 25.1449L191.067 23.6991C189.473 20.8009 187.173 18.5311 184.204 16.9028L182.761 19.5332ZM188.453 25.1709C189.803 27.5136 190.497 30.2197 190.497 33.332H193.497C193.497 29.7563 192.694 26.5224 191.052 23.673L188.453 25.1709ZM184.123 32.4741C184.269 29.1779 183.395 26.4184 181.251 24.4936L179.247 26.7264C180.534 27.8816 181.245 29.6541 181.126 32.3419L184.123 32.4741ZM181.265 24.5067C179.292 22.6892 176.851 21.8 174.045 21.8V24.8C176.167 24.8 177.862 25.4508 179.232 26.7133L181.265 24.5067ZM174.045 21.8C171.202 21.8 168.723 22.6841 166.707 24.4936L168.711 26.7264C170.126 25.4559 171.871 24.8 174.045 24.8V21.8ZM166.707 24.4936C164.616 26.37 163.565 29.0564 163.373 32.3199L166.368 32.4961C166.528 29.7756 167.369 27.93 168.711 26.7264L166.707 24.4936ZM164.871 33.908H182.625V30.908H164.871V33.908ZM263.202 6.932H264.702V5.432H263.202V6.932ZM263.202 53V54.5H264.702V53H263.202ZM253.962 53H252.462V54.5H253.962V53ZM253.962 20.858H255.462L252.554 20.3405L253.962 20.858ZM242.148 53V54.5H243.195L243.556 53.5175L242.148 53ZM234.096 53L232.689 53.5194L233.051 54.5H234.096V53ZM222.282 20.99L223.689 20.4706L220.782 20.99H222.282ZM222.282 53V54.5H223.782V53H222.282ZM212.976 53H211.476V54.5H212.976V53ZM212.976 6.932V5.432H211.476V6.932H212.976ZM224.262 6.932L225.653 6.37035L225.274 5.432H224.262V6.932ZM238.254 41.582L236.863 42.1437L238.267 45.6209L239.648 42.1345L238.254 41.582ZM251.982 6.932V5.432H250.963L250.587 6.3795L251.982 6.932ZM261.702 6.932V53H264.702V6.932H261.702ZM263.202 51.5H253.962V54.5H263.202V51.5ZM255.462 53V20.858H252.462V53H255.462ZM252.554 20.3405L240.74 52.4825L243.556 53.5175L255.37 21.3755L252.554 20.3405ZM242.148 51.5H234.096V54.5H242.148V51.5ZM235.503 52.4806L223.689 20.4706L220.875 21.5094L232.689 53.5194L235.503 52.4806ZM220.782 20.99V53H223.782V20.99H220.782ZM222.282 51.5H212.976V54.5H222.282V51.5ZM214.476 53V6.932H211.476V53H214.476ZM212.976 8.432H224.262V5.432H212.976V8.432ZM222.871 7.49365L236.863 42.1437L239.645 41.0203L225.653 6.37035L222.871 7.49365ZM239.648 42.1345L253.376 7.4845L250.587 6.3795L236.859 41.0295L239.648 42.1345ZM251.982 8.432H263.202V5.432H251.982V8.432ZM306.608 16.436H308.108V14.936H306.608V16.436ZM306.608 53V54.5H308.108V53H306.608ZM297.302 53H295.802V54.5H297.302V53ZM297.302 45.608H298.802L295.906 45.0595L297.302 45.608ZM292.484 51.416L293.275 52.6909L293.282 52.6866L292.484 51.416ZM274.73 49.304L275.843 48.2976L274.73 49.304ZM270.968 16.436V14.936H269.468V16.436H270.968ZM280.208 16.436H281.708V14.936H280.208V16.436ZM282.452 43.43L281.348 44.4449L281.355 44.4525L281.362 44.4599L282.452 43.43ZM294.926 43.232L296.029 44.2494L294.926 43.232ZM297.302 16.436V14.936H295.802V16.436H297.302ZM305.108 16.436V53H308.108V16.436H305.108ZM306.608 51.5H297.302V54.5H306.608V51.5ZM298.802 53V45.608H295.802V53H298.802ZM295.906 45.0595C295.056 47.2248 293.66 48.9078 291.687 50.1454L293.282 52.6866C295.797 51.1082 297.613 48.9193 298.698 46.1565L295.906 45.0595ZM291.694 50.1411C289.759 51.3406 287.488 51.962 284.828 51.962V54.962C287.977 54.962 290.809 54.2194 293.275 52.6909L291.694 50.1411ZM284.828 51.962C280.967 51.962 278.028 50.7127 275.843 48.2976L273.618 50.3104C276.449 53.4393 280.241 54.962 284.828 54.962V51.962ZM275.843 48.2976C273.657 45.8819 272.468 42.4131 272.468 37.688H269.468C269.468 42.9069 270.788 47.1821 273.618 50.3104L275.843 48.2976ZM272.468 37.688V16.436H269.468V37.688H272.468ZM270.968 17.936H280.208V14.936H270.968V17.936ZM278.708 16.436V36.632H281.708V16.436H278.708ZM278.708 36.632C278.708 39.7911 279.526 42.4624 281.348 44.4449L283.557 42.4151C282.387 41.1416 281.708 39.2809 281.708 36.632H278.708ZM281.362 44.4599C283.19 46.3957 285.637 47.306 288.524 47.306V44.306C286.308 44.306 284.707 43.6323 283.543 42.4001L281.362 44.4599ZM288.524 47.306C291.558 47.306 294.117 46.3201 296.029 44.2494L293.824 42.2146C292.568 43.5759 290.858 44.306 288.524 44.306V47.306ZM296.029 44.2494C297.951 42.1667 298.802 39.2862 298.802 35.84H295.802C295.802 38.8178 295.07 40.8653 293.824 42.2146L296.029 44.2494ZM298.802 35.84V16.436H295.802V35.84H298.802ZM297.302 17.936H306.608V14.936H297.302V17.936ZM338.368 19.34L339.33 18.1892L338.368 19.34ZM343.384 28.316V29.816H345.172L344.861 28.0553L343.384 28.316ZM334.672 28.316L333.201 28.6102L333.442 29.816H334.672V28.316ZM323.518 29.108L322.53 30.2369L323.518 29.108ZM326.158 30.56L325.683 31.983L326.158 30.56ZM330.712 31.814L330.356 33.2711L330.371 33.2749L330.386 33.2783L330.712 31.814ZM337.444 33.794L336.874 35.1818L336.896 35.1904L336.917 35.1985L337.444 33.794ZM341.932 37.028L340.774 37.9816L340.789 38.0001L340.805 38.0182L341.932 37.028ZM340.15 50.558L339.223 49.3785L339.213 49.3867L340.15 50.558ZM318.898 50.294L317.995 51.4918L318.001 51.4962L318.007 51.5006L318.898 50.294ZM313.684 41.12V39.62H311.932L312.202 41.3506L313.684 41.12ZM322.594 41.12L324.083 40.9384L323.922 39.62H322.594V41.12ZM324.97 45.41L324.051 46.5961L324.064 46.6055L324.076 46.6146L324.97 45.41ZM333.946 45.806L334.946 46.9239L334.962 46.9096L334.977 46.8949L333.946 45.806ZM334.078 40.196L333.052 41.2903L333.068 41.3058L333.085 41.3208L334.078 40.196ZM331.372 38.678L330.897 40.101L330.906 40.1039L330.915 40.1066L331.372 38.678ZM326.818 37.424L327.174 35.9669L327.161 35.9638L327.148 35.9608L326.818 37.424ZM320.152 35.576L319.601 36.9712L319.623 36.9799L319.645 36.9878L320.152 35.576ZM315.796 32.474L314.649 33.4413L314.658 33.4516L314.667 33.4618L315.796 32.474ZM317.644 18.944L318.594 20.1049L317.644 18.944ZM327.676 17.474C331.865 17.474 335.058 18.5278 337.406 20.4908L339.33 18.1892C336.31 15.6642 332.374 14.474 327.676 14.474V17.474ZM337.406 20.4908C339.794 22.488 341.302 25.1528 341.907 28.5767L344.861 28.0553C344.145 23.9992 342.309 20.68 339.33 18.1892L337.406 20.4908ZM343.384 26.816H334.672V29.816H343.384V26.816ZM336.143 28.0218C335.732 25.9699 334.786 24.2508 333.272 22.9531L331.32 25.2309C332.27 26.0452 332.907 27.1421 333.201 28.6102L336.143 28.0218ZM333.272 22.9531C331.712 21.6157 329.734 21.008 327.478 21.008V24.008C329.182 24.008 330.416 24.4563 331.32 25.2309L333.272 22.9531ZM327.478 21.008C325.67 21.008 324.047 21.4354 322.81 22.4871L324.753 24.7729C325.276 24.3286 326.118 24.008 327.478 24.008V21.008ZM322.81 22.4871C321.557 23.5521 320.962 25.0019 320.962 26.666H323.962C323.962 25.7781 324.246 25.2039 324.753 24.7729L322.81 22.4871ZM320.962 26.666C320.962 28.0706 321.472 29.3107 322.53 30.2369L324.505 27.9791C324.156 27.6733 323.962 27.2854 323.962 26.666H320.962ZM322.53 30.2369C323.409 31.0065 324.474 31.5798 325.683 31.983L326.632 29.137C325.73 28.8362 325.034 28.4415 324.505 27.9791L322.53 30.2369ZM325.683 31.983C326.798 32.3545 328.363 32.7839 330.356 33.2711L331.068 30.3569C329.101 29.8761 327.63 29.4695 326.632 29.137L325.683 31.983ZM330.386 33.2783C333.114 33.8844 335.267 34.5224 336.874 35.1818L338.013 32.4062C336.188 31.6576 333.854 30.9756 331.037 30.3497L330.386 33.2783ZM336.917 35.1985C338.423 35.7632 339.704 36.682 340.774 37.9816L343.09 36.0744C341.696 34.382 339.985 33.1448 337.97 32.3895L336.917 35.1985ZM340.805 38.0182C341.776 39.1232 342.346 40.7135 342.346 42.968H345.346C345.346 40.2065 344.639 37.8368 343.058 36.0378L340.805 38.0182ZM342.346 42.968C342.346 45.6301 341.326 47.7259 339.223 49.3785L341.076 51.7375C343.901 49.5181 345.346 46.5539 345.346 42.968H342.346ZM339.213 49.3867C337.136 51.0482 334.225 51.962 330.316 51.962V54.962C334.678 54.962 338.324 53.9398 341.087 51.7293L339.213 49.3867ZM330.316 51.962C325.778 51.962 322.316 50.9538 319.789 49.0873L318.007 51.5006C321.199 53.8582 325.35 54.962 330.316 54.962V51.962ZM319.801 49.0962C317.29 47.2038 315.73 44.5139 315.166 40.8894L312.202 41.3506C312.87 45.6461 314.785 49.0722 317.995 51.4918L319.801 49.0962ZM313.684 42.62H322.594V39.62H313.684V42.62ZM321.105 41.3016C321.37 43.4795 322.352 45.2806 324.051 46.5961L325.888 44.2239C324.859 43.4274 324.257 42.3685 324.083 40.9384L321.105 41.3016ZM324.076 46.6146C325.766 47.8683 327.889 48.428 330.316 48.428V45.428C328.342 45.428 326.902 44.9757 325.863 44.2054L324.076 46.6146ZM330.316 48.428C332.117 48.428 333.74 48.003 334.946 46.9239L332.946 44.6881C332.48 45.105 331.682 45.428 330.316 45.428V48.428ZM334.977 46.8949C336.135 45.7983 336.7 44.3818 336.7 42.77H333.7C333.7 43.6222 333.429 44.2297 332.914 44.7171L334.977 46.8949ZM336.7 42.77C336.7 41.3122 336.162 40.0344 335.07 39.0712L333.085 41.3208C333.49 41.6776 333.7 42.1158 333.7 42.77H336.7ZM335.104 39.1017C334.208 38.2624 333.1 37.656 331.829 37.2494L330.915 40.1066C331.844 40.404 332.539 40.8096 333.052 41.2903L335.104 39.1017ZM331.846 37.255C330.732 36.8835 329.167 36.4541 327.174 35.9669L326.462 38.8811C328.429 39.3619 329.9 39.7685 330.897 40.101L331.846 37.255ZM327.148 35.9608C324.452 35.352 322.295 34.7517 320.659 34.1642L319.645 36.9878C321.44 37.6323 323.727 38.264 326.487 38.8872L327.148 35.9608ZM320.702 34.1808C319.262 33.6122 318.006 32.7219 316.925 31.4862L314.667 33.4618C316.05 35.0421 317.697 36.2198 319.601 36.9712L320.702 34.1808ZM316.942 31.5067C316.05 30.4489 315.514 28.8963 315.514 26.666H312.514C312.514 29.3637 313.166 31.6831 314.649 33.4413L316.942 31.5067ZM315.514 26.666C315.514 23.941 316.527 21.7957 318.594 20.1049L316.694 17.7831C313.92 20.0523 312.514 23.055 312.514 26.666H315.514ZM318.594 20.1049C320.662 18.4125 323.628 17.474 327.676 17.474V14.474C323.187 14.474 319.465 15.5155 316.694 17.7831L318.594 20.1049ZM351.305 2.312L352.292 3.44087L352.306 3.42945L352.318 3.41773L351.305 2.312ZM359.621 2.312L358.607 3.41773L358.62 3.42945L358.633 3.44087L359.621 2.312ZM359.621 9.572L360.608 10.7009L360.622 10.6894L360.634 10.6777L359.621 9.572ZM351.305 9.572L350.291 10.6777L350.304 10.6894L350.317 10.7009L351.305 9.572ZM360.083 16.436H361.583V14.936H360.083V16.436ZM360.083 53V54.5H361.583V53H360.083ZM350.777 53H349.277V54.5H350.777V53ZM350.777 16.436V14.936H349.277V16.436H350.777ZM351.221 5.942C351.221 4.84613 351.586 4.05936 352.292 3.44087L350.317 1.18313C348.912 2.41264 348.221 4.04587 348.221 5.942H351.221ZM352.318 3.41773C353.045 2.75179 354.044 2.36 355.463 2.36V-0.640001C353.45 -0.640001 351.677 -0.0637913 350.291 1.20627L352.318 3.41773ZM355.463 2.36C356.882 2.36 357.881 2.75179 358.607 3.41773L360.634 1.20627C359.249 -0.0637913 357.476 -0.640001 355.463 -0.640001V2.36ZM358.633 3.44087C359.34 4.05936 359.705 4.84613 359.705 5.942H362.705C362.705 4.04587 362.014 2.41264 360.608 1.18313L358.633 3.44087ZM359.705 5.942C359.705 6.98005 359.348 7.78675 358.607 8.46626L360.634 10.6777C362.005 9.42125 362.705 7.80795 362.705 5.942H359.705ZM358.633 8.44313C357.908 9.07755 356.9 9.458 355.463 9.458V12.458C357.458 12.458 359.222 11.9144 360.608 10.7009L358.633 8.44313ZM355.463 9.458C354.026 9.458 353.018 9.07755 352.292 8.44313L350.317 10.7009C351.704 11.9144 353.468 12.458 355.463 12.458V9.458ZM352.318 8.46626C351.577 7.78675 351.221 6.98005 351.221 5.942H348.221C348.221 7.80795 348.92 9.42125 350.291 10.6777L352.318 8.46626ZM358.583 16.436V53H361.583V16.436H358.583ZM360.083 51.5H350.777V54.5H360.083V51.5ZM352.277 53V16.436H349.277V53H352.277ZM350.777 17.936H360.083V14.936H350.777V17.936ZM396.683 19.802L395.734 20.9637L395.742 20.9701L396.683 19.802ZM402.623 30.23V31.73H404.417L404.1 29.9643L402.623 30.23ZM392.789 30.23L391.32 30.5306L391.565 31.73H392.789V30.23ZM390.083 25.676L389.137 26.8402L389.149 26.8492L389.16 26.858L390.083 25.676ZM378.533 26.732L377.421 25.7256L377.42 25.7271L378.533 26.732ZM378.533 42.77L377.408 43.7615L377.42 43.7758L377.433 43.7896L378.533 42.77ZM390.083 43.826L391.007 45.008L391.018 44.9992L391.029 44.9902L390.083 43.826ZM392.789 39.206V37.706H391.565L391.32 38.9054L392.789 39.206ZM402.623 39.206L404.1 39.4717L404.417 37.706H402.623V39.206ZM396.683 49.634L395.742 48.4658L395.734 48.4723L396.683 49.634ZM375.431 51.218L374.703 52.5292L374.711 52.5337L374.719 52.538L375.431 51.218ZM368.963 44.684L367.647 45.4037L368.963 44.684ZM368.963 24.752L370.279 25.4717L370.284 25.4631L368.963 24.752ZM375.431 18.218L376.144 19.538L375.431 18.218ZM384.935 17.474C389.358 17.474 392.922 18.666 395.734 20.9637L397.632 18.6403C394.197 15.834 389.929 14.474 384.935 14.474V17.474ZM395.742 20.9701C398.601 23.2726 400.412 26.4133 401.147 30.4957L404.1 29.9643C403.25 25.2467 401.102 21.4354 397.624 18.6339L395.742 20.9701ZM402.623 28.73H392.789V31.73H402.623V28.73ZM394.259 29.9294C393.8 27.6837 392.726 25.8372 391.007 24.494L389.16 26.858C390.257 27.7148 390.987 28.9043 391.32 30.5306L394.259 29.9294ZM391.029 24.5118C389.306 23.1115 387.17 22.46 384.737 22.46V25.46C386.616 25.46 388.045 25.9525 389.137 26.8402L391.029 24.5118ZM384.737 22.46C381.844 22.46 379.374 23.5674 377.421 25.7256L379.646 27.7384C381.037 26.2006 382.703 25.46 384.737 25.46V22.46ZM377.42 25.7271C375.451 27.9082 374.591 30.9911 374.591 34.718H377.591C377.591 31.4049 378.359 29.1638 379.647 27.7369L377.42 25.7271ZM374.591 34.718C374.591 38.4482 375.453 41.5422 377.408 43.7615L379.659 41.7785C378.358 40.3018 377.591 38.0278 377.591 34.718H374.591ZM377.433 43.7896C379.39 45.9005 381.857 46.976 384.737 46.976V43.976C382.69 43.976 381.021 43.2475 379.633 41.7504L377.433 43.7896ZM384.737 46.976C387.157 46.976 389.284 46.3541 391.007 45.008L389.16 42.644C388.067 43.4979 386.63 43.976 384.737 43.976V46.976ZM391.029 44.9902C392.731 43.6075 393.8 41.7499 394.259 39.5066L391.32 38.9054C390.987 40.5341 390.252 41.7565 389.137 42.6618L391.029 44.9902ZM392.789 40.706H402.623V37.706H392.789V40.706ZM401.147 38.9403C400.412 43.0227 398.601 46.1634 395.742 48.4659L397.624 50.8021C401.102 48.0006 403.25 44.1893 404.1 39.4717L401.147 38.9403ZM395.734 48.4723C392.922 50.77 389.358 51.962 384.935 51.962V54.962C389.929 54.962 394.197 53.602 397.632 50.7957L395.734 48.4723ZM384.935 51.962C381.587 51.962 378.669 51.2611 376.144 49.898L374.719 52.538C377.737 54.1669 381.156 54.962 384.935 54.962V51.962ZM376.16 49.9068C373.639 48.5062 371.685 46.5347 370.279 43.9643L367.647 45.4037C369.322 48.4653 371.68 50.8498 374.703 52.5292L376.16 49.9068ZM370.279 43.9643C368.881 41.4078 368.153 38.3428 368.153 34.718H365.153C365.153 38.7491 365.965 42.3282 367.647 45.4037L370.279 43.9643ZM368.153 34.718C368.153 31.0931 368.881 28.0281 370.279 25.4717L367.647 24.0323C365.965 27.1078 365.153 30.6868 365.153 34.718H368.153ZM370.284 25.4631C371.69 22.8526 373.638 20.8903 376.144 19.538L374.719 16.898C371.681 18.5377 369.317 20.9313 367.643 24.0408L370.284 25.4631ZM376.144 19.538C378.669 18.1749 381.587 17.474 384.935 17.474V14.474C381.156 14.474 377.737 15.2691 374.719 16.898L376.144 19.538Z" fill="url(#paint0_linear_338_9712)"/>
<defs>
<linearGradient id="paint0_linear_338_9712" x1="140.579" y1="29.5" x2="247.106" y2="146.342" gradientUnits="userSpaceOnUse">
<stop stop-color="#2465FF" stop-opacity="0.9"/>
<stop offset="0.62938" stop-color="#BB4CFF" stop-opacity="0.453125"/>
<stop offset="1" stop-color="#D68AD3" stop-opacity="0.587575"/>
</linearGradient>
</defs>
</svg>
