<svg width="18" height="24" viewBox="0 0 18 24" fill="none" xmlns="http://www.w3.org/2000/svg">
<path d="M16.4229 3.56572L9.56571 0.137149C9.37015 0.0413256 9.15346 -0.0032539 8.93595 0.00759258C8.71844 0.0184391 8.50726 0.084356 8.3222 0.19916C8.13714 0.313965 7.98428 0.473894 7.87795 0.663947C7.77161 0.854 7.7153 1.06795 7.71429 1.28572V14.4343C7.71364 14.505 7.6962 14.5744 7.66342 14.637C7.63063 14.6996 7.58343 14.7535 7.52571 14.7943C7.46611 14.8198 7.40196 14.8329 7.33714 14.8329C7.27232 14.8329 7.20818 14.8198 7.14857 14.7943C6.6388 14.6333 6.10585 14.558 5.57143 14.5714C4.63903 14.5714 3.72757 14.8479 2.95231 15.3659C2.17705 15.8839 1.57281 16.6202 1.216 17.4816C0.859183 18.3431 0.765825 19.291 0.947727 20.2054C1.12963 21.1199 1.57862 21.9599 2.23793 22.6192C2.89723 23.2785 3.73723 23.7275 4.65172 23.9094C5.5662 24.0913 6.51408 23.998 7.37551 23.6412C8.23693 23.2843 8.9732 22.6801 9.49121 21.9048C10.0092 21.1296 10.2857 20.2181 10.2857 19.2857V7.49144C10.2838 7.41603 10.3018 7.34145 10.3379 7.27523C10.374 7.20901 10.427 7.15349 10.4914 7.11429C10.556 7.08493 10.6262 7.06973 10.6971 7.06973C10.7681 7.06973 10.8383 7.08493 10.9029 7.11429L15.2914 9.30858C15.4796 9.41526 15.6922 9.47133 15.9086 9.47133C16.1249 9.47133 16.3375 9.41526 16.5257 9.30858C16.7152 9.19521 16.8717 9.03437 16.98 8.84196C17.0882 8.64954 17.1443 8.4322 17.1429 8.21144V4.78286C17.1549 4.53182 17.0932 4.28273 16.9652 4.06641C16.8373 3.85009 16.6487 3.67602 16.4229 3.56572Z" fill="url(#paint0_linear_301_1580)"/>
<defs>
<linearGradient id="paint0_linear_301_1580" x1="1.99996" y1="6.50001" x2="25.9414" y2="6.43647" gradientUnits="userSpaceOnUse">
<stop stop-color="#2465FF" stop-opacity="0.9"/>
<stop offset="0.62938" stop-color="#BB4CFF" stop-opacity="0.453125"/>
<stop offset="1" stop-color="#D68AD3" stop-opacity="0.587575"/>
</linearGradient>
</defs>
</svg>
