<svg width="1050" height="330" viewBox="0 0 105 33" fill="none" xmlns="http://www.w3.org/2000/svg">
<g clip-path="url(#clip0_313_711)">
<path d="M24.5613 20.2786C24.5613 24.4732 27.1528 26.9837 31.0033 26.9837C32.9233 26.9837 34.539 26.4502 35.4413 25.0485V26.9837H38.9561V7.00458H35.3049V15.4983C34.4761 14.0966 32.9443 13.469 31.0243 13.469C27.2682 13.4586 24.5613 16.0213 24.5613 20.2786ZM35.4203 20.2786C35.4203 22.674 33.7836 24.1699 31.8216 24.1699C29.7862 24.1699 28.2229 22.674 28.2229 20.2786C28.2229 17.8414 29.7967 16.3142 31.8216 16.3142C33.7836 16.3142 35.4203 17.8623 35.4203 20.2786Z" fill="white"/>
<path d="M50.3187 21.8268C49.899 23.3749 48.8393 24.1489 47.1711 24.1489C45.2301 24.1489 43.6354 22.9774 43.5934 20.9063H52.7947C52.9101 20.3937 52.9626 19.8498 52.9626 19.2535C52.9626 15.5401 50.4236 13.4481 46.678 13.4481C42.6806 13.4481 39.9318 16.2828 39.9318 20.1322C39.9318 24.4209 42.9639 26.9941 47.1606 26.9941C50.3292 26.9941 52.48 25.6761 53.4242 23.0506L50.3187 21.8268ZM43.5934 18.4795C43.9397 16.9837 45.1882 16.105 46.6885 16.105C48.3252 16.105 49.4374 16.9837 49.4374 18.3644L49.4164 18.4795H43.5934Z" fill="white"/>
<path d="M63.8636 21.8268C63.4439 23.3749 62.3843 24.1489 60.7161 24.1489C58.7751 24.1489 57.1803 22.9774 57.1384 20.9063H66.3397C66.4551 20.3937 66.5075 19.8498 66.5075 19.2535C66.5075 15.5401 63.9685 13.4481 60.2229 13.4481C56.2256 13.4481 53.4767 16.2828 53.4767 20.1322C53.4767 24.4209 56.5088 26.9941 60.7056 26.9941C63.8741 26.9941 66.0249 25.6761 66.9692 23.0506L63.8636 21.8268ZM57.1384 18.4795C57.4846 16.9837 58.7331 16.105 60.2334 16.105C61.8702 16.105 62.9823 16.9837 62.9823 18.3644L62.9613 18.4795H57.1384Z" fill="white"/>
<path d="M79.3915 27.0046V23.7096H71.7219L79.1816 16.4711V13.4586H67.3783V16.5966H74.5862L67.1475 23.8665V27.0046H79.3915Z" fill="white"/>
<path d="M90.0616 21.8268C89.642 23.3749 88.5823 24.1489 86.9141 24.1489C84.9731 24.1489 83.3783 22.9774 83.3364 20.9063H92.5377C92.6531 20.3937 92.7056 19.8498 92.7056 19.2535C92.7056 15.5401 90.1666 13.4481 86.421 13.4481C82.4236 13.4481 79.6747 16.2828 79.6747 20.1322C79.6747 24.4209 82.7069 26.9941 86.9036 26.9941C90.0721 26.9941 92.2229 25.6761 93.1672 23.0506L90.0616 21.8268ZM83.3364 18.4795C83.6826 16.9837 84.9311 16.105 86.4315 16.105C88.0682 16.105 89.1803 16.9837 89.1803 18.3644L89.1593 18.4795H83.3364Z" fill="white"/>
<path d="M20.8157 13.4586H16.3148V16.0841H20.8157V13.4586Z" fill="white"/>
<path d="M20.8157 17.0987H16.3148V19.7242H20.8157V17.0987Z" fill="white"/>
<path d="M20.8157 20.7389H16.3148V23.3644H20.8157V20.7389Z" fill="white"/>
<path d="M4.50098 24.3791H0V27.0046H4.50098V24.3791Z" fill="white"/>
<path d="M9.93573 24.3791H5.43475V27.0046H9.93573V24.3791Z" fill="white"/>
<path d="M15.381 24.3791H10.88V27.0046H15.381V24.3791Z" fill="white"/>
<path d="M20.8157 24.3791H16.3148V27.0046H20.8157V24.3791Z" fill="white"/>
<path d="M15.381 20.7389H10.88V23.3644H15.381V20.7389Z" fill="white"/>
<path d="M9.93573 20.7389H5.43475V23.3644H9.93573V20.7389Z" fill="white"/>
<path d="M9.93573 17.0987H5.43475V19.7242H9.93573V17.0987Z" fill="white"/>
<path d="M101.361 18.1343C101.361 18.2703 101.361 18.5213 101.361 18.5213H104.918C104.918 18.5213 104.918 17.8519 104.918 17.4858C104.918 15.1636 103.46 13.4795 101.015 13.4795C99.4413 13.4795 98.3291 14.2431 97.7521 15.5088V13.4795H94.08V27.0046H97.7521V18.2912C97.7521 16.9104 98.497 16.1468 99.6406 16.1468C100.69 16.1573 101.361 17.1406 101.361 18.1343Z" fill="white"/>
</g>
<defs>
<clipPath id="clip0_313_711">
<rect width="104.918" height="20" fill="white" transform="translate(0 7)"/>
</clipPath>
</defs>
</svg>
