<svg width="226" height="48" viewBox="0 -1 226 51" fill="none" xmlns="http://www.w3.org/2000/svg">
<path d="M39.015 35.846L37.7007 35.1231L39.015 35.846ZM30.567 44.096L31.2696 45.4213L31.2753 45.4182L30.567 44.096ZM0.932984 47H-0.567015V48.5H0.932984V47ZM0.932984 0.403997V-1.096H-0.567015V0.403997H0.932984ZM30.567 3.308L29.8644 4.63329L29.8739 4.63832L29.8835 4.64322L30.567 3.308ZM39.015 11.426L37.7006 12.1489L37.7045 12.1559L39.015 11.426ZM28.323 34.724L27.2885 33.6378L27.2799 33.6461L28.323 34.724ZM28.323 12.482L27.2798 13.5599L27.2885 13.5682L28.323 12.482ZM10.239 8.522V7.022H8.73899V8.522H10.239ZM10.239 38.684H8.73899V40.184H10.239V38.684ZM40.419 23.636C40.419 28.0415 39.4976 31.8559 37.7007 35.1231L40.3293 36.5689C42.4043 32.7961 43.419 28.4705 43.419 23.636H40.419ZM37.7007 35.1231C35.9108 38.3775 33.3107 40.9244 29.8587 42.7738L31.2753 45.4182C35.2152 43.3075 38.2472 40.3545 40.3293 36.5689L37.7007 35.1231ZM29.8644 42.7707C26.4722 44.569 22.3683 45.5 17.499 45.5V48.5C22.7497 48.5 27.3578 47.495 31.2696 45.4213L29.8644 42.7707ZM17.499 45.5H0.932984V48.5H17.499V45.5ZM2.43298 47V0.403997H-0.567015V47H2.43298ZM0.932984 1.904H17.499V-1.096H0.932984V1.904ZM17.499 1.904C22.3683 1.904 26.4722 2.83498 29.8644 4.63329L31.2696 1.9827C27.3578 -0.0909863 22.7497 -1.096 17.499 -1.096V1.904ZM29.8835 4.64322C33.3223 6.40355 35.9141 8.90061 37.7007 12.1489L40.3293 10.7031C38.2439 6.91139 35.2037 3.99644 31.2505 1.97277L29.8835 4.64322ZM37.7045 12.1559C39.4964 15.373 40.419 19.1832 40.419 23.636H43.419C43.419 18.7608 42.4056 14.431 40.3254 10.6961L37.7045 12.1559ZM16.707 40.184C21.9833 40.184 26.2777 38.7907 29.3661 35.8019L27.2799 33.6461C24.9123 35.9373 21.4627 37.184 16.707 37.184V40.184ZM29.3575 35.8102C32.4955 32.8216 33.981 28.6928 33.981 23.636H30.981C30.981 28.0832 29.6945 31.3464 27.2885 33.6378L29.3575 35.8102ZM33.981 23.636C33.981 18.5399 32.4982 14.387 29.3575 11.3958L27.2885 13.5682C29.6918 15.857 30.981 19.1401 30.981 23.636H33.981ZM29.3661 11.4041C26.2777 8.41526 21.9833 7.022 16.707 7.022V10.022C21.4627 10.022 24.9123 11.2687 27.2799 13.5599L29.3661 11.4041ZM16.707 7.022H10.239V10.022H16.707V7.022ZM8.73899 8.522V38.684H11.739V8.522H8.73899ZM10.239 40.184H16.707V37.184H10.239V40.184ZM82.9421 30.5V32H84.1898L84.417 30.7731L82.9421 30.5ZM56.1461 30.5V29H54.5841L54.6473 30.5608L56.1461 30.5ZM58.7861 37.694L57.7553 38.7837L58.7861 37.694ZM70.2041 38.42L69.3219 37.2069L69.3129 37.2134L69.3041 37.22L70.2041 38.42ZM72.9761 34.13V32.63H71.7697L71.511 33.8084L72.9761 34.13ZM82.8101 34.13L84.2838 34.4095L84.6213 32.63H82.8101V34.13ZM79.7081 40.994L78.5269 40.0695L79.7081 40.994ZM73.5701 45.746L72.9476 44.3812L72.9384 44.3855L73.5701 45.746ZM55.8161 45.218L55.0876 46.5292L55.0957 46.5337L55.1037 46.538L55.8161 45.218ZM49.3481 38.684L48.0321 39.4037L49.3481 38.684ZM49.3481 18.752L50.6642 19.4717L50.6688 19.4631L49.3481 18.752ZM55.8161 12.218L56.5285 13.538H56.5285L55.8161 12.218ZM74.7581 12.218L74.0278 13.5283L74.0369 13.5332L74.7581 12.218ZM81.0281 18.422L79.7138 19.1449L79.721 19.158L79.7285 19.1709L81.0281 18.422ZM73.9001 26.408V27.908H75.3354L75.3987 26.4741L73.9001 26.408ZM71.5241 19.61L70.5079 20.7133L70.515 20.7199L70.5222 20.7264L71.5241 19.61ZM56.1461 26.408L54.6487 26.3199L54.5553 27.908H56.1461V26.408ZM81.7721 27.332C81.7721 28.1414 81.6753 29.1032 81.4672 30.2269L84.417 30.7731C84.6489 29.5208 84.7721 28.3706 84.7721 27.332H81.7721ZM82.9421 29H56.1461V32H82.9421V29ZM54.6473 30.5608C54.788 34.0308 55.7363 36.8738 57.7553 38.7837L59.8169 36.6043C58.58 35.4342 57.7682 33.4812 57.6449 30.4392L54.6473 30.5608ZM57.7553 38.7837C59.6853 40.6094 62.0882 41.504 64.8581 41.504V38.504C62.788 38.504 61.1429 37.8586 59.8169 36.6043L57.7553 38.7837ZM64.8581 41.504C67.2641 41.504 69.3825 40.9112 71.1041 39.62L69.3041 37.22C68.2097 38.0408 66.7642 38.504 64.8581 38.504V41.504ZM71.0864 39.6331C72.8444 38.3545 73.969 36.6028 74.4412 34.4516L71.511 33.8084C71.1912 35.2652 70.4678 36.3735 69.3219 37.2069L71.0864 39.6331ZM72.9761 35.63H82.8101V32.63H72.9761V35.63ZM81.3364 33.8505C80.8965 36.1699 79.9617 38.2362 78.5269 40.0695L80.8894 41.9185C82.6226 39.7038 83.7557 37.1941 84.2838 34.4095L81.3364 33.8505ZM78.5269 40.0695C77.1018 41.8905 75.253 43.3297 72.9476 44.3813L74.1926 47.1107C76.9032 45.8743 79.1465 44.1455 80.8894 41.9185L78.5269 40.0695ZM72.9384 44.3855C70.6945 45.4273 68.1637 45.962 65.3201 45.962V48.962C68.5485 48.962 71.5177 48.3527 74.2018 47.1065L72.9384 44.3855ZM65.3201 45.962C61.9717 45.962 59.0542 45.2611 56.5285 43.898L55.1037 46.538C58.122 48.1669 61.5405 48.962 65.3201 48.962V45.962ZM56.5446 43.9068C54.0236 42.5062 52.0699 40.5347 50.6642 37.9643L48.0321 39.4037C49.7063 42.4653 52.0646 44.8498 55.0876 46.5292L56.5446 43.9068ZM50.6642 37.9643C49.2661 35.4078 48.5381 32.3428 48.5381 28.718H45.5381C45.5381 32.7491 46.3501 36.3282 48.0321 39.4037L50.6642 37.9643ZM48.5381 28.718C48.5381 25.0931 49.2661 22.0281 50.6642 19.4717L48.0321 18.0323C46.3501 21.1078 45.5381 24.6868 45.5381 28.718H48.5381ZM50.6688 19.4631C52.0745 16.8526 54.0228 14.8903 56.5285 13.538L55.1037 10.898C52.0654 12.5377 49.7017 14.9313 48.0274 18.0408L50.6688 19.4631ZM56.5285 13.538C59.0542 12.1749 61.9717 11.474 65.3201 11.474V8.474C61.5405 8.474 58.122 9.26905 55.1037 10.898L56.5285 13.538ZM65.3201 11.474C68.7172 11.474 71.6032 12.1768 74.0278 13.5282L75.4884 10.9078C72.5451 9.26722 69.139 8.474 65.3201 8.474V11.474ZM74.0369 13.5332C76.5235 14.8969 78.4038 16.7631 79.7138 19.1449L82.3424 17.6991C80.7484 14.8009 78.4487 12.5311 75.4794 10.9028L74.0369 13.5332ZM79.7285 19.1709C81.0785 21.5136 81.7721 24.2197 81.7721 27.332H84.7721C84.7721 23.7563 83.9698 20.5224 82.3278 17.673L79.7285 19.1709ZM75.3987 26.4741C75.5441 23.1779 74.6707 20.4184 72.526 18.4936L70.5222 20.7264C71.8095 21.8816 72.5201 23.6541 72.4016 26.3419L75.3987 26.4741ZM72.5403 18.5067C70.567 16.6892 68.1262 15.8 65.3201 15.8V18.8C67.442 18.8 69.1372 19.4508 70.5079 20.7133L72.5403 18.5067ZM65.3201 15.8C62.4775 15.8 59.9986 16.6841 57.9822 18.4936L59.986 20.7264C61.4016 19.4559 63.1468 18.8 65.3201 18.8V15.8ZM57.9822 18.4936C55.8914 20.37 54.8407 23.0564 54.6487 26.3199L57.6435 26.4961C57.8036 23.7756 58.6448 21.93 59.986 20.7264L57.9822 18.4936ZM56.1461 27.908H73.9001V24.908H56.1461V27.908ZM123.934 30.5V32H125.182L125.409 30.7731L123.934 30.5ZM97.1383 30.5V29H95.5763L95.6395 30.5608L97.1383 30.5ZM99.7783 37.694L98.7475 38.7837L99.7783 37.694ZM111.196 38.42L110.314 37.2069L110.305 37.2134L110.296 37.22L111.196 38.42ZM113.968 34.13V32.63H112.762L112.503 33.8084L113.968 34.13ZM123.802 34.13L125.276 34.4095L125.614 32.63H123.802V34.13ZM120.7 40.994L119.519 40.0695L120.7 40.994ZM114.562 45.746L113.94 44.3812L113.931 44.3855L114.562 45.746ZM96.8083 45.218L96.0798 46.5292L96.0878 46.5337L96.0959 46.538L96.8083 45.218ZM90.3403 38.684L89.0242 39.4037L90.3403 38.684ZM90.3403 18.752L91.6564 19.4717L91.661 19.4631L90.3403 18.752ZM96.8083 12.218L97.5207 13.538L96.8083 12.218ZM115.75 12.218L115.02 13.5283L115.029 13.5332L115.75 12.218ZM122.02 18.422L120.706 19.1449L120.713 19.158L120.721 19.1709L122.02 18.422ZM114.892 26.408V27.908H116.328L116.391 26.4741L114.892 26.408ZM112.516 19.61L111.5 20.7133L111.507 20.7199L111.514 20.7264L112.516 19.61ZM97.1383 26.408L95.6409 26.3199L95.5475 27.908H97.1383V26.408ZM122.764 27.332C122.764 28.1414 122.667 29.1032 122.459 30.2269L125.409 30.7731C125.641 29.5208 125.764 28.3706 125.764 27.332H122.764ZM123.934 29H97.1383V32H123.934V29ZM95.6395 30.5608C95.7802 34.0308 96.7284 36.8738 98.7475 38.7837L100.809 36.6043C99.5722 35.4342 98.7604 33.4812 98.6371 30.4392L95.6395 30.5608ZM98.7475 38.7837C100.677 40.6094 103.08 41.504 105.85 41.504V38.504C103.78 38.504 102.135 37.8586 100.809 36.6043L98.7475 38.7837ZM105.85 41.504C108.256 41.504 110.375 40.9112 112.096 39.62L110.296 37.22C109.202 38.0408 107.756 38.504 105.85 38.504V41.504ZM112.079 39.6331C113.837 38.3545 114.961 36.6028 115.433 34.4516L112.503 33.8084C112.183 35.2652 111.46 36.3735 110.314 37.2069L112.079 39.6331ZM113.968 35.63H123.802V32.63H113.968V35.63ZM122.329 33.8505C121.889 36.1699 120.954 38.2362 119.519 40.0695L121.882 41.9185C123.615 39.7038 124.748 37.1941 125.276 34.4095L122.329 33.8505ZM119.519 40.0695C118.094 41.8905 116.245 43.3297 113.94 44.3813L115.185 47.1107C117.895 45.8743 120.139 44.1455 121.882 41.9185L119.519 40.0695ZM113.931 44.3855C111.687 45.4273 109.156 45.962 106.312 45.962V48.962C109.541 48.962 112.51 48.3527 115.194 47.1065L113.931 44.3855ZM106.312 45.962C102.964 45.962 100.046 45.2611 97.5207 43.898L96.0959 46.538C99.1142 48.1669 102.533 48.962 106.312 48.962V45.962ZM97.5368 43.9068C95.0158 42.5062 93.0621 40.5347 91.6564 37.9643L89.0242 39.4037C90.6985 42.4653 93.0568 44.8498 96.0798 46.5292L97.5368 43.9068ZM91.6564 37.9643C90.2583 35.4078 89.5303 32.3428 89.5303 28.718H86.5303C86.5303 32.7491 87.3423 36.3282 89.0242 39.4037L91.6564 37.9643ZM89.5303 28.718C89.5303 25.0931 90.2583 22.0281 91.6564 19.4717L89.0242 18.0323C87.3423 21.1078 86.5303 24.6868 86.5303 28.718H89.5303ZM91.661 19.4631C93.0667 16.8526 95.015 14.8903 97.5207 13.538L96.0959 10.898C93.0576 12.5377 90.6939 14.9313 89.0196 18.0408L91.661 19.4631ZM97.5207 13.538C100.046 12.1749 102.964 11.474 106.312 11.474V8.474C102.533 8.474 99.1142 9.26905 96.0959 10.898L97.5207 13.538ZM106.312 11.474C109.709 11.474 112.595 12.1768 115.02 13.5282L116.481 10.9078C113.537 9.26722 110.131 8.474 106.312 8.474V11.474ZM115.029 13.5332C117.516 14.8969 119.396 16.7631 120.706 19.1449L123.335 17.6991C121.741 14.8009 119.441 12.5311 116.472 10.9028L115.029 13.5332ZM120.721 19.1709C122.071 21.5136 122.764 24.2197 122.764 27.332H125.764C125.764 23.7563 124.962 20.5224 123.32 17.673L120.721 19.1709ZM116.391 26.4741C116.536 23.1779 115.663 20.4184 113.518 18.4936L111.514 20.7264C112.802 21.8816 113.512 23.6541 113.394 26.3419L116.391 26.4741ZM113.533 18.5067C111.559 16.6892 109.118 15.8 106.312 15.8V18.8C108.434 18.8 110.129 19.4508 111.5 20.7133L113.533 18.5067ZM106.312 15.8C103.47 15.8 100.991 16.6841 98.9744 18.4936L100.978 20.7264C102.394 19.4559 104.139 18.8 106.312 18.8V15.8ZM98.9744 18.4936C96.8836 20.37 95.8329 23.0564 95.6409 26.3199L98.6357 26.4961C98.7957 23.7756 99.637 21.93 100.978 20.7264L98.9744 18.4936ZM97.1383 27.908H114.892V24.908H97.1383V27.908ZM138.394 39.212L137.227 38.2706L135.259 40.712H138.394V39.212ZM156.346 39.212H157.846V37.712H156.346V39.212ZM156.346 47V48.5H157.846V47H156.346ZM128.23 47H126.73V48.5H128.23V47ZM128.23 39.608L127.05 38.6821L126.73 39.0898V39.608H128.23ZM145.06 18.158L146.241 19.0839L148.144 16.658H145.06V18.158ZM128.626 18.158H127.126V19.658H128.626V18.158ZM128.626 10.436V8.936H127.126V10.436H128.626ZM155.686 10.436H157.186V8.936H155.686V10.436ZM155.686 17.762L156.854 18.7034L157.186 18.2913V17.762H155.686ZM138.394 40.712H156.346V37.712H138.394V40.712ZM154.846 39.212V47H157.846V39.212H154.846ZM156.346 45.5H128.23V48.5H156.346V45.5ZM129.73 47V39.608H126.73V47H129.73ZM129.411 40.5339L146.241 19.0839L143.88 17.2321L127.05 38.6821L129.411 40.5339ZM145.06 16.658H128.626V19.658H145.06V16.658ZM130.126 18.158V10.436H127.126V18.158H130.126ZM128.626 11.936H155.686V8.936H128.626V11.936ZM154.186 10.436V17.762H157.186V10.436H154.186ZM154.519 16.8206L137.227 38.2706L139.562 40.1534L156.854 18.7034L154.519 16.8206ZM196.186 30.5V32H197.434L197.661 30.7731L196.186 30.5ZM169.39 30.5V29H167.828L167.891 30.5608L169.39 30.5ZM172.03 37.694L170.999 38.7837L172.03 37.694ZM183.448 38.42L182.566 37.2069L182.557 37.2134L182.548 37.22L183.448 38.42ZM186.22 34.13V32.63H185.014L184.755 33.8084L186.22 34.13ZM196.054 34.13L197.528 34.4095L197.865 32.63H196.054V34.13ZM192.952 40.994L191.771 40.0695L192.952 40.994ZM186.814 45.746L186.192 44.3812L186.183 44.3855L186.814 45.746ZM169.06 45.218L168.332 46.5292L168.34 46.5337L168.348 46.538L169.06 45.218ZM162.592 38.684L161.276 39.4037L162.592 38.684ZM162.592 18.752L163.908 19.4717L163.913 19.4631L162.592 18.752ZM169.06 12.218L169.773 13.538L169.06 12.218ZM188.002 12.218L187.272 13.5283L187.281 13.5332L188.002 12.218ZM194.272 18.422L192.958 19.1449L192.965 19.158L192.973 19.1709L194.272 18.422ZM187.144 26.408V27.908H188.58L188.643 26.4741L187.144 26.408ZM184.768 19.61L183.752 20.7133L183.759 20.7199L183.766 20.7264L184.768 19.61ZM169.39 26.408L167.893 26.3199L167.799 27.908H169.39V26.408ZM195.016 27.332C195.016 28.1414 194.919 29.1032 194.711 30.2269L197.661 30.7731C197.893 29.5208 198.016 28.3706 198.016 27.332H195.016ZM196.186 29H169.39V32H196.186V29ZM167.891 30.5608C168.032 34.0308 168.98 36.8738 170.999 38.7837L173.061 36.6043C171.824 35.4342 171.012 33.4812 170.889 30.4392L167.891 30.5608ZM170.999 38.7837C172.929 40.6094 175.332 41.504 178.102 41.504V38.504C176.032 38.504 174.387 37.8586 173.061 36.6043L170.999 38.7837ZM178.102 41.504C180.508 41.504 182.627 40.9112 184.348 39.62L182.548 37.22C181.454 38.0408 180.008 38.504 178.102 38.504V41.504ZM184.331 39.6331C186.089 38.3545 187.213 36.6028 187.685 34.4516L184.755 33.8084C184.435 35.2652 183.712 36.3735 182.566 37.2069L184.331 39.6331ZM186.22 35.63H196.054V32.63H186.22V35.63ZM194.581 33.8505C194.141 36.1699 193.206 38.2362 191.771 40.0695L194.134 41.9185C195.867 39.7038 197 37.1941 197.528 34.4095L194.581 33.8505ZM191.771 40.0695C190.346 41.8905 188.497 43.3297 186.192 44.3813L187.437 47.1107C190.147 45.8743 192.391 44.1455 194.134 41.9185L191.771 40.0695ZM186.183 44.3855C183.939 45.4273 181.408 45.962 178.564 45.962V48.962C181.793 48.962 184.762 48.3527 187.446 47.1065L186.183 44.3855ZM178.564 45.962C175.216 45.962 172.298 45.2611 169.773 43.898L168.348 46.538C171.366 48.1669 174.785 48.962 178.564 48.962V45.962ZM169.789 43.9068C167.268 42.5062 165.314 40.5347 163.908 37.9643L161.276 39.4037C162.95 42.4653 165.309 44.8498 168.332 46.5292L169.789 43.9068ZM163.908 37.9643C162.51 35.4078 161.782 32.3428 161.782 28.718H158.782C158.782 32.7491 159.594 36.3282 161.276 39.4037L163.908 37.9643ZM161.782 28.718C161.782 25.0931 162.51 22.0281 163.908 19.4717L161.276 18.0323C159.594 21.1078 158.782 24.6868 158.782 28.718H161.782ZM163.913 19.4631C165.319 16.8526 167.267 14.8903 169.773 13.538L168.348 10.898C165.31 12.5377 162.946 14.9313 161.272 18.0408L163.913 19.4631ZM169.773 13.538C172.298 12.1749 175.216 11.474 178.564 11.474V8.474C174.785 8.474 171.366 9.26905 168.348 10.898L169.773 13.538ZM178.564 11.474C181.961 11.474 184.847 12.1768 187.272 13.5282L188.733 10.9078C185.789 9.26722 182.383 8.474 178.564 8.474V11.474ZM187.281 13.5332C189.768 14.8969 191.648 16.7631 192.958 19.1449L195.587 17.6991C193.993 14.8009 191.693 12.5311 188.723 10.9028L187.281 13.5332ZM192.973 19.1709C194.323 21.5136 195.016 24.2197 195.016 27.332H198.016C198.016 23.7563 197.214 20.5224 195.572 17.673L192.973 19.1709ZM188.643 26.4741C188.788 23.1779 187.915 20.4184 185.77 18.4936L183.766 20.7264C185.054 21.8816 185.764 23.6541 185.646 26.3419L188.643 26.4741ZM185.784 18.5067C183.811 16.6892 181.37 15.8 178.564 15.8V18.8C180.686 18.8 182.381 19.4508 183.752 20.7133L185.784 18.5067ZM178.564 15.8C175.722 15.8 173.243 16.6841 171.226 18.4936L173.23 20.7264C174.646 19.4559 176.391 18.8 178.564 18.8V15.8ZM171.226 18.4936C169.136 20.37 168.085 23.0564 167.893 26.3199L170.888 26.4961C171.048 23.7756 171.889 21.93 173.23 20.7264L171.226 18.4936ZM169.39 27.908H187.144V24.908H169.39V27.908ZM212.428 17.432H210.928V22.9675L213.723 18.1893L212.428 17.432ZM217.84 11.954L218.601 13.2469L218.61 13.2414L218.62 13.2358L217.84 11.954ZM225.364 9.908H226.864V8.408H225.364V9.908ZM225.364 19.874V21.374H226.864V19.874H225.364ZM212.428 47V48.5H213.928V47H212.428ZM203.122 47H201.622V48.5H203.122V47ZM203.122 10.436V8.936H201.622V10.436H203.122ZM212.428 10.436H213.928V8.936H212.428V10.436ZM213.723 18.1893C214.963 16.0699 216.586 14.4319 218.601 13.2469L217.08 10.6611C214.606 12.1161 212.622 14.1301 211.134 16.6747L213.723 18.1893ZM218.62 13.2358C220.615 12.0226 222.851 11.408 225.364 11.408V8.408C222.334 8.408 219.553 9.15742 217.061 10.6722L218.62 13.2358ZM223.864 9.908V19.874H226.864V9.908H223.864ZM225.364 18.374H222.658V21.374H225.364V18.374ZM222.658 18.374C219.044 18.374 216.053 19.2113 213.965 21.1511C211.856 23.1101 210.928 25.9493 210.928 29.378H213.928C213.928 26.4707 214.706 24.5579 216.007 23.3489C217.329 22.1207 219.453 21.374 222.658 21.374V18.374ZM210.928 29.378V47H213.928V29.378H210.928ZM212.428 45.5H203.122V48.5H212.428V45.5ZM204.622 47V10.436H201.622V47H204.622ZM203.122 11.936H212.428V8.936H203.122V11.936ZM210.928 10.436V17.432H213.928V10.436H210.928Z" fill="url(#paint0_linear_338_9703)"/>
<defs>
<linearGradient id="paint0_linear_338_9703" x1="76.4214" y1="23.5" x2="172.338" y2="83.0979" gradientUnits="userSpaceOnUse">
<stop stop-color="#2465FF" stop-opacity="0.9"/>
<stop offset="0.62938" stop-color="#BB4CFF" stop-opacity="0.453125"/>
<stop offset="1" stop-color="#D68AD3" stop-opacity="0.587575"/>
</linearGradient>
</defs>
</svg>
