<svg width="24" height="24" viewBox="0 0 24 24" fill="none" xmlns="http://www.w3.org/2000/svg">
<path d="M22.1829 1.47428C15.535 -0.480116 8.46505 -0.480116 1.81714 1.47428C1.29495 1.62881 0.836345 1.94726 0.509107 2.38255C0.18187 2.81784 0.0033716 3.34686 0 3.89143L0 8.02285C0.0124564 11.4314 1.051 14.7573 2.98037 17.5672C4.90975 20.3772 7.64055 22.5411 10.8171 23.7771C11.5778 24.0736 12.4222 24.0736 13.1829 23.7771C16.3594 22.5411 19.0902 20.3772 21.0196 17.5672C22.949 14.7573 23.9875 11.4314 24 8.02285V3.89143C23.9966 3.34686 23.8181 2.81784 23.4909 2.38255C23.1637 1.94726 22.705 1.62881 22.1829 1.47428ZM3.42857 8.02285V4.92C3.42872 4.82282 3.46062 4.72836 3.51942 4.65099C3.57822 4.57362 3.6607 4.51759 3.75429 4.49143C6.30956 3.83312 8.93315 3.4764 11.5714 3.42857C11.6879 3.43379 11.7981 3.48277 11.88 3.56571C11.9542 3.645 11.9968 3.74863 12 3.85714V19.92C11.9994 19.9907 11.9819 20.0601 11.9491 20.1227C11.9163 20.1853 11.8691 20.2392 11.8114 20.28C11.7468 20.3094 11.6767 20.3246 11.6057 20.3246C11.5347 20.3246 11.4646 20.3094 11.4 20.28C9.03646 19.2156 7.02857 17.4944 5.61534 15.3214C4.20211 13.1483 3.44307 10.615 3.42857 8.02285Z" fill="url(#paint0_linear_301_1586)"/>
<defs>
<linearGradient id="paint0_linear_301_1586" x1="1.68401" y1="6.50169" x2="36.9626" y2="6.3637" gradientUnits="userSpaceOnUse">
<stop stop-color="#2465FF" stop-opacity="0.9"/>
<stop offset="0.62938" stop-color="#BB4CFF" stop-opacity="0.453125"/>
<stop offset="1" stop-color="#D68AD3" stop-opacity="0.587575"/>
</linearGradient>
</defs>
</svg>
