<svg width="21" height="21" viewBox="0 0 21 21" fill="none" xmlns="http://www.w3.org/2000/svg">
<path d="M10.4963 2.70387C13.1669 2.70387 13.4806 2.71574 14.5363 2.76324C15.5125 2.80699 16.04 2.96949 16.3931 3.10824C16.8612 3.29074 17.195 3.50512 17.5438 3.85449C17.8925 4.20387 18.1112 4.53699 18.29 5.00512C18.425 5.35824 18.5919 5.88637 18.635 6.86199C18.6825 7.91762 18.6944 8.23074 18.6944 10.902C18.6944 13.5732 18.6825 13.8864 18.635 14.942C18.5913 15.9182 18.4288 16.4457 18.29 16.7989C18.1075 17.267 17.8931 17.6007 17.5438 17.9495C17.1944 18.2982 16.8612 18.517 16.3931 18.6957C16.04 18.8307 15.5119 18.9976 14.5363 19.0407C13.4806 19.0882 13.1675 19.1001 10.4963 19.1001C7.825 19.1001 7.51187 19.0882 6.45625 19.0407C5.48 18.997 4.9525 18.8345 4.59937 18.6957C4.13125 18.5132 3.7975 18.2989 3.44875 17.9495C3.1 17.6001 2.88125 17.267 2.7025 16.7989C2.5675 16.4457 2.40062 15.9176 2.3575 14.942C2.31 13.8864 2.29813 13.5732 2.29813 10.902C2.29813 8.23074 2.31 7.91762 2.3575 6.86199C2.40125 5.88574 2.56375 5.35824 2.7025 5.00512C2.885 4.53699 3.09938 4.20324 3.44875 3.85449C3.79813 3.50574 4.13125 3.28699 4.59937 3.10824C4.9525 2.97324 5.48062 2.80637 6.45625 2.76324C7.51187 2.71137 7.825 2.70387 10.4963 2.70387ZM10.4963 0.901992C7.78188 0.901992 7.44063 0.913867 6.37313 0.961367C5.30938 1.00887 4.58313 1.17949 3.94875 1.42574C3.29 1.67949 2.73438 2.02512 2.17875 2.58074C1.62313 3.13637 1.28188 3.69574 1.02375 4.35074C0.7775 4.98574 0.606875 5.71199 0.559375 6.77949C0.511875 7.84324 0.5 8.18449 0.5 10.8982C0.5 13.612 0.511875 13.9539 0.559375 15.0214C0.606875 16.0851 0.7775 16.8114 1.02375 17.4501C1.2775 18.1089 1.62313 18.6645 2.17875 19.2201C2.73438 19.7757 3.29375 20.117 3.94875 20.3751C4.58375 20.6214 5.31 20.792 6.3775 20.8395C7.445 20.887 7.7825 20.8989 10.5006 20.8989C13.2188 20.8989 13.5562 20.887 14.6237 20.8395C15.6875 20.792 16.4137 20.6214 17.0525 20.3751C17.7113 20.1214 18.2669 19.7757 18.8225 19.2201C19.3781 18.6645 19.7194 18.1051 19.9775 17.4501C20.2237 16.8151 20.3944 16.0889 20.4419 15.0214C20.4894 13.9539 20.5012 13.6164 20.5012 10.8982C20.5012 8.18012 20.4894 7.84262 20.4419 6.77512C20.3944 5.71137 20.2237 4.98512 19.9775 4.34637C19.7237 3.68762 19.3781 3.13199 18.8225 2.57637C18.2669 2.02074 17.7075 1.67949 17.0525 1.42137C16.4175 1.17512 15.6912 1.00449 14.6237 0.956992C13.5525 0.913242 13.2113 0.901367 10.4969 0.901367L10.4963 0.901992ZM10.4963 5.76324C7.66313 5.76324 5.36125 8.06074 5.36125 10.8982C5.36125 13.7357 7.66313 16.0332 10.4963 16.0332C13.3294 16.0332 15.6312 13.7314 15.6312 10.8982C15.6312 8.06512 13.3294 5.76324 10.4963 5.76324ZM10.4963 14.2314C8.655 14.2314 7.16313 12.7395 7.16313 10.8982C7.16313 9.05699 8.655 7.56512 10.4963 7.56512C12.3375 7.56512 13.8294 9.05699 13.8294 10.8982C13.8294 12.7395 12.3375 14.2314 10.4963 14.2314ZM17.0319 5.56074C17.0319 6.22262 16.4956 6.75887 15.8337 6.75887C15.1719 6.75887 14.6356 6.22262 14.6356 5.56074C14.6356 4.89887 15.1719 4.36262 15.8337 4.36262C16.4956 4.36262 17.0319 4.89887 17.0319 5.56074Z" fill="white"/>
</svg>
