<svg width="24" height="18" viewBox="0 0 24 18" fill="none" xmlns="http://www.w3.org/2000/svg">
<path d="M14.6914 17.6914H14.5714C14.0394 17.6625 13.529 17.4711 13.109 17.1432C12.6891 16.8152 12.3798 16.3663 12.2229 15.8571L9.34286 6.24001C9.31673 6.15751 9.26716 6.08441 9.20019 6.02962C9.13322 5.97482 9.05175 5.94071 8.96571 5.93143C8.88474 5.93344 8.80571 5.95666 8.73652 5.99878C8.66733 6.04089 8.6104 6.10043 8.57143 6.17143L6.85714 9.42858C6.64557 9.8568 6.31818 10.2171 5.91212 10.4686C5.50607 10.7201 5.03763 10.8528 4.56 10.8514H1.71429C1.25963 10.8514 0.823594 10.6708 0.502103 10.3493C0.180612 10.0278 0 9.59181 0 9.13715C0 8.68249 0.180612 8.24646 0.502103 7.92497C0.823594 7.60348 1.25963 7.42286 1.71429 7.42286H3.82286C3.90216 7.42347 3.97996 7.40113 4.04687 7.35855C4.11378 7.31597 4.16696 7.25496 4.2 7.18286L6.85714 1.73143C7.09022 1.27346 7.45433 0.895212 7.9031 0.644874C8.35188 0.394537 8.86501 0.283436 9.37714 0.32572C9.90318 0.353014 10.4079 0.542275 10.8222 0.867577C11.2365 1.19288 11.5401 1.63831 11.6914 2.14286L14.4514 11.3486C14.4815 11.4313 14.5362 11.5028 14.6083 11.5533C14.6804 11.6038 14.7663 11.6309 14.8543 11.6309C14.9423 11.6309 15.0282 11.6038 15.1003 11.5533C15.1723 11.5028 15.2271 11.4313 15.2571 11.3486L16.2 9.00001C16.3874 8.52178 16.7155 8.11169 17.141 7.82396C17.5665 7.53623 18.0692 7.38441 18.5829 7.38858H22.2857C22.7404 7.38858 23.1764 7.56919 23.4979 7.89068C23.8194 8.21217 24 8.64821 24 9.10286C24 9.55752 23.8194 9.99356 23.4979 10.315C23.1764 10.6365 22.7404 10.8172 22.2857 10.8172H19.4571C19.3686 10.8148 19.2816 10.8399 19.2079 10.889C19.1342 10.9381 19.0776 11.0088 19.0457 11.0914L17.1429 16.0629C16.948 16.5511 16.609 16.9685 16.1711 17.2594C15.7332 17.5504 15.2171 17.701 14.6914 17.6914Z" fill="url(#paint0_linear_301_1577)"/>
<defs>
<linearGradient id="paint0_linear_301_1577" x1="1.68401" y1="5.01949" x2="36.9621" y2="4.82896" gradientUnits="userSpaceOnUse">
<stop stop-color="#2465FF" stop-opacity="0.9"/>
<stop offset="0.62938" stop-color="#BB4CFF" stop-opacity="0.453125"/>
<stop offset="1" stop-color="#D68AD3" stop-opacity="0.587575"/>
</linearGradient>
</defs>
</svg>
