<svg width="1904" height="576" viewBox="0 0 1904 576" fill="none" xmlns="http://www.w3.org/2000/svg">
<path d="M22.7065 183.462C80.2755 114.77 151.723 47.0199 304.384 47.31C415.515 47.5199 513.81 171.429 643.676 201.596C779.224 233.083 859.384 147.022 966.002 186.573C1059.27 221.173 1019.32 294.966 1114.66 344.822C1243.22 412.046 1379.69 311.26 1521.74 372.866C1649.93 428.47 1628.43 549.427 1746.81 572.18C1806.15 583.587 1865.18 563.494 1903.81 546.139" stroke="#723982" stroke-width="2" stroke-miterlimit="10"/>
<path d="M21.6328 193.332C76.9786 125.864 146.207 59.2681 294.634 57.7441C405.143 56.6079 502.876 177.844 632.797 205.261C768.403 233.879 844.686 146.96 951.905 184.135C1045.7 216.657 1008.83 290.629 1105.25 338.245C1235.26 402.447 1366.84 299.836 1510.02 358.204C1639.23 410.881 1622.43 531.288 1740.68 551.575C1799.96 561.743 1860.03 538.099 1897.69 520.136" stroke="#723982" stroke-width="2" stroke-miterlimit="10"/>
<path d="M20.5605 203.202C73.688 136.958 140.703 71.4599 284.886 68.1779C394.787 65.6748 491.941 184.258 621.92 208.928C757.583 234.674 829.987 146.899 937.808 181.698C1032.12 212.145 998.344 286.293 1095.84 331.668C1227.3 392.849 1353.99 288.41 1498.3 343.536C1628.53 393.292 1616.41 513.144 1734.55 530.961C1793.77 539.892 1854.88 512.692 1891.57 494.127" stroke="#723982" stroke-width="2" stroke-miterlimit="10"/>
<path d="M19.4863 213.072C70.3923 148.054 135.212 83.588 275.133 78.6201C384.437 74.7196 481.005 190.673 611.038 212.593C746.762 235.47 815.293 146.836 923.709 179.26C1018.55 207.625 987.854 281.956 1086.43 325.09C1219.34 383.25 1341.14 276.985 1486.58 328.882C1617.82 375.715 1610.42 495.014 1728.41 510.361C1787.57 518.053 1849.72 487.305 1885.45 468.131" stroke="#723982" stroke-width="2" stroke-miterlimit="10"/>
<path d="M18.4126 222.942C67.0987 159.148 129.728 95.6692 265.383 89.0459C374.103 83.7384 470.068 197.088 600.16 216.257C735.941 236.265 800.597 146.775 909.61 176.823C1004.97 203.104 977.366 277.621 1077.02 318.513C1211.38 373.653 1328.3 265.561 1474.86 314.22C1607.13 358.129 1604.41 476.876 1722.3 489.755C1781.39 496.212 1844.57 461.91 1879.34 442.128" stroke="#723982" stroke-width="2" stroke-miterlimit="10"/>
<path d="M17.3384 232.812C63.8045 170.244 124.253 107.684 255.633 99.4818C363.778 92.7304 459.132 203.505 589.281 219.924C725.12 237.063 785.899 146.715 895.511 174.387C991.399 198.595 966.878 273.287 1067.6 311.938C1203.42 364.049 1315.44 254.137 1463.14 299.559C1596.43 340.549 1598.41 458.737 1716.16 469.149C1775.19 474.368 1839.43 436.513 1873.22 416.126" stroke="#723982" stroke-width="2" stroke-miterlimit="10"/>
<path d="M16.2646 242.681C60.5093 181.338 118.786 119.635 245.883 109.914C353.464 101.687 448.197 209.911 578.401 223.587C714.3 237.85 771.204 146.652 881.413 171.948C977.824 194.077 956.389 268.948 1058.19 305.359C1195.46 354.454 1302.59 242.71 1451.41 284.897C1585.72 322.966 1592.41 440.6 1710.03 448.543C1769 452.526 1834.28 411.118 1867.11 390.123" stroke="#723982" stroke-width="2" stroke-miterlimit="10"/>
<path d="M15.1987 252.552C57.2235 192.433 113.331 131.523 236.14 120.343C343.165 110.606 437.269 216.335 567.53 227.249C703.479 238.653 756.506 146.586 867.313 169.51C964.248 189.561 945.898 264.612 1048.78 298.781C1187.5 344.857 1289.74 231.286 1439.69 270.235C1575.02 305.384 1586.4 422.461 1703.9 427.937C1762.8 430.682 1829.13 385.721 1860.99 364.121" stroke="#723982" stroke-width="2" stroke-miterlimit="10"/>
<path d="M14.1167 262.422C53.9199 203.529 107.864 143.354 226.382 130.782C332.854 119.496 426.326 222.746 556.642 230.919C692.658 239.448 741.81 146.529 853.217 167.073C950.676 185.047 935.413 260.276 1039.37 292.204C1179.54 335.258 1276.88 219.86 1427.97 255.572C1564.32 287.802 1580.4 404.323 1697.77 407.331C1756.61 408.838 1823.98 360.326 1854.87 338.118" stroke="#723982" stroke-width="2" stroke-miterlimit="10"/>
<path d="M13.043 272.291C50.6263 214.623 102.406 155.104 216.628 141.218C322.555 128.338 415.387 229.161 545.76 234.584C681.836 240.244 727.109 146.468 839.115 164.635C937.097 180.529 924.922 255.939 1029.95 285.626C1171.58 325.657 1264.03 208.434 1416.25 240.915C1553.62 270.224 1574.39 386.189 1691.64 386.729C1750.42 387 1818.83 334.934 1848.76 312.12" stroke="#723982" stroke-width="2" stroke-miterlimit="10"/>
<path d="M11.9687 282.159C47.3321 225.715 96.9465 166.794 206.881 151.65C312.262 137.131 404.455 235.576 534.886 238.25C671.019 241.04 712.416 146.406 825.022 162.199C923.528 176.015 914.438 251.604 1020.55 279.052C1163.62 316.07 1251.18 197.013 1404.54 226.251C1542.93 252.638 1568.39 368.048 1685.52 366.119C1744.23 365.157 1813.68 309.535 1842.64 286.114" stroke="#723982" stroke-width="2" stroke-miterlimit="10"/>
<path d="M10.895 292.031C44.0369 236.813 91.4842 178.422 197.131 162.086C301.965 145.875 393.514 241.991 524.004 241.914C660.197 241.835 697.719 146.344 810.922 159.76C909.951 171.499 903.949 247.266 1011.13 272.472C1155.66 306.462 1238.34 185.585 1392.81 211.588C1532.22 235.053 1562.39 349.91 1679.38 345.512C1738.03 343.309 1808.53 284.136 1836.53 260.111" stroke="#723982" stroke-width="2" stroke-miterlimit="10"/>
<path d="M9.8208 301.901C40.7428 247.907 86.0133 189.979 187.38 172.52C291.662 154.557 382.584 248.404 513.125 245.579C649.377 242.63 683.022 146.282 796.823 157.323C896.375 166.983 893.461 242.93 1001.72 265.896C1147.7 296.863 1225.48 174.161 1381.09 196.926C1521.52 217.471 1556.38 331.771 1673.25 324.905C1731.83 321.465 1803.39 258.742 1830.41 234.108" stroke="#723982" stroke-width="2" stroke-miterlimit="10"/>
<path d="M8.74707 311.771C37.4491 259.002 80.5349 201.469 177.63 182.954C281.344 163.174 371.648 254.819 502.247 249.246C638.556 243.427 668.326 146.221 782.726 154.886C882.801 162.467 882.972 238.594 992.31 259.319C1139.74 287.265 1212.63 162.736 1369.37 182.265C1510.82 199.893 1550.38 313.633 1667.13 304.3C1725.65 299.621 1798.23 233.345 1824.3 208.104" stroke="#723982" stroke-width="2" stroke-miterlimit="10"/>
<path d="M7.67627 321.641C34.1568 270.097 75.0436 212.892 167.888 193.388C271.031 171.718 360.72 261.234 491.374 252.91C627.738 244.221 653.636 146.158 768.635 152.448C869.235 157.951 872.492 234.257 982.907 252.742C1131.79 277.666 1199.79 151.31 1357.66 167.603C1500.13 182.305 1544.39 295.494 1661 283.693C1719.46 277.778 1793.09 207.95 1818.19 182.093" stroke="#723982" stroke-width="2" stroke-miterlimit="10"/>
<path d="M6.59912 331.517C30.8597 281.198 69.5298 224.256 158.129 203.828C260.674 180.186 349.777 267.655 480.488 256.582C616.915 245.024 638.938 146.104 754.529 150.014C855.653 153.438 861.996 229.924 973.48 246.165C1123.81 268.069 1186.92 139.887 1345.92 152.943C1489.42 164.723 1538.37 277.352 1654.87 263.09C1713.26 255.936 1787.94 182.555 1812.06 156.1" stroke="#723982" stroke-width="2" stroke-miterlimit="10"/>
<path d="M5.52539 341.381C27.5661 292.288 63.997 235.539 148.379 214.256C250.299 188.549 338.841 274.064 469.603 260.241C606.09 245.818 624.23 146.035 740.426 147.574C842.073 148.92 851.501 225.585 964.07 239.587C1115.85 258.47 1174.08 128.462 1334.21 138.281C1478.72 147.141 1532.36 259.22 1648.73 242.482C1707.06 234.091 1782.78 157.158 1805.94 130.097" stroke="#723982" stroke-width="2" stroke-miterlimit="10"/>
<path d="M4.45117 351.251C24.2704 303.382 58.4366 246.766 138.629 224.69C239.884 196.816 327.906 280.479 458.732 263.905C595.277 246.609 609.54 145.974 726.338 145.136C828.509 144.403 841.025 221.256 954.669 233.01C1107.9 248.875 1161.23 117.036 1322.5 123.617C1468.03 129.558 1526.37 241.082 1642.61 221.874C1700.88 212.248 1777.64 131.761 1799.84 104.089" stroke="#723982" stroke-width="2" stroke-miterlimit="10"/>
<path d="M3.37695 361.121C20.9826 314.477 52.8425 257.932 128.878 235.124C229.419 204.968 316.969 286.886 447.85 267.572C584.454 247.405 594.841 145.914 712.234 142.699C814.928 139.888 830.531 216.912 945.251 226.434C1099.94 239.272 1148.38 105.612 1310.77 108.956C1457.32 111.975 1520.36 222.944 1636.48 201.269C1694.68 190.404 1772.49 106.366 1793.71 78.0915" stroke="#723982" stroke-width="2" stroke-miterlimit="10"/>
<path d="M2.30322 370.991C17.681 325.572 47.2089 269.037 119.128 245.558C218.895 212.99 306.035 293.313 436.97 271.237C573.633 248.201 580.144 145.851 698.135 140.261C801.354 135.372 820.043 212.575 935.841 219.855C1091.98 229.674 1135.53 94.1838 1299.05 94.2943C1446.62 94.3921 1514.36 204.804 1630.35 180.67C1688.49 168.568 1767.34 80.9774 1787.6 52.0967" stroke="#723982" stroke-width="2" stroke-miterlimit="10"/>
<path d="M1.22949 380.861C14.3873 336.667 41.5273 280.086 109.378 255.992C208.29 220.868 295.099 299.722 426.091 274.902C562.812 248.996 565.456 145.785 684.038 137.824C787.78 130.856 809.555 208.239 926.428 213.279C1084.02 220.075 1122.68 82.7611 1287.33 79.6281C1435.92 76.8045 1508.36 186.662 1624.22 160.052C1682.3 146.713 1762.19 55.5678 1781.48 26.0814" stroke="#723982" stroke-width="2" stroke-miterlimit="10"/>
<path d="M0.154297 390.731C11.0922 347.761 35.7882 291.086 99.6263 266.428C197.587 228.586 284.166 306.137 415.209 278.567C551.991 249.792 550.749 145.727 669.938 135.386C774.203 126.34 799.066 203.902 917.016 206.699C1076.06 210.472 1109.82 71.3334 1275.61 64.9681C1425.22 59.2247 1502.35 168.526 1618.09 139.447C1676.1 124.864 1757.04 30.1741 1775.37 0.0803223" stroke="#723982" stroke-width="2" stroke-miterlimit="10"/>
</svg>
