<svg width="21" height="16" viewBox="0 0 21 16" fill="none" xmlns="http://www.w3.org/2000/svg">
<path d="M6.20355 15.9503C5.76942 15.9428 5.34258 15.8391 4.95473 15.6469C4.56688 15.4546 4.22797 15.1788 3.96318 14.8399L0.783305 11.2953C0.655984 11.1547 0.558273 10.9906 0.495837 10.8125C0.4334 10.6344 0.407481 10.4459 0.419582 10.2579C0.431682 10.0698 0.481562 9.88605 0.566328 9.71714C0.651095 9.54824 0.769062 9.39759 0.913391 9.27393C1.20289 9.02681 1.58017 8.90299 1.96231 8.92968C2.34446 8.95638 2.70021 9.13139 2.9514 9.41628L5.92892 12.7331C5.95793 12.7742 5.99695 12.8075 6.04241 12.8299C6.08787 12.8522 6.1383 12.863 6.18909 12.8612C6.23831 12.8624 6.28719 12.8528 6.33218 12.8331C6.37718 12.8134 6.41717 12.7841 6.44926 12.7473L18.1714 0.732749C18.4427 0.49251 18.7961 0.362163 19.1609 0.367855C19.5256 0.373546 19.8747 0.514854 20.138 0.763434C20.4014 1.01201 20.5596 1.34948 20.5809 1.70814C20.6022 2.06679 20.485 2.42011 20.2528 2.69722L8.40055 14.9823C8.13027 15.2941 7.79288 15.5428 7.41286 15.7102C7.03285 15.8777 6.61975 15.9597 6.20355 15.9503Z" fill="url(#paint0_linear_553_25)"/>
<defs>
<linearGradient id="paint0_linear_553_25" x1="1.70735" y1="0.73291" x2="16.808" y2="8.8796" gradientUnits="userSpaceOnUse">
<stop stop-color="#D9ABCC"/>
<stop offset="0.583333" stop-color="#F9F5AC"/>
<stop offset="1" stop-color="#DEA782"/>
</linearGradient>
</defs>
</svg>
