<svg width="539" height="67" viewBox="0 -1 539 69" fill="none" xmlns="http://www.w3.org/2000/svg">
<path d="M32.6265 39.628L34.0444 39.1387L33.6957 38.128H32.6265V39.628ZM13.9485 39.628V38.128H12.8864L12.5336 39.1298L13.9485 39.628ZM10.6485 49V50.5H11.7106L12.0633 49.4982L10.6485 49ZM0.814461 49L-0.591188 48.4764L-1.34496 50.5H0.814461V49ZM17.9745 2.932V1.432H16.9325L16.5688 2.40841L17.9745 2.932ZM28.6005 2.932L30.0068 2.41018L29.6438 1.432H28.6005V2.932ZM45.6945 49V50.5H47.851L47.1008 48.4782L45.6945 49ZM35.8605 49L34.4425 49.4893L34.7913 50.5H35.8605V49ZM30.1185 32.566V34.066H32.2307L31.5347 32.0717L30.1185 32.566ZM23.2545 12.898L24.6707 12.4037L23.2545 8.34569L21.8382 12.4037L23.2545 12.898ZM16.3905 32.566L14.9742 32.0717L14.2782 34.066H16.3905V32.566ZM32.6265 38.128H13.9485V41.128H32.6265V38.128ZM12.5336 39.1298L9.23361 48.5018L12.0633 49.4982L15.3633 40.1262L12.5336 39.1298ZM10.6485 47.5H0.814461V50.5H10.6485V47.5ZM2.22011 49.5236L19.3801 3.45559L16.5688 2.40841L-0.591188 48.4764L2.22011 49.5236ZM17.9745 4.432H28.6005V1.432H17.9745V4.432ZM27.1942 3.45382L44.2882 49.5218L47.1008 48.4782L30.0068 2.41018L27.1942 3.45382ZM45.6945 47.5H35.8605V50.5H45.6945V47.5ZM37.2784 48.5107L34.0444 39.1387L31.2085 40.1173L34.4425 49.4893L37.2784 48.5107ZM31.5347 32.0717L24.6707 12.4037L21.8382 13.3923L28.7022 33.0603L31.5347 32.0717ZM21.8382 12.4037L14.9742 32.0717L17.8067 33.0603L24.6707 13.3923L21.8382 12.4037ZM16.3905 34.066H30.1185V31.066H16.3905V34.066ZM82.5952 16.066L83.7075 15.0596L82.5952 16.066ZM86.3572 49V50.5H87.8572V49H86.3572ZM77.1172 49H75.6172V50.5H77.1172V49ZM74.8732 22.072L73.7687 23.0869L73.7756 23.0945L73.7826 23.1019L74.8732 22.072ZM60.0232 49V50.5H61.5232V49H60.0232ZM50.7172 49H49.2172V50.5H50.7172V49ZM50.7172 12.436V10.936H49.2172V12.436H50.7172ZM60.0232 12.436H61.5232V10.936H60.0232V12.436ZM60.0232 19.762H58.5232L61.4193 20.3105L60.0232 19.762ZM64.7752 14.02L65.5656 15.2949L65.5724 15.2906L64.7752 14.02ZM72.4972 13.408C76.3583 13.408 79.2978 14.6573 81.4829 17.0724L83.7075 15.0596C80.8766 11.9307 77.084 10.408 72.4972 10.408V13.408ZM81.4829 17.0724C83.6665 19.4859 84.8572 22.9748 84.8572 27.748H87.8572C87.8572 22.4892 86.5398 18.1901 83.7075 15.0596L81.4829 17.0724ZM84.8572 27.748V49H87.8572V27.748H84.8572ZM86.3572 47.5H77.1172V50.5H86.3572V47.5ZM78.6172 49V28.804H75.6172V49H78.6172ZM78.6172 28.804C78.6172 25.6476 77.8004 22.9868 75.9637 21.0421L73.7826 23.1019C74.9379 24.3252 75.6172 26.1524 75.6172 28.804H78.6172ZM75.9777 21.0571C74.1477 19.0657 71.6711 18.13 68.7352 18.13V21.13C70.9912 21.13 72.6066 21.8223 73.7687 23.0869L75.9777 21.0571ZM68.7352 18.13C65.7368 18.13 63.2034 19.1213 61.297 21.1866L63.5014 23.2214C64.7629 21.8547 66.4535 21.13 68.7352 21.13V18.13ZM61.297 21.1866C59.3745 23.2693 58.5232 26.1498 58.5232 29.596H61.5232C61.5232 26.6182 62.2559 24.5707 63.5014 23.2214L61.297 21.1866ZM58.5232 29.596V49H61.5232V29.596H58.5232ZM60.0232 47.5H50.7172V50.5H60.0232V47.5ZM52.2172 49V12.436H49.2172V49H52.2172ZM50.7172 13.936H60.0232V10.936H50.7172V13.936ZM58.5232 12.436V19.762H61.5232V12.436H58.5232ZM61.4193 20.3105C62.2719 18.1402 63.6472 16.4843 65.5656 15.2949L63.9848 12.7451C61.5032 14.2837 59.7104 16.4558 58.627 19.2135L61.4193 20.3105ZM65.5724 15.2906C67.5548 14.0468 69.8471 13.408 72.4972 13.408V10.408C69.3392 10.408 66.4836 11.1772 63.9779 12.7494L65.5724 15.2906ZM116.721 14.152L115.883 15.3962L115.895 15.4039L116.721 14.152ZM121.473 20.026L120.077 20.5745L122.973 20.026H121.473ZM121.473 0.16V-1.34H119.973V0.16H121.473ZM130.713 0.16H132.213V-1.34H130.713V0.16ZM130.713 49V50.5H132.213V49H130.713ZM121.473 49H119.973V50.5H121.473V49ZM121.473 41.344H122.973L120.077 40.7955L121.473 41.344ZM116.721 47.284L117.559 48.5282L117.565 48.5244L116.721 47.284ZM100.551 47.218L99.7728 48.5002V48.5002L100.551 47.218ZM94.7433 40.75L93.3894 41.3957L93.3954 41.4083L93.4016 41.4208L94.7433 40.75ZM94.7433 20.752L93.3975 20.0895L93.3933 20.0981L94.7433 20.752ZM100.551 14.218L101.33 15.5002L100.551 14.218ZM104.775 22.93L105.874 23.9517L104.775 22.93ZM104.775 38.506L103.677 39.5277L103.683 39.5341L103.689 39.5405L104.775 38.506ZM118.701 38.44L117.616 37.4043L117.616 37.4049L118.701 38.44ZM118.701 22.996L117.604 24.0186L117.616 24.0315L117.628 24.0441L118.701 22.996ZM108.867 13.474C111.705 13.474 114.018 14.1398 115.883 15.3962L117.559 12.9078C115.113 11.2602 112.19 10.474 108.867 10.474V13.474ZM115.895 15.4039C117.836 16.6849 119.222 18.3967 120.077 20.5745L122.869 19.4775C121.789 16.7273 120.007 14.5231 117.548 12.9001L115.895 15.4039ZM122.973 20.026V0.16H119.973V20.026H122.973ZM121.473 1.66H130.713V-1.34H121.473V1.66ZM129.213 0.16V49H132.213V0.16H129.213ZM130.713 47.5H121.473V50.5H130.713V47.5ZM122.973 49V41.344H119.973V49H122.973ZM120.077 40.7955C119.22 42.977 117.829 44.7165 115.878 46.0436L117.565 48.5244C120.013 46.8595 121.79 44.639 122.869 41.8925L120.077 40.7955ZM115.883 46.0398C114.018 47.2962 111.705 47.962 108.867 47.962V50.962C112.19 50.962 115.113 50.1758 117.559 48.5282L115.883 46.0398ZM108.867 47.962C106.042 47.962 103.543 47.2795 101.33 45.9358L99.7728 48.5002C102.488 50.1485 105.532 50.962 108.867 50.962V47.962ZM101.33 45.9358C99.1294 44.5999 97.3786 42.6666 96.0849 40.0792L93.4016 41.4208C94.9239 44.4654 97.0451 46.8441 99.7728 48.5002L101.33 45.9358ZM96.0972 40.1043C94.8473 37.4836 94.1973 34.3683 94.1973 30.718H91.1973C91.1973 34.7237 91.9113 38.2964 93.3894 41.3957L96.0972 40.1043ZM94.1973 30.718C94.1973 27.0668 94.8476 23.9776 96.0933 21.4059L93.3933 20.0981C91.911 23.1584 91.1973 26.7132 91.1973 30.718H94.1973ZM96.089 21.4145C97.3847 18.7828 99.1355 16.8324 101.33 15.5002L99.7728 12.9358C97.0391 14.5956 94.9179 17.0012 93.3975 20.0895L96.089 21.4145ZM101.33 15.5002C103.543 14.1565 106.042 13.474 108.867 13.474V10.474C105.532 10.474 102.488 11.2875 99.7728 12.9358L101.33 15.5002ZM111.771 18.592C108.508 18.592 105.757 19.6719 103.677 21.9083L105.874 23.9517C107.313 22.4041 109.227 21.592 111.771 21.592V18.592ZM103.677 21.9083C101.593 24.1485 100.635 27.1479 100.635 30.718H103.635C103.635 27.6881 104.437 25.4955 105.874 23.9517L103.677 21.9083ZM100.635 30.718C100.635 34.2881 101.593 37.2875 103.677 39.5277L105.874 37.4843C104.437 35.9405 103.635 33.7479 103.635 30.718H100.635ZM103.689 39.5405C105.772 41.7279 108.519 42.778 111.771 42.778V39.778C109.216 39.778 107.298 38.9801 105.861 37.4715L103.689 39.5405ZM111.771 42.778C114.962 42.778 117.676 41.6886 119.787 39.4751L117.616 37.4049C116.118 38.9754 114.212 39.778 111.771 39.778V42.778ZM119.786 39.4757C121.952 37.2065 122.973 34.2337 122.973 30.718H119.973C119.973 33.6263 119.146 35.8015 117.616 37.4043L119.786 39.4757ZM122.973 30.718C122.973 27.166 121.956 24.1819 119.774 21.9479L117.628 24.0441C119.142 25.5941 119.973 27.758 119.973 30.718H122.973ZM119.799 21.9734C117.691 19.7117 114.974 18.592 111.771 18.592V21.592C114.201 21.592 116.103 22.4083 117.604 24.0186L119.799 21.9734ZM210.544 16.066L209.44 17.082L209.449 17.0911L209.457 17.1L210.544 16.066ZM214.438 49V50.5H215.938V49H214.438ZM205.198 49H203.698V50.5H205.198V49ZM203.02 22.336L201.913 23.3482L201.928 23.3647L201.944 23.3807L203.02 22.336ZM190.942 22.468L192.032 23.4988L190.942 22.468ZM188.632 49V50.5H190.132V49H188.632ZM179.392 49H177.892V50.5H179.392V49ZM177.214 22.336L176.107 23.3482L176.122 23.3647L176.138 23.3807L177.214 22.336ZM162.826 49V50.5H164.326V49H162.826ZM153.52 49H152.02V50.5H153.52V49ZM153.52 12.436V10.936H152.02V12.436H153.52ZM162.826 12.436H164.326V10.936H162.826V12.436ZM162.826 19.366H161.326L164.215 19.9319L162.826 19.366ZM167.38 13.888L168.168 15.1646L168.175 15.16L167.38 13.888ZM182.362 14.02L181.542 15.276L181.553 15.2834L182.362 14.02ZM187.312 20.092L185.927 20.6689L187.25 23.8427L188.677 20.7145L187.312 20.092ZM192.394 14.152L193.209 15.4114L193.215 15.4075L192.394 14.152ZM200.05 13.408C204.157 13.408 207.224 14.6741 209.44 17.082L211.647 15.05C208.76 11.9139 204.831 10.408 200.05 10.408V13.408ZM209.457 17.1C211.707 19.4646 212.938 22.9377 212.938 27.748H215.938C215.938 22.4383 214.572 18.1234 211.631 15.032L209.457 17.1ZM212.938 27.748V49H215.938V27.748H212.938ZM214.438 47.5H205.198V50.5H214.438V47.5ZM206.698 49V28.804H203.698V49H206.698ZM206.698 28.804C206.698 25.738 205.904 23.1538 204.096 21.2913L201.944 23.3807C203.04 24.5103 203.698 26.238 203.698 28.804H206.698ZM204.127 21.3238C202.378 19.4109 199.983 18.526 197.146 18.526V21.526C199.325 21.526 200.846 22.1811 201.913 23.3482L204.127 21.3238ZM197.146 18.526C194.209 18.526 191.721 19.4616 189.852 21.4372L192.032 23.4988C193.243 22.2184 194.891 21.526 197.146 21.526V18.526ZM189.852 21.4372C187.96 23.4376 187.132 26.2409 187.132 29.596H190.132C190.132 26.7031 190.844 24.7544 192.032 23.4988L189.852 21.4372ZM187.132 29.596V49H190.132V29.596H187.132ZM188.632 47.5H179.392V50.5H188.632V47.5ZM180.892 49V28.804H177.892V49H180.892ZM180.892 28.804C180.892 25.738 180.098 23.1538 178.29 21.2913L176.138 23.3807C177.234 24.5103 177.892 26.238 177.892 28.804H180.892ZM178.321 21.3238C176.572 19.4109 174.177 18.526 171.34 18.526V21.526C173.519 21.526 175.04 22.1811 176.107 23.3482L178.321 21.3238ZM171.34 18.526C168.403 18.526 165.915 19.4616 164.046 21.4372L166.226 23.4988C167.437 22.2184 169.085 21.526 171.34 21.526V18.526ZM164.046 21.4372C162.154 23.4376 161.326 26.2409 161.326 29.596H164.326C164.326 26.7031 165.038 24.7544 166.226 23.4988L164.046 21.4372ZM161.326 29.596V49H164.326V29.596H161.326ZM162.826 47.5H153.52V50.5H162.826V47.5ZM155.02 49V12.436H152.02V49H155.02ZM153.52 13.936H162.826V10.936H153.52V13.936ZM161.326 12.436V19.366H164.326V12.436H161.326ZM164.215 19.9319C165.07 17.8331 166.386 16.2638 168.168 15.1646L166.592 12.6114C164.238 14.0642 162.518 16.1469 161.437 18.8001L164.215 19.9319ZM168.175 15.16C170.022 14.0055 172.182 13.408 174.706 13.408V10.408C171.686 10.408 168.962 11.1305 166.585 12.616L168.175 15.16ZM174.706 13.408C177.406 13.408 179.664 14.0493 181.542 15.2759L183.182 12.7641C180.748 11.1747 177.902 10.408 174.706 10.408V13.408ZM181.553 15.2834C183.471 16.511 184.933 18.283 185.927 20.6689L188.697 19.5151C187.491 16.621 185.652 14.345 183.17 12.7566L181.553 15.2834ZM188.677 20.7145C189.706 18.4583 191.213 16.7028 193.209 15.4114L191.579 12.8926C189.087 14.5052 187.206 16.7097 185.947 19.4695L188.677 20.7145ZM193.215 15.4075C195.251 14.076 197.516 13.408 200.05 13.408V10.408C196.952 10.408 194.113 11.236 191.573 12.8965L193.215 15.4075ZM244.856 14.152L244.029 15.4039V15.4039L244.856 14.152ZM249.542 20.026L248.137 20.5527L251.042 20.026H249.542ZM249.542 12.436V10.936H248.042V12.436H249.542ZM258.782 12.436H260.282V10.936H258.782V12.436ZM258.782 49V50.5H260.282V49H258.782ZM249.542 49H248.042V50.5H249.542V49ZM249.542 41.344H251.042L248.137 40.8173L249.542 41.344ZM244.856 47.284L245.682 48.5359L245.691 48.5302L245.699 48.5244L244.856 47.284ZM228.62 47.218L227.841 48.5002V48.5002L228.62 47.218ZM222.812 40.75L221.458 41.3957L221.464 41.4083L221.47 41.4208L222.812 40.75ZM222.812 20.752L221.466 20.0895L221.462 20.0981L222.812 20.752ZM228.62 14.218L229.398 15.5002L228.62 14.218ZM232.844 22.93L233.942 23.9517L232.844 22.93ZM232.844 38.506L231.745 39.5277L231.751 39.5341L231.757 39.5405L232.844 38.506ZM246.77 38.44L245.685 37.4043L245.684 37.4049L246.77 38.44ZM246.77 22.996L245.672 24.0186L245.684 24.0315L245.697 24.0441L246.77 22.996ZM236.936 13.474C239.772 13.474 242.114 14.1395 244.029 15.4039L245.682 12.9001C243.198 11.2605 240.259 10.474 236.936 10.474V13.474ZM244.029 15.4039C245.965 16.6816 247.325 18.386 248.137 20.5527L250.946 19.4993C249.911 16.738 248.146 14.5264 245.682 12.9001L244.029 15.4039ZM251.042 20.026V12.436H248.042V20.026H251.042ZM249.542 13.936H258.782V10.936H249.542V13.936ZM257.282 12.436V49H260.282V12.436H257.282ZM258.782 47.5H249.542V50.5H258.782V47.5ZM251.042 49V41.344H248.042V49H251.042ZM248.137 40.8173C247.323 42.9878 245.959 44.7198 244.012 46.0436L245.699 48.5244C248.152 46.8562 249.912 44.6282 250.946 41.8707L248.137 40.8173ZM244.029 46.0321C242.114 47.2965 239.772 47.962 236.936 47.962V50.962C240.259 50.962 243.198 50.1755 245.682 48.5359L244.029 46.0321ZM236.936 47.962C234.111 47.962 231.611 47.2795 229.398 45.9358L227.841 48.5002C230.556 50.1485 233.601 50.962 236.936 50.962V47.962ZM229.398 45.9358C227.198 44.5999 225.447 42.6666 224.153 40.0792L221.47 41.4208C222.992 44.4654 225.113 46.8441 227.841 48.5002L229.398 45.9358ZM224.166 40.1043C222.916 37.4836 222.266 34.3683 222.266 30.718H219.266C219.266 34.7237 219.98 38.2964 221.458 41.3957L224.166 40.1043ZM222.266 30.718C222.266 27.0668 222.916 23.9776 224.162 21.4059L221.462 20.0981C219.979 23.1584 219.266 26.7132 219.266 30.718H222.266ZM224.157 21.4145C225.453 18.7828 227.204 16.8324 229.398 15.5002L227.841 12.9358C225.107 14.5956 222.986 17.0012 221.466 20.0895L224.157 21.4145ZM229.398 15.5002C231.611 14.1565 234.111 13.474 236.936 13.474V10.474C233.601 10.474 230.556 11.2875 227.841 12.9358L229.398 15.5002ZM239.84 18.592C236.576 18.592 233.826 19.6719 231.745 21.9083L233.942 23.9517C235.382 22.4041 237.295 21.592 239.84 21.592V18.592ZM231.745 21.9083C229.661 24.1485 228.704 27.1479 228.704 30.718H231.704C231.704 27.6881 232.506 25.4955 233.942 23.9517L231.745 21.9083ZM228.704 30.718C228.704 34.2881 229.661 37.2875 231.745 39.5277L233.942 37.4843C232.506 35.9405 231.704 33.7479 231.704 30.718H228.704ZM231.757 39.5405C233.841 41.7279 236.587 42.778 239.84 42.778V39.778C237.284 39.778 235.367 38.9801 233.93 37.4715L231.757 39.5405ZM239.84 42.778C243.031 42.778 245.745 41.6886 247.855 39.4751L245.684 37.4049C244.187 38.9754 242.281 39.778 239.84 39.778V42.778ZM247.855 39.4757C250.021 37.2065 251.042 34.2337 251.042 30.718H248.042C248.042 33.6263 247.215 35.8015 245.685 37.4043L247.855 39.4757ZM251.042 30.718C251.042 27.166 250.025 24.1819 247.843 21.9479L245.697 24.0441C247.211 25.5941 248.042 27.758 248.042 30.718H251.042ZM247.867 21.9734C245.76 19.7117 243.042 18.592 239.84 18.592V21.592C242.269 21.592 244.172 22.4083 245.672 24.0186L247.867 21.9734ZM299.093 16.066L300.206 15.0596L299.093 16.066ZM302.855 49V50.5H304.355V49H302.855ZM293.615 49H292.115V50.5H293.615V49ZM291.371 22.072L290.267 23.0869L290.274 23.0945L290.281 23.1019L291.371 22.072ZM276.521 49V50.5H278.021V49H276.521ZM267.215 49H265.715V50.5H267.215V49ZM267.215 12.436V10.936H265.715V12.436H267.215ZM276.521 12.436H278.021V10.936H276.521V12.436ZM276.521 19.762H275.021L277.917 20.3105L276.521 19.762ZM281.273 14.02L282.064 15.2949L282.07 15.2906L281.273 14.02ZM288.995 13.408C292.856 13.408 295.796 14.6573 297.981 17.0724L300.206 15.0596C297.375 11.9307 293.582 10.408 288.995 10.408V13.408ZM297.981 17.0724C300.165 19.4859 301.355 22.9748 301.355 27.748H304.355C304.355 22.4892 303.038 18.1901 300.206 15.0596L297.981 17.0724ZM301.355 27.748V49H304.355V27.748H301.355ZM302.855 47.5H293.615V50.5H302.855V47.5ZM295.115 49V28.804H292.115V49H295.115ZM295.115 28.804C295.115 25.6476 294.298 22.9868 292.462 21.0421L290.281 23.1019C291.436 24.3252 292.115 26.1524 292.115 28.804H295.115ZM292.476 21.0571C290.646 19.0657 288.169 18.13 285.233 18.13V21.13C287.489 21.13 289.105 21.8223 290.267 23.0869L292.476 21.0571ZM285.233 18.13C282.235 18.13 279.701 19.1213 277.795 21.1866L279.999 23.2214C281.261 21.8547 282.952 21.13 285.233 21.13V18.13ZM277.795 21.1866C275.872 23.2693 275.021 26.1498 275.021 29.596H278.021C278.021 26.6182 278.754 24.5707 279.999 23.2214L277.795 21.1866ZM275.021 29.596V49H278.021V29.596H275.021ZM276.521 47.5H267.215V50.5H276.521V47.5ZM268.715 49V12.436H265.715V49H268.715ZM267.215 13.936H276.521V10.936H267.215V13.936ZM275.021 12.436V19.762H278.021V12.436H275.021ZM277.917 20.3105C278.77 18.1402 280.145 16.4843 282.064 15.2949L280.483 12.7451C278.001 14.2837 276.208 16.4558 275.125 19.2135L277.917 20.3105ZM282.07 15.2906C284.053 14.0468 286.345 13.408 288.995 13.408V10.408C285.837 10.408 282.982 11.1772 280.476 12.7494L282.07 15.2906ZM317.313 12.436L318.705 11.877L318.327 10.936H317.313V12.436ZM327.279 37.252L325.887 37.811L327.332 41.4087L328.685 37.7754L327.279 37.252ZM336.519 12.436V10.936H335.477L335.114 11.9126L336.519 12.436ZM346.749 12.436L348.135 13.0103L348.995 10.936H346.749V12.436ZM324.375 66.424V67.924H325.377L325.761 66.9983L324.375 66.424ZM314.079 66.424L312.71 65.8125L311.767 67.924H314.079V66.424ZM322.329 47.944L323.699 48.5555L323.968 47.9532L323.706 47.3479L322.329 47.944ZM306.951 12.436V10.936H304.667L305.575 13.0321L306.951 12.436ZM315.921 12.995L325.887 37.811L328.671 36.693L318.705 11.877L315.921 12.995ZM328.685 37.7754L337.925 12.9594L335.114 11.9126L325.874 36.7286L328.685 37.7754ZM336.519 13.936H346.749V10.936H336.519V13.936ZM345.364 11.8617L322.99 65.8497L325.761 66.9983L348.135 13.0103L345.364 11.8617ZM324.375 64.924H314.079V67.924H324.375V64.924ZM315.449 67.0355L323.699 48.5555L320.96 47.3325L312.71 65.8125L315.449 67.0355ZM323.706 47.3479L308.328 11.8399L305.575 13.0321L320.953 48.5401L323.706 47.3479ZM306.951 13.936H317.313V10.936H306.951V13.936ZM422.53 16.066L421.427 17.082L421.435 17.0911L421.444 17.1L422.53 16.066ZM426.424 49V50.5H427.924V49H426.424ZM417.184 49H415.684V50.5H417.184V49ZM415.006 22.336L413.899 23.3482L413.914 23.3647L413.93 23.3807L415.006 22.336ZM402.928 22.468L404.018 23.4988L402.928 22.468ZM400.618 49V50.5H402.118V49H400.618ZM391.378 49H389.878V50.5H391.378V49ZM389.2 22.336L388.093 23.3482L388.108 23.3647L388.124 23.3807L389.2 22.336ZM374.812 49V50.5H376.312V49H374.812ZM365.506 49H364.006V50.5H365.506V49ZM365.506 12.436V10.936H364.006V12.436H365.506ZM374.812 12.436H376.312V10.936H374.812V12.436ZM374.812 19.366H373.312L376.201 19.9319L374.812 19.366ZM379.366 13.888L380.154 15.1646L380.161 15.16L379.366 13.888ZM394.348 14.02L393.528 15.276L393.54 15.2834L394.348 14.02ZM399.298 20.092L397.914 20.6689L399.236 23.8427L400.663 20.7145L399.298 20.092ZM404.38 14.152L405.195 15.4114L405.201 15.4075L404.38 14.152ZM412.036 13.408C416.143 13.408 419.21 14.6741 421.427 17.082L423.634 15.05C420.747 11.9139 416.818 10.408 412.036 10.408V13.408ZM421.444 17.1C423.694 19.4646 424.924 22.9377 424.924 27.748H427.924C427.924 22.4383 426.559 18.1234 423.617 15.032L421.444 17.1ZM424.924 27.748V49H427.924V27.748H424.924ZM426.424 47.5H417.184V50.5H426.424V47.5ZM418.684 49V28.804H415.684V49H418.684ZM418.684 28.804C418.684 25.738 417.89 23.1538 416.083 21.2913L413.93 23.3807C415.026 24.5103 415.684 26.238 415.684 28.804H418.684ZM416.113 21.3238C414.364 19.4109 411.969 18.526 409.132 18.526V21.526C411.311 21.526 412.832 22.1811 413.899 23.3482L416.113 21.3238ZM409.132 18.526C406.195 18.526 403.707 19.4616 401.839 21.4372L404.018 23.4988C405.229 22.2184 406.877 21.526 409.132 21.526V18.526ZM401.839 21.4372C399.946 23.4376 399.118 26.2409 399.118 29.596H402.118C402.118 26.7031 402.83 24.7544 404.018 23.4988L401.839 21.4372ZM399.118 29.596V49H402.118V29.596H399.118ZM400.618 47.5H391.378V50.5H400.618V47.5ZM392.878 49V28.804H389.878V49H392.878ZM392.878 28.804C392.878 25.738 392.084 23.1538 390.277 21.2913L388.124 23.3807C389.22 24.5103 389.878 26.238 389.878 28.804H392.878ZM390.307 21.3238C388.558 19.4109 386.163 18.526 383.326 18.526V21.526C385.505 21.526 387.026 22.1811 388.093 23.3482L390.307 21.3238ZM383.326 18.526C380.389 18.526 377.901 19.4616 376.033 21.4372L378.212 23.4988C379.423 22.2184 381.071 21.526 383.326 21.526V18.526ZM376.033 21.4372C374.14 23.4376 373.312 26.2409 373.312 29.596H376.312C376.312 26.7031 377.024 24.7544 378.212 23.4988L376.033 21.4372ZM373.312 29.596V49H376.312V29.596H373.312ZM374.812 47.5H365.506V50.5H374.812V47.5ZM367.006 49V12.436H364.006V49H367.006ZM365.506 13.936H374.812V10.936H365.506V13.936ZM373.312 12.436V19.366H376.312V12.436H373.312ZM376.201 19.9319C377.056 17.8331 378.372 16.2638 380.154 15.1646L378.579 12.6114C376.224 14.0642 374.504 16.1469 373.423 18.8001L376.201 19.9319ZM380.161 15.16C382.008 14.0055 384.169 13.408 386.692 13.408V10.408C383.672 10.408 380.948 11.1305 378.571 12.616L380.161 15.16ZM386.692 13.408C389.392 13.408 391.65 14.0493 393.528 15.2759L395.168 12.7641C392.735 11.1747 389.888 10.408 386.692 10.408V13.408ZM393.54 15.2834C395.458 16.511 396.919 18.283 397.914 20.6689L400.683 19.5151C399.477 16.621 397.639 14.345 395.157 12.7566L393.54 15.2834ZM400.663 20.7145C401.692 18.4583 403.199 16.7028 405.195 15.4114L403.565 12.8926C401.073 14.5052 399.192 16.7097 397.934 19.4695L400.663 20.7145ZM405.201 15.4075C407.237 14.076 409.503 13.408 412.036 13.408V10.408C408.938 10.408 406.099 11.236 403.559 12.8965L405.201 15.4075ZM461.066 14.218L460.362 15.5427L460.371 15.5471L461.066 14.218ZM467.798 20.752L466.494 21.4941L466.499 21.5028L467.798 20.752ZM467.798 40.684L469.097 41.4348L467.798 40.684ZM461.066 47.218L461.77 48.5427L461.777 48.5387L461.066 47.218ZM441.86 47.218L441.14 48.5341L441.152 48.5407L441.165 48.5471L441.86 47.218ZM435.194 40.684L433.895 41.4348L435.194 40.684ZM435.194 20.752L436.493 21.5028L436.498 21.494L435.194 20.752ZM441.86 14.218L441.165 12.8888L441.156 12.8933L441.86 14.218ZM444.896 22.798L445.957 23.8587L445.963 23.8523L445.969 23.8458L444.896 22.798ZM444.896 38.704L443.823 39.7518L443.829 39.7583L443.835 39.7647L444.896 38.704ZM458.096 38.704L459.157 39.7647L459.163 39.7583L459.169 39.7518L458.096 38.704ZM458.096 22.798L457.023 23.8458L457.029 23.8523L457.035 23.8587L458.096 22.798ZM451.496 13.474C454.844 13.474 457.787 14.1748 460.362 15.5427L461.77 12.8933C458.712 11.2692 455.276 10.474 451.496 10.474V13.474ZM460.371 15.5471C462.971 16.9071 465.006 18.8788 466.494 21.494L469.102 20.0099C467.334 16.9052 464.881 14.5209 461.761 12.8889L460.371 15.5471ZM466.499 21.5028C467.974 24.0531 468.74 27.1066 468.74 30.718H471.74C471.74 26.6734 470.878 23.0829 469.097 20.0012L466.499 21.5028ZM468.74 30.718C468.74 34.3293 467.974 37.3829 466.499 39.9332L469.097 41.4348C470.878 38.3531 471.74 34.7626 471.74 30.718H468.74ZM466.499 39.9332C465.01 42.5088 462.97 44.4893 460.355 45.8973L461.777 48.5387C464.882 46.8667 467.33 44.4912 469.097 41.4348L466.499 39.9332ZM460.362 45.8933C457.787 47.2612 454.844 47.962 451.496 47.962V50.962C455.276 50.962 458.712 50.1668 461.77 48.5427L460.362 45.8933ZM451.496 47.962C448.148 47.962 445.179 47.2613 442.555 45.8889L441.165 48.5471C444.261 50.1667 447.716 50.962 451.496 50.962V47.962ZM442.58 45.9019C440.008 44.4957 437.985 42.5147 436.493 39.9332L433.895 41.4348C435.659 44.4853 438.08 46.8603 441.14 48.5341L442.58 45.9019ZM436.493 39.9332C435.018 37.3829 434.252 34.3293 434.252 30.718H431.252C431.252 34.7626 432.114 38.3531 433.895 41.4348L436.493 39.9332ZM434.252 30.718C434.252 27.1066 435.018 24.0531 436.493 21.5028L433.895 20.0012C432.114 23.0829 431.252 26.6734 431.252 30.718H434.252ZM436.498 21.494C437.99 18.8728 440.007 16.9008 442.564 15.5427L441.156 12.8933C438.081 14.5272 435.654 16.9112 433.89 20.0099L436.498 21.494ZM442.555 15.5471C445.179 14.1747 448.148 13.474 451.496 13.474V10.474C447.716 10.474 444.261 11.2693 441.165 12.8889L442.555 15.5471ZM451.496 18.526C448.498 18.526 445.911 19.6113 443.823 21.7502L445.969 23.8458C447.489 22.2887 449.302 21.526 451.496 21.526V18.526ZM443.835 21.7373C441.66 23.9123 440.69 26.992 440.69 30.718H443.69C443.69 27.492 444.524 25.2917 445.957 23.8587L443.835 21.7373ZM440.69 30.718C440.69 34.4466 441.661 37.5378 443.823 39.7518L445.969 37.6562C444.523 36.1742 443.69 33.9414 443.69 30.718H440.69ZM443.835 39.7647C445.926 41.8555 448.51 42.91 451.496 42.91V39.91C449.29 39.91 447.474 39.1605 445.957 37.6433L443.835 39.7647ZM451.496 42.91C454.482 42.91 457.066 41.8555 459.157 39.7647L457.035 37.6433C455.518 39.1605 453.702 39.91 451.496 39.91V42.91ZM459.169 39.7518C461.331 37.5378 462.302 34.4466 462.302 30.718H459.302C459.302 33.9414 458.469 36.1742 457.023 37.6562L459.169 39.7518ZM462.302 30.718C462.302 26.992 461.332 23.9123 459.157 21.7373L457.035 23.8587C458.468 25.2917 459.302 27.492 459.302 30.718H462.302ZM459.169 21.7502C457.081 19.6113 454.494 18.526 451.496 18.526V21.526C453.69 21.526 455.503 22.2887 457.023 23.8458L459.169 21.7502ZM486.123 19.432H484.623V24.9675L487.418 20.1893L486.123 19.432ZM491.535 13.954L492.295 15.2469L492.305 15.2414L492.314 15.2358L491.535 13.954ZM499.059 11.908H500.559V10.408H499.059V11.908ZM499.059 21.874V23.374H500.559V21.874H499.059ZM486.123 49V50.5H487.623V49H486.123ZM476.817 49H475.317V50.5H476.817V49ZM476.817 12.436V10.936H475.317V12.436H476.817ZM486.123 12.436H487.623V10.936H486.123V12.436ZM487.418 20.1893C488.657 18.0699 490.281 16.4319 492.295 15.2469L490.774 12.6611C488.301 14.1161 486.316 16.1301 484.828 18.6747L487.418 20.1893ZM492.314 15.2358C494.31 14.0226 496.546 13.408 499.059 13.408V10.408C496.028 10.408 493.248 11.1574 490.756 12.6722L492.314 15.2358ZM497.559 11.908V21.874H500.559V11.908H497.559ZM499.059 20.374H496.353V23.374H499.059V20.374ZM496.353 20.374C492.738 20.374 489.747 21.2113 487.659 23.1511C485.551 25.1101 484.623 27.9493 484.623 31.378H487.623C487.623 28.4707 488.4 26.5579 489.701 25.3489C491.023 24.1207 493.148 23.374 496.353 23.374V20.374ZM484.623 31.378V49H487.623V31.378H484.623ZM486.123 47.5H476.817V50.5H486.123V47.5ZM478.317 49V12.436H475.317V49H478.317ZM476.817 13.936H486.123V10.936H476.817V13.936ZM484.623 12.436V19.432H487.623V12.436H484.623ZM538.265 32.5V34H539.513L539.74 32.7731L538.265 32.5ZM511.469 32.5V31H509.907L509.971 32.5608L511.469 32.5ZM514.109 39.694L513.079 40.7837L514.109 39.694ZM525.527 40.42L524.645 39.2069L524.636 39.2134L524.627 39.22L525.527 40.42ZM528.299 36.13V34.63H527.093L526.834 35.8084L528.299 36.13ZM538.133 36.13L539.607 36.4095L539.945 34.63H538.133V36.13ZM535.031 42.994L533.85 42.0695L535.031 42.994ZM528.893 47.746L528.271 46.3812L528.262 46.3855L528.893 47.746ZM511.139 47.218L510.411 48.5292L510.419 48.5337L510.427 48.538L511.139 47.218ZM504.671 40.684L503.355 41.4037L504.671 40.684ZM504.671 20.752L505.987 21.4717L505.992 21.4631L504.671 20.752ZM511.139 14.218L511.852 15.538L511.139 14.218ZM530.081 14.218L529.351 15.5283L529.36 15.5332L530.081 14.218ZM536.351 20.422L535.037 21.1449L535.044 21.158L535.052 21.1709L536.351 20.422ZM529.223 28.408V29.908H530.659L530.722 28.4741L529.223 28.408ZM526.847 21.61L525.831 22.7133L525.838 22.7199L525.845 22.7264L526.847 21.61ZM511.469 28.408L509.972 28.3199L509.879 29.908H511.469V28.408ZM537.095 29.332C537.095 30.1414 536.999 31.1032 536.79 32.2269L539.74 32.7731C539.972 31.5208 540.095 30.3706 540.095 29.332H537.095ZM538.265 31H511.469V34H538.265V31ZM509.971 32.5608C510.111 36.0308 511.06 38.8738 513.079 40.7837L515.14 38.6043C513.903 37.4342 513.091 35.4812 512.968 32.4392L509.971 32.5608ZM513.079 40.7837C515.009 42.6094 517.411 43.504 520.181 43.504V40.504C518.111 40.504 516.466 39.8586 515.14 38.6043L513.079 40.7837ZM520.181 43.504C522.587 43.504 524.706 42.9112 526.427 41.62L524.627 39.22C523.533 40.0408 522.087 40.504 520.181 40.504V43.504ZM526.41 41.6331C528.168 40.3545 529.292 38.6028 529.764 36.4516L526.834 35.8084C526.514 37.2652 525.791 38.3735 524.645 39.2069L526.41 41.6331ZM528.299 37.63H538.133V34.63H528.299V37.63ZM536.66 35.8505C536.22 38.1699 535.285 40.2362 533.85 42.0695L536.213 43.9185C537.946 41.7038 539.079 39.1941 539.607 36.4095L536.66 35.8505ZM533.85 42.0695C532.425 43.8905 530.576 45.3297 528.271 46.3813L529.516 49.1107C532.226 47.8743 534.47 46.1455 536.213 43.9185L533.85 42.0695ZM528.262 46.3855C526.018 47.4273 523.487 47.962 520.643 47.962V50.962C523.872 50.962 526.841 50.3527 529.525 49.1065L528.262 46.3855ZM520.643 47.962C517.295 47.962 514.377 47.2611 511.852 45.898L510.427 48.538C513.445 50.1669 516.864 50.962 520.643 50.962V47.962ZM511.868 45.9068C509.347 44.5062 507.393 42.5347 505.987 39.9643L503.355 41.4037C505.03 44.4653 507.388 46.8498 510.411 48.5292L511.868 45.9068ZM505.987 39.9643C504.589 37.4078 503.861 34.3428 503.861 30.718H500.861C500.861 34.7491 501.673 38.3282 503.355 41.4037L505.987 39.9643ZM503.861 30.718C503.861 27.0931 504.589 24.0281 505.987 21.4717L503.355 20.0323C501.673 23.1078 500.861 26.6868 500.861 30.718H503.861ZM505.992 21.4631C507.398 18.8526 509.346 16.8903 511.852 15.538L510.427 12.898C507.389 14.5377 505.025 16.9313 503.351 20.0408L505.992 21.4631ZM511.852 15.538C514.377 14.1749 517.295 13.474 520.643 13.474V10.474C516.864 10.474 513.445 11.2691 510.427 12.898L511.852 15.538ZM520.643 13.474C524.04 13.474 526.926 14.1768 529.351 15.5282L530.812 12.9078C527.868 11.2672 524.462 10.474 520.643 10.474V13.474ZM529.36 15.5332C531.847 16.8969 533.727 18.7631 535.037 21.1449L537.666 19.6991C536.072 16.8009 533.772 14.5311 530.803 12.9028L529.36 15.5332ZM535.052 21.1709C536.402 23.5136 537.095 26.2197 537.095 29.332H540.095C540.095 25.7563 539.293 22.5224 537.651 19.673L535.052 21.1709ZM530.722 28.4741C530.867 25.1779 529.994 22.4184 527.849 20.4936L525.845 22.7264C527.133 23.8816 527.843 25.6541 527.725 28.3419L530.722 28.4741ZM527.864 20.5067C525.89 18.6892 523.449 17.8 520.643 17.8V20.8C522.765 20.8 524.46 21.4508 525.831 22.7133L527.864 20.5067ZM520.643 17.8C517.801 17.8 515.322 18.6841 513.305 20.4936L515.309 22.7264C516.725 21.4559 518.47 20.8 520.643 20.8V17.8ZM513.305 20.4936C511.215 22.37 510.164 25.0564 509.972 28.3199L512.967 28.4961C513.127 25.7756 513.968 23.93 515.309 22.7264L513.305 20.4936ZM511.469 29.908H529.223V26.908H511.469V29.908Z" fill="url(#paint0_linear_338_9732)"/>
<defs>
<linearGradient id="paint0_linear_338_9732" x1="187.989" y1="25.5" x2="287.705" y2="171.238" gradientUnits="userSpaceOnUse">
<stop stop-color="#2465FF" stop-opacity="0.9"/>
<stop offset="0.62938" stop-color="#BB4CFF" stop-opacity="0.453125"/>
<stop offset="1" stop-color="#D68AD3" stop-opacity="0.587575"/>
</linearGradient>
</defs>
</svg>
