<svg width="279" height="50" viewBox="0 0 279 53" fill="none" xmlns="http://www.w3.org/2000/svg">
<path d="M9.58957 31.708V30.208H8.08957V31.708H9.58957ZM9.58957 49V50.5H11.0896V49H9.58957ZM0.28357 49H-1.21643V50.5H0.28357V49ZM0.28357 2.404V0.903998H-1.21643V2.404H0.28357ZM29.6536 6.364L28.6191 7.45024L28.6277 7.4583L29.6536 6.364ZM29.5216 27.748L28.5125 26.6381L28.5042 26.6458L29.5216 27.748ZM22.5256 11.776L23.5675 10.6969L22.5256 11.776ZM9.58957 9.928V8.428H8.08957V9.928H9.58957ZM9.58957 24.25H8.08957V25.75H9.58957V24.25ZM8.08957 31.708V49H11.0896V31.708H8.08957ZM9.58957 47.5H0.28357V50.5H9.58957V47.5ZM1.78357 49V2.404H-1.21643V49H1.78357ZM0.28357 3.904H17.2456V0.903998H0.28357V3.904ZM17.2456 3.904C22.5282 3.904 26.2276 5.17257 28.6191 7.4502L30.6881 5.27779C27.5356 2.27543 22.9629 0.903998 17.2456 0.903998V3.904ZM28.6277 7.4583C31.0883 9.76512 32.3776 12.926 32.3776 17.122H35.3776C35.3776 12.254 33.8509 8.24288 30.6795 5.26969L28.6277 7.4583ZM32.3776 17.122C32.3776 21.2053 31.0608 24.3215 28.5126 26.6381L30.5306 28.8579C33.7903 25.8945 35.3776 21.9267 35.3776 17.122H32.3776ZM28.5042 26.6458C26.0095 28.9486 22.3328 30.208 17.2456 30.208V33.208C22.8064 33.208 27.3137 31.8274 30.539 28.8502L28.5042 26.6458ZM17.2456 30.208H9.58957V33.208H17.2456V30.208ZM16.2556 25.75C19.1678 25.75 21.6322 25.1203 23.3787 23.5991C25.1649 22.0434 25.9396 19.7873 25.9396 17.122H22.9396C22.9396 19.2087 22.3502 20.5166 21.4084 21.3369C20.427 22.1917 18.7993 22.75 16.2556 22.75V25.75ZM25.9396 17.122C25.9396 14.5168 25.2202 12.2926 23.5675 10.6969L21.4837 12.8551C22.383 13.7234 22.9396 15.0632 22.9396 17.122H25.9396ZM23.5675 10.6969C21.8792 9.06688 19.3135 8.428 16.2556 8.428V11.428C19.0057 11.428 20.6199 12.0211 21.4837 12.8551L23.5675 10.6969ZM16.2556 8.428H9.58957V11.428H16.2556V8.428ZM8.08957 9.928V24.25H11.0896V9.928H8.08957ZM9.58957 25.75H16.2556V22.75H9.58957V25.75ZM62.1642 14.152L61.338 15.4039V15.4039L62.1642 14.152ZM66.8502 20.026L65.4457 20.5527L68.3502 20.026H66.8502ZM66.8502 12.436V10.936H65.3502V12.436H66.8502ZM76.0902 12.436H77.5902V10.936H76.0902V12.436ZM76.0902 49V50.5H77.5902V49H76.0902ZM66.8502 49H65.3502V50.5H66.8502V49ZM66.8502 41.344H68.3502L65.4457 40.8173L66.8502 41.344ZM62.1642 47.284L62.9905 48.5359L62.9991 48.5302L63.0077 48.5244L62.1642 47.284ZM45.9282 47.218L45.1498 48.5002V48.5002L45.9282 47.218ZM40.1202 40.75L38.7663 41.3957L38.7724 41.4083L38.7786 41.4208L40.1202 40.75ZM40.1202 20.752L38.7745 20.0895L38.7703 20.0981L40.1202 20.752ZM45.9282 14.218L46.7067 15.5002L45.9282 14.218ZM50.1522 22.93L51.2505 23.9517L50.1522 22.93ZM50.1522 38.506L49.054 39.5277L49.06 39.5341L49.066 39.5405L50.1522 38.506ZM64.0782 38.44L62.9932 37.4043L62.9926 37.4049L64.0782 38.44ZM64.0782 22.996L62.9808 24.0186L62.9929 24.0315L63.0052 24.0441L64.0782 22.996ZM54.2442 13.474C57.0811 13.474 59.4222 14.1395 61.338 15.4039L62.9905 12.9001C60.5063 11.2605 57.5674 10.474 54.2442 10.474V13.474ZM61.338 15.4039C63.2739 16.6816 64.6332 18.386 65.4457 20.5527L68.2547 19.4993C67.2193 16.738 65.4546 14.5264 62.9905 12.9001L61.338 15.4039ZM68.3502 20.026V12.436H65.3502V20.026H68.3502ZM66.8502 13.936H76.0902V10.936H66.8502V13.936ZM74.5902 12.436V49H77.5902V12.436H74.5902ZM76.0902 47.5H66.8502V50.5H76.0902V47.5ZM68.3502 49V41.344H65.3502V49H68.3502ZM65.4457 40.8173C64.6318 42.9878 63.2676 44.7198 61.3208 46.0436L63.0077 48.5244C65.4609 46.8562 67.2207 44.6282 68.2547 41.8707L65.4457 40.8173ZM61.338 46.0321C59.4222 47.2965 57.0811 47.962 54.2442 47.962V50.962C57.5674 50.962 60.5063 50.1755 62.9905 48.5359L61.338 46.0321ZM54.2442 47.962C51.4192 47.962 48.9199 47.2795 46.7067 45.9358L45.1498 48.5002C47.8646 50.1485 50.9093 50.962 54.2442 50.962V47.962ZM46.7067 45.9358C44.5064 44.5999 42.7556 42.6666 41.4619 40.0792L38.7786 41.4208C40.3009 44.4654 42.4221 46.8441 45.1498 48.5002L46.7067 45.9358ZM41.4741 40.1043C40.2243 37.4836 39.5742 34.3683 39.5742 30.718H36.5742C36.5742 34.7237 37.2882 38.2964 38.7663 41.3957L41.4741 40.1043ZM39.5742 30.718C39.5742 27.0668 40.2245 23.9776 41.4702 21.4059L38.7703 20.0981C37.288 23.1584 36.5742 26.7132 36.5742 30.718H39.5742ZM41.466 21.4145C42.7616 18.7828 44.5124 16.8324 46.7067 15.5002L45.1498 12.9358C42.4161 14.5956 40.2949 17.0012 38.7745 20.0895L41.466 21.4145ZM46.7067 15.5002C48.9199 14.1565 51.4192 13.474 54.2442 13.474V10.474C50.9093 10.474 47.8646 11.2875 45.1498 12.9358L46.7067 15.5002ZM57.1482 18.592C53.8846 18.592 51.1344 19.6719 49.054 21.9083L51.2505 23.9517C52.6901 22.4041 54.6039 21.592 57.1482 21.592V18.592ZM49.054 21.9083C46.9701 24.1485 46.0122 27.1479 46.0122 30.718H49.0122C49.0122 27.6881 49.8144 25.4955 51.2505 23.9517L49.054 21.9083ZM46.0122 30.718C46.0122 34.2881 46.9701 37.2875 49.054 39.5277L51.2505 37.4843C49.8144 35.9405 49.0122 33.7479 49.0122 30.718H46.0122ZM49.066 39.5405C51.1493 41.7279 53.8958 42.778 57.1482 42.778V39.778C54.5927 39.778 52.6752 38.9801 51.2384 37.4715L49.066 39.5405ZM57.1482 42.778C60.3392 42.778 63.0533 41.6886 65.1638 39.4751L62.9926 37.4049C61.4952 38.9754 59.5893 39.778 57.1482 39.778V42.778ZM65.1633 39.4757C67.3293 37.2065 68.3502 34.2337 68.3502 30.718H65.3502C65.3502 33.6263 64.5231 35.8015 62.9932 37.4043L65.1633 39.4757ZM68.3502 30.718C68.3502 27.166 67.3333 24.1819 65.1513 21.9479L63.0052 24.0441C64.5191 25.5941 65.3502 27.758 65.3502 30.718H68.3502ZM65.1757 21.9734C63.0681 19.7117 60.3505 18.592 57.1482 18.592V21.592C59.578 21.592 61.4804 22.4083 62.9808 24.0186L65.1757 21.9734ZM116.402 16.066L117.514 15.0596L116.402 16.066ZM120.164 49V50.5H121.664V49H120.164ZM110.924 49H109.424V50.5H110.924V49ZM108.68 22.072L107.575 23.0869L107.582 23.0945L107.589 23.1019L108.68 22.072ZM93.8298 49V50.5H95.3298V49H93.8298ZM84.5238 49H83.0238V50.5H84.5238V49ZM84.5238 12.436V10.936H83.0238V12.436H84.5238ZM93.8298 12.436H95.3298V10.936H93.8298V12.436ZM93.8298 19.762H92.3298L95.2259 20.3105L93.8298 19.762ZM98.5818 14.02L99.3722 15.2949L99.379 15.2906L98.5818 14.02ZM106.304 13.408C110.165 13.408 113.104 14.6573 115.29 17.0724L117.514 15.0596C114.683 11.9307 110.891 10.408 106.304 10.408V13.408ZM115.29 17.0724C117.473 19.4859 118.664 22.9748 118.664 27.748H121.664C121.664 22.4892 120.346 18.1901 117.514 15.0596L115.29 17.0724ZM118.664 27.748V49H121.664V27.748H118.664ZM120.164 47.5H110.924V50.5H120.164V47.5ZM112.424 49V28.804H109.424V49H112.424ZM112.424 28.804C112.424 25.6476 111.607 22.9868 109.77 21.0421L107.589 23.1019C108.745 24.3252 109.424 26.1524 109.424 28.804H112.424ZM109.784 21.0571C107.954 19.0657 105.478 18.13 102.542 18.13V21.13C104.798 21.13 106.413 21.8223 107.575 23.0869L109.784 21.0571ZM102.542 18.13C99.5435 18.13 97.01 19.1213 95.1036 21.1866L97.308 23.2214C98.5696 21.8547 100.26 21.13 102.542 21.13V18.13ZM95.1036 21.1866C93.1811 23.2693 92.3298 26.1498 92.3298 29.596H95.3298C95.3298 26.6182 96.0625 24.5707 97.308 23.2214L95.1036 21.1866ZM92.3298 29.596V49H95.3298V29.596H92.3298ZM93.8298 47.5H84.5238V50.5H93.8298V47.5ZM86.0238 49V12.436H83.0238V49H86.0238ZM84.5238 13.936H93.8298V10.936H84.5238V13.936ZM92.3298 12.436V19.762H95.3298V12.436H92.3298ZM95.2259 20.3105C96.0785 18.1402 97.4538 16.4843 99.3722 15.2949L97.7914 12.7451C95.3098 14.2837 93.5171 16.4558 92.4337 19.2135L95.2259 20.3105ZM99.379 15.2906C101.361 14.0468 103.654 13.408 106.304 13.408V10.408C103.146 10.408 100.29 11.1772 97.7846 12.7494L99.379 15.2906ZM150.528 14.152L149.69 15.3962L149.702 15.4039L150.528 14.152ZM155.28 20.026L153.884 20.5745L156.78 20.026H155.28ZM155.28 0.16V-1.34H153.78V0.16H155.28ZM164.52 0.16H166.02V-1.34H164.52V0.16ZM164.52 49V50.5H166.02V49H164.52ZM155.28 49H153.78V50.5H155.28V49ZM155.28 41.344H156.78L153.884 40.7955L155.28 41.344ZM150.528 47.284L151.366 48.5282L151.371 48.5244L150.528 47.284ZM134.358 47.218L133.579 48.5002V48.5002L134.358 47.218ZM128.55 40.75L127.196 41.3957L127.202 41.4083L127.208 41.4208L128.55 40.75ZM128.55 20.752L127.204 20.0895L127.2 20.0981L128.55 20.752ZM134.358 14.218L135.136 15.5002L134.358 14.218ZM138.582 22.93L139.68 23.9517L138.582 22.93ZM138.582 38.506L137.484 39.5277L137.49 39.5341L137.496 39.5405L138.582 38.506ZM152.508 38.44L151.423 37.4043L151.422 37.4049L152.508 38.44ZM152.508 22.996L151.411 24.0186L151.423 24.0315L151.435 24.0441L152.508 22.996ZM142.674 13.474C145.512 13.474 147.825 14.1398 149.69 15.3962L151.366 12.9078C148.919 11.2602 145.996 10.474 142.674 10.474V13.474ZM149.702 15.4039C151.643 16.6849 153.028 18.3967 153.884 20.5745L156.676 19.4775C155.596 16.7273 153.813 14.5231 151.354 12.9001L149.702 15.4039ZM156.78 20.026V0.16H153.78V20.026H156.78ZM155.28 1.66H164.52V-1.34H155.28V1.66ZM163.02 0.16V49H166.02V0.16H163.02ZM164.52 47.5H155.28V50.5H164.52V47.5ZM156.78 49V41.344H153.78V49H156.78ZM153.884 40.7955C153.027 42.977 151.636 44.7165 149.684 46.0436L151.371 48.5244C153.82 46.8595 155.597 44.639 156.676 41.8925L153.884 40.7955ZM149.69 46.0398C147.825 47.2962 145.512 47.962 142.674 47.962V50.962C145.996 50.962 148.919 50.1758 151.366 48.5282L149.69 46.0398ZM142.674 47.962C139.849 47.962 137.35 47.2795 135.136 45.9358L133.579 48.5002C136.294 50.1485 139.339 50.962 142.674 50.962V47.962ZM135.136 45.9358C132.936 44.5999 131.185 42.6666 129.892 40.0792L127.208 41.4208C128.731 44.4654 130.852 46.8441 133.579 48.5002L135.136 45.9358ZM129.904 40.1043C128.654 37.4836 128.004 34.3683 128.004 30.718H125.004C125.004 34.7237 125.718 38.2964 127.196 41.3957L129.904 40.1043ZM128.004 30.718C128.004 27.0668 128.654 23.9776 129.9 21.4059L127.2 20.0981C125.718 23.1584 125.004 26.7132 125.004 30.718H128.004ZM129.896 21.4145C131.191 18.7828 132.942 16.8324 135.136 15.5002L133.579 12.9358C130.846 14.5956 128.725 17.0012 127.204 20.0895L129.896 21.4145ZM135.136 15.5002C137.35 14.1565 139.849 13.474 142.674 13.474V10.474C139.339 10.474 136.294 11.2875 133.579 12.9358L135.136 15.5002ZM145.578 18.592C142.314 18.592 139.564 19.6719 137.484 21.9083L139.68 23.9517C141.12 22.4041 143.034 21.592 145.578 21.592V18.592ZM137.484 21.9083C135.4 24.1485 134.442 27.1479 134.442 30.718H137.442C137.442 27.6881 138.244 25.4955 139.68 23.9517L137.484 21.9083ZM134.442 30.718C134.442 34.2881 135.4 37.2875 137.484 39.5277L139.68 37.4843C138.244 35.9405 137.442 33.7479 137.442 30.718H134.442ZM137.496 39.5405C139.579 41.7279 142.326 42.778 145.578 42.778V39.778C143.022 39.778 141.105 38.9801 139.668 37.4715L137.496 39.5405ZM145.578 42.778C148.769 42.778 151.483 41.6886 153.594 39.4751L151.422 37.4049C149.925 38.9754 148.019 39.778 145.578 39.778V42.778ZM153.593 39.4757C155.759 37.2065 156.78 34.2337 156.78 30.718H153.78C153.78 33.6263 152.953 35.8015 151.423 37.4043L153.593 39.4757ZM156.78 30.718C156.78 27.166 155.763 24.1819 153.581 21.9479L151.435 24.0441C152.949 25.5941 153.78 27.758 153.78 30.718H156.78ZM153.605 21.9734C151.498 19.7117 148.78 18.592 145.578 18.592V21.592C148.008 21.592 149.91 22.4083 151.411 24.0186L153.605 21.9734ZM199.419 14.218L198.716 15.5427L198.724 15.5471L199.419 14.218ZM206.151 20.752L204.848 21.4941L204.853 21.5028L206.151 20.752ZM206.151 40.684L207.45 41.4348L206.151 40.684ZM199.419 47.218L200.123 48.5427L200.131 48.5387L199.419 47.218ZM180.213 47.218L179.494 48.5341L179.506 48.5407L179.518 48.5471L180.213 47.218ZM173.547 40.684L172.249 41.4348L173.547 40.684ZM173.547 20.752L174.846 21.5028L174.851 21.494L173.547 20.752ZM180.213 14.218L179.518 12.8888L179.51 12.8933L180.213 14.218ZM183.249 22.798L184.31 23.8587L184.317 23.8523L184.323 23.8458L183.249 22.798ZM183.249 38.704L182.176 39.7518L182.182 39.7583L182.189 39.7647L183.249 38.704ZM196.449 38.704L197.51 39.7647L197.517 39.7583L197.523 39.7518L196.449 38.704ZM196.449 22.798L195.376 23.8458L195.382 23.8523L195.389 23.8587L196.449 22.798ZM189.849 13.474C193.197 13.474 196.141 14.1748 198.716 15.5427L200.123 12.8933C197.066 11.2692 193.63 10.474 189.849 10.474V13.474ZM198.724 15.5471C201.324 16.9071 203.359 18.8788 204.848 21.494L207.455 20.0099C205.688 16.9052 203.235 14.5209 200.115 12.8889L198.724 15.5471ZM204.853 21.5028C206.327 24.0531 207.093 27.1066 207.093 30.718H210.093C210.093 26.6734 209.232 23.0829 207.45 20.0012L204.853 21.5028ZM207.093 30.718C207.093 34.3293 206.327 37.3829 204.853 39.9332L207.45 41.4348C209.232 38.3531 210.093 34.7626 210.093 30.718H207.093ZM204.853 39.9332C203.364 42.5088 201.323 44.4893 198.708 45.8973L200.131 48.5387C203.236 46.8667 205.683 44.4912 207.45 41.4348L204.853 39.9332ZM198.716 45.8933C196.141 47.2612 193.197 47.962 189.849 47.962V50.962C193.63 50.962 197.066 50.1668 200.123 48.5427L198.716 45.8933ZM189.849 47.962C186.502 47.962 183.533 47.2613 180.909 45.8889L179.518 48.5471C182.614 50.1667 186.069 50.962 189.849 50.962V47.962ZM180.933 45.9019C178.362 44.4957 176.339 42.5147 174.846 39.9332L172.249 41.4348C174.012 44.4853 176.433 46.8603 179.494 48.5341L180.933 45.9019ZM174.846 39.9332C173.372 37.3829 172.605 34.3293 172.605 30.718H169.605C169.605 34.7626 170.467 38.3531 172.249 41.4348L174.846 39.9332ZM172.605 30.718C172.605 27.1066 173.372 24.0531 174.846 21.5028L172.249 20.0012C170.467 23.0829 169.605 26.6734 169.605 30.718H172.605ZM174.851 21.494C176.343 18.8728 178.361 16.9008 180.917 15.5427L179.51 12.8933C176.434 14.5272 174.008 16.9112 172.244 20.0099L174.851 21.494ZM180.909 15.5471C183.533 14.1747 186.502 13.474 189.849 13.474V10.474C186.069 10.474 182.614 11.2693 179.518 12.8889L180.909 15.5471ZM189.849 18.526C186.852 18.526 184.264 19.6113 182.176 21.7502L184.323 23.8458C185.843 22.2887 187.655 21.526 189.849 21.526V18.526ZM182.189 21.7373C180.014 23.9123 179.043 26.992 179.043 30.718H182.043C182.043 27.492 182.877 25.2917 184.31 23.8587L182.189 21.7373ZM179.043 30.718C179.043 34.4466 180.015 37.5378 182.176 39.7518L184.323 37.6562C182.876 36.1742 182.043 33.9414 182.043 30.718H179.043ZM182.189 39.7647C184.28 41.8555 186.863 42.91 189.849 42.91V39.91C187.643 39.91 185.827 39.1605 184.31 37.6433L182.189 39.7647ZM189.849 42.91C192.835 42.91 195.419 41.8555 197.51 39.7647L195.389 37.6433C193.872 39.1605 192.055 39.91 189.849 39.91V42.91ZM197.523 39.7518C199.684 37.5378 200.655 34.4466 200.655 30.718H197.655C197.655 33.9414 196.823 36.1742 195.376 37.6562L197.523 39.7518ZM200.655 30.718C200.655 26.992 199.685 23.9123 197.51 21.7373L195.389 23.8587C196.822 25.2917 197.655 27.492 197.655 30.718H200.655ZM197.523 21.7502C195.435 19.6113 192.847 18.526 189.849 18.526V21.526C192.044 21.526 193.856 22.2887 195.376 23.8458L197.523 21.7502ZM224.476 19.432H222.976V24.9675L225.771 20.1893L224.476 19.432ZM229.888 13.954L230.649 15.2469L230.658 15.2414L230.667 15.2358L229.888 13.954ZM237.412 11.908H238.912V10.408H237.412V11.908ZM237.412 21.874V23.374H238.912V21.874H237.412ZM224.476 49V50.5H225.976V49H224.476ZM215.17 49H213.67V50.5H215.17V49ZM215.17 12.436V10.936H213.67V12.436H215.17ZM224.476 12.436H225.976V10.936H224.476V12.436ZM225.771 20.1893C227.011 18.0699 228.634 16.4319 230.649 15.2469L229.128 12.6611C226.654 14.1161 224.67 16.1301 223.182 18.6747L225.771 20.1893ZM230.667 15.2358C232.663 14.0226 234.899 13.408 237.412 13.408V10.408C234.381 10.408 231.601 11.1574 229.109 12.6722L230.667 15.2358ZM235.912 11.908V21.874H238.912V11.908H235.912ZM237.412 20.374H234.706V23.374H237.412V20.374ZM234.706 20.374C231.091 20.374 228.101 21.2113 226.013 23.1511C223.904 25.1101 222.976 27.9493 222.976 31.378H225.976C225.976 28.4707 226.753 26.5579 228.055 25.3489C229.377 24.1207 231.501 23.374 234.706 23.374V20.374ZM222.976 31.378V49H225.976V31.378H222.976ZM224.476 47.5H215.17V50.5H224.476V47.5ZM216.67 49V12.436H213.67V49H216.67ZM215.17 13.936H224.476V10.936H215.17V13.936ZM222.976 12.436V19.432H225.976V12.436H222.976ZM264.805 14.152L263.979 15.4039V15.4039L264.805 14.152ZM269.491 20.026L268.086 20.5527L270.991 20.026H269.491ZM269.491 12.436V10.936H267.991V12.436H269.491ZM278.731 12.436H280.231V10.936H278.731V12.436ZM278.731 49V50.5H280.231V49H278.731ZM269.491 49H267.991V50.5H269.491V49ZM269.491 41.344H270.991L268.086 40.8173L269.491 41.344ZM264.805 47.284L265.631 48.5359L265.64 48.5302L265.648 48.5244L264.805 47.284ZM248.569 47.218L247.79 48.5002V48.5002L248.569 47.218ZM242.761 40.75L241.407 41.3957L241.413 41.4083L241.419 41.4208L242.761 40.75ZM242.761 20.752L241.415 20.0895L241.411 20.0981L242.761 20.752ZM248.569 14.218L249.347 15.5002L248.569 14.218ZM252.793 22.93L253.891 23.9517L252.793 22.93ZM252.793 38.506L251.695 39.5277L251.701 39.5341L251.707 39.5405L252.793 38.506ZM266.719 38.44L265.634 37.4043L265.633 37.4049L266.719 38.44ZM266.719 22.996L265.621 24.0186L265.633 24.0315L265.646 24.0441L266.719 22.996ZM256.885 13.474C259.722 13.474 262.063 14.1395 263.979 15.4039L265.631 12.9001C263.147 11.2605 260.208 10.474 256.885 10.474V13.474ZM263.979 15.4039C265.915 16.6816 267.274 18.386 268.086 20.5527L270.895 19.4993C269.86 16.738 268.095 14.5264 265.631 12.9001L263.979 15.4039ZM270.991 20.026V12.436H267.991V20.026H270.991ZM269.491 13.936H278.731V10.936H269.491V13.936ZM277.231 12.436V49H280.231V12.436H277.231ZM278.731 47.5H269.491V50.5H278.731V47.5ZM270.991 49V41.344H267.991V49H270.991ZM268.086 40.8173C267.272 42.9878 265.908 44.7198 263.961 46.0436L265.648 48.5244C268.102 46.8562 269.861 44.6282 270.895 41.8707L268.086 40.8173ZM263.979 46.0321C262.063 47.2965 259.722 47.962 256.885 47.962V50.962C260.208 50.962 263.147 50.1755 265.631 48.5359L263.979 46.0321ZM256.885 47.962C254.06 47.962 251.561 47.2795 249.347 45.9358L247.79 48.5002C250.505 50.1485 253.55 50.962 256.885 50.962V47.962ZM249.347 45.9358C247.147 44.5999 245.396 42.6666 244.103 40.0792L241.419 41.4208C242.942 44.4654 245.063 46.8441 247.79 48.5002L249.347 45.9358ZM244.115 40.1043C242.865 37.4836 242.215 34.3683 242.215 30.718H239.215C239.215 34.7237 239.929 38.2964 241.407 41.3957L244.115 40.1043ZM242.215 30.718C242.215 27.0668 242.865 23.9776 244.111 21.4059L241.411 20.0981C239.929 23.1584 239.215 26.7132 239.215 30.718H242.215ZM244.107 21.4145C245.402 18.7828 247.153 16.8324 249.347 15.5002L247.79 12.9358C245.057 14.5956 242.935 17.0012 241.415 20.0895L244.107 21.4145ZM249.347 15.5002C251.561 14.1565 254.06 13.474 256.885 13.474V10.474C253.55 10.474 250.505 11.2875 247.79 12.9358L249.347 15.5002ZM259.789 18.592C256.525 18.592 253.775 19.6719 251.695 21.9083L253.891 23.9517C255.331 22.4041 257.245 21.592 259.789 21.592V18.592ZM251.695 21.9083C249.611 24.1485 248.653 27.1479 248.653 30.718H251.653C251.653 27.6881 252.455 25.4955 253.891 23.9517L251.695 21.9083ZM248.653 30.718C248.653 34.2881 249.611 37.2875 251.695 39.5277L253.891 37.4843C252.455 35.9405 251.653 33.7479 251.653 30.718H248.653ZM251.707 39.5405C253.79 41.7279 256.536 42.778 259.789 42.778V39.778C257.233 39.778 255.316 38.9801 253.879 37.4715L251.707 39.5405ZM259.789 42.778C262.98 42.778 265.694 41.6886 267.804 39.4751L265.633 37.4049C264.136 38.9754 262.23 39.778 259.789 39.778V42.778ZM267.804 39.4757C269.97 37.2065 270.991 34.2337 270.991 30.718H267.991C267.991 33.6263 267.164 35.8015 265.634 37.4043L267.804 39.4757ZM270.991 30.718C270.991 27.166 269.974 24.1819 267.792 21.9479L265.646 24.0441C267.16 25.5941 267.991 27.758 267.991 30.718H270.991ZM267.816 21.9734C265.709 19.7117 262.991 18.592 259.789 18.592V21.592C262.219 21.592 264.121 22.4083 265.621 24.0186L267.816 21.9734Z" fill="url(#paint0_linear_338_9719)"/>
<defs>
<linearGradient id="paint0_linear_338_9719" x1="95.728" y1="25.5" x2="199.338" y2="105.833" gradientUnits="userSpaceOnUse">
<stop stop-color="#2465FF" stop-opacity="0.9"/>
<stop offset="0.62938" stop-color="#BB4CFF" stop-opacity="0.453125"/>
<stop offset="1" stop-color="#D68AD3" stop-opacity="0.587575"/>
</linearGradient>
</defs>
</svg>
