<svg width="1020" height="330" viewBox="0 0 102 33" fill="none" xmlns="http://www.w3.org/2000/svg">
<g clip-path="url(#clip0_313_715)">
<path fill-rule="evenodd" clip-rule="evenodd" d="M71.22 11.345C75.129 11.345 78.297 14.548 78.297 18.5C78.297 22.452 75.129 25.655 71.221 25.655C67.313 25.655 64.144 22.452 64.144 18.5C64.144 14.548 67.313 11.345 71.221 11.345H71.22ZM27.345 12.954V11.79H29.953V25.21H27.345V24.046C26.0883 25.0866 24.5076 25.6554 22.876 25.654C18.968 25.654 15.8 22.451 15.8 18.5C15.8 14.549 18.968 11.346 22.876 11.346C24.571 11.346 26.126 11.948 27.346 12.954H27.345ZM99.392 11.79H102V25.21H99.392V24.046C98.1356 25.0864 96.5552 25.6552 94.924 25.654C91.014 25.654 87.847 22.451 87.847 18.5C87.847 14.549 91.015 11.346 94.924 11.346C96.618 11.346 98.174 11.948 99.392 12.954V11.79ZM82.932 12.641C85.01 11.297 87.47 11.37 87.47 11.37V14.232C87.47 14.232 82.932 13.988 82.932 18.44V25.21H80.1V18.44C80.1 15.36 81.413 13.624 82.93 12.642L82.932 12.641ZM43.386 12.776C44.2679 13.4466 44.9824 14.3124 45.4734 15.3056C45.9644 16.2987 46.2186 17.3921 46.216 18.5V25.21H43.386V18.5C43.386 16.133 41.481 14.207 39.14 14.207C36.799 14.207 34.894 16.133 34.894 18.5V25.21H32.063V18.5C32.0604 17.3921 32.3146 16.2987 32.8056 15.3056C33.2966 14.3124 34.0111 13.4466 34.893 12.776C36.1134 11.8463 37.6058 11.3438 39.14 11.346C40.733 11.346 42.203 11.878 43.386 12.776ZM59.649 8.818C59.65 8.09 60.233 7.5 60.954 7.5H62.257V25.21H59.65V24.046C58.3936 25.0864 56.8132 25.6552 55.182 25.654C51.272 25.654 48.104 22.451 48.104 18.5C48.104 14.549 51.273 11.346 55.182 11.346C56.876 11.346 58.432 11.948 59.65 12.954V8.818H59.649ZM7.077 11.346C10.986 11.346 14.154 14.549 14.154 18.5C14.154 22.451 10.986 25.654 7.077 25.654C5.44509 25.6556 3.86393 25.0868 2.607 24.046V28.182C2.607 28.91 2.024 29.5 1.303 29.5H0V11.79H2.608V12.954C3.86493 11.9132 5.44609 11.3444 7.078 11.346H7.077ZM6.92 22.952C9.348 22.952 11.323 20.954 11.323 18.5C11.323 16.046 9.348 14.048 6.92 14.048C4.491 14.048 2.517 16.046 2.517 18.5C2.517 20.954 4.491 22.952 6.92 22.952ZM55.337 22.952C57.766 22.952 59.741 20.954 59.741 18.5C59.741 16.046 57.766 14.048 55.337 14.048C52.909 14.048 50.934 16.046 50.934 18.5C50.934 20.954 52.909 22.952 55.337 22.952ZM95.081 22.952C97.509 22.952 99.484 20.955 99.484 18.5C99.484 16.046 97.509 14.048 95.081 14.048C92.652 14.048 90.678 16.046 90.678 18.5C90.678 20.955 92.652 22.952 95.081 22.952ZM23.033 22.952C25.461 22.952 27.436 20.955 27.436 18.5C27.436 16.046 25.461 14.048 23.033 14.048C20.604 14.048 18.63 16.046 18.63 18.5C18.63 20.955 20.604 22.952 23.033 22.952ZM71.221 22.792C73.562 22.792 75.467 20.867 75.467 18.5C75.467 16.133 73.562 14.207 71.221 14.207C68.879 14.207 66.975 16.133 66.975 18.5C66.975 20.867 68.879 22.793 71.221 22.793V22.792Z" fill="white"/>
</g>
<defs>
<clipPath id="clip0_313_715">
<rect width="102" height="22" fill="white" transform="translate(0 7.5)"/>
</clipPath>
</defs>
</svg>
