<svg width="24" height="18" viewBox="0 0 24 18" fill="none" xmlns="http://www.w3.org/2000/svg">
<path d="M21 0.428574H3C2.20574 0.433074 1.44529 0.750589 0.883652 1.31223C0.322016 1.87386 0.00450017 2.63431 0 3.42857L0 14.5714C0.00450017 15.3657 0.322016 16.1261 0.883652 16.6878C1.44529 17.2494 2.20574 17.5669 3 17.5714H21C21.7943 17.5669 22.5547 17.2494 23.1163 16.6878C23.678 16.1261 23.9955 15.3657 24 14.5714V3.42857C23.9955 2.63431 23.678 1.87386 23.1163 1.31223C22.5547 0.750589 21.7943 0.433074 21 0.428574ZM20.1429 15H18.4286C18.0876 15 17.7606 14.8645 17.5194 14.6234C17.2783 14.3823 17.1429 14.0553 17.1429 13.7143C17.1429 13.3733 17.2783 13.0463 17.5194 12.8052C17.7606 12.564 18.0876 12.4286 18.4286 12.4286H20.1429C20.4839 12.4286 20.8109 12.564 21.052 12.8052C21.2931 13.0463 21.4286 13.3733 21.4286 13.7143C21.4286 14.0553 21.2931 14.3823 21.052 14.6234C20.8109 14.8645 20.4839 15 20.1429 15ZM21.4286 6.85714C21.4241 7.19676 21.2872 7.52121 21.0471 7.76137C20.8069 8.00153 20.4825 8.13842 20.1429 8.14286H3.85714C3.51753 8.13842 3.19308 8.00153 2.95292 7.76137C2.71275 7.52121 2.57587 7.19676 2.57143 6.85714V6C2.57587 5.66039 2.71275 5.33594 2.95292 5.09577C3.19308 4.85561 3.51753 4.71873 3.85714 4.71429H20.1429C20.4825 4.71873 20.8069 4.85561 21.0471 5.09577C21.2872 5.33594 21.4241 5.66039 21.4286 6V6.85714Z" fill="url(#paint0_linear_301_1583)"/>
<defs>
<linearGradient id="paint0_linear_301_1583" x1="1.68401" y1="5.06831" x2="36.9621" y2="4.8752" gradientUnits="userSpaceOnUse">
<stop stop-color="#2465FF" stop-opacity="0.9"/>
<stop offset="0.62938" stop-color="#BB4CFF" stop-opacity="0.453125"/>
<stop offset="1" stop-color="#D68AD3" stop-opacity="0.587575"/>
</linearGradient>
</defs>
</svg>
