<svg width="405" height="50" viewBox="0 -1 405 53" fill="none" xmlns="http://www.w3.org/2000/svg">
<path d="M32.4432 42.862L33.7295 43.6337L33.7332 43.6275L33.7368 43.6213L32.4432 42.862ZM27.1632 47.68L27.8441 49.0166L27.854 49.0115L27.8639 49.0063L27.1632 47.68ZM9.80521 47.812L9.20032 49.1846L9.21012 49.1889L9.21999 49.1931L9.80521 47.812ZM3.53521 42.928L2.3232 43.8118L2.32915 43.8199L2.33521 43.828L3.53521 42.928ZM0.895211 35.536V34.036H-0.726547L-0.600232 35.6528L0.895211 35.536ZM10.7952 35.536L12.2852 35.3627L12.1309 34.036H10.7952V35.536ZM13.0392 40.288L11.9786 41.3487L11.9968 41.3669L12.0157 41.3846L13.0392 40.288ZM22.6752 40.618L21.6146 39.5573L22.6752 40.618ZM23.0052 33.028L21.87 34.0084L21.8813 34.0215L21.8929 34.0344L23.0052 33.028ZM19.8372 30.718L20.4508 29.3492H20.4508L19.8372 30.718ZM14.5572 28.738L14.0829 30.161L14.5572 28.738ZM7.42921 25.9L6.7332 27.2287L6.74574 27.2353L6.75839 27.2416L7.42921 25.9ZM2.67721 21.742L1.45259 22.6082L1.45955 22.618L1.46667 22.6278L2.67721 21.742ZM5.05321 5.242L5.99026 6.4133L5.99241 6.41157L5.05321 5.242ZM28.2852 5.308L27.3353 6.46896L27.3439 6.47589L28.2852 5.308ZM33.3012 14.812V16.312H34.9587L34.7938 14.6627L33.3012 14.812ZM23.2692 14.812L21.7876 15.0459L21.9875 16.312H23.2692V14.812ZM21.1572 10.72L20.1175 11.8012L20.1286 11.8118L20.1398 11.8222L21.1572 10.72ZM12.3132 10.456L13.2735 11.6083L13.2874 11.5968L13.301 11.5849L12.3132 10.456ZM11.9172 17.782L10.7783 18.7582L10.8033 18.7873L10.8297 18.8151L11.9172 17.782ZM15.0192 19.96L14.3875 21.3205L14.3966 21.3247L14.4056 21.3288L15.0192 19.96ZM20.1672 21.874L20.6664 20.4595L20.6497 20.4536L20.6328 20.4481L20.1672 21.874ZM27.4272 24.844L26.7564 26.1857L26.769 26.1918L27.4272 24.844ZM32.2452 29.002L33.4658 28.1301H33.4658L32.2452 29.002ZM32.7252 36.262C32.7252 38.3745 32.2007 40.3119 31.1496 42.1027L33.7368 43.6213C35.0617 41.3641 35.7252 38.9015 35.7252 36.262H32.7252ZM31.157 42.0903C30.129 43.8035 28.5875 45.2311 26.4625 46.3537L27.8639 49.0063C30.4029 47.6649 32.3814 45.8805 33.7295 43.6337L31.157 42.0903ZM26.4823 46.3434C24.4116 47.3984 21.8204 47.962 18.6492 47.962V50.962C22.1661 50.962 25.2509 50.3376 27.8441 49.0166L26.4823 46.3434ZM18.6492 47.962C15.5165 47.962 12.7725 47.4402 10.3904 46.4309L9.21999 49.1931C12.0299 50.3838 15.182 50.962 18.6492 50.962V47.962ZM10.4101 46.4394C8.03162 45.3912 6.15323 43.9187 4.73521 42.028L2.33521 43.828C4.08519 46.1613 6.3868 47.9448 9.20032 49.1846L10.4101 46.4394ZM4.74722 42.0442C3.38408 40.1748 2.59083 37.9814 2.39065 35.4192L-0.600232 35.6528C-0.360406 38.7226 0.606346 41.4572 2.3232 43.8118L4.74722 42.0442ZM0.895211 37.036H10.7952V34.036H0.895211V37.036ZM9.30525 35.7093C9.56196 37.9169 10.4497 39.8198 11.9786 41.3487L14.0999 39.2273C13.0767 38.2042 12.4685 36.9391 12.2852 35.3627L9.30525 35.7093ZM12.0157 41.3846C13.6658 42.9247 15.7955 43.636 18.2532 43.636V40.636C16.3989 40.636 15.0526 40.1153 14.0627 39.1914L12.0157 41.3846ZM18.2532 43.636C20.4428 43.636 22.3548 43.0597 23.7359 41.6787L21.6146 39.5573C20.9716 40.2003 19.9356 40.636 18.2532 40.636V43.636ZM23.7359 41.6787C25.0999 40.3146 25.7592 38.5783 25.7592 36.592H22.7592C22.7592 37.8617 22.3625 38.8094 21.6146 39.5573L23.7359 41.6787ZM25.7592 36.592C25.7592 34.8335 25.2437 33.2663 24.1175 32.0216L21.8929 34.0344C22.4387 34.6376 22.7592 35.4465 22.7592 36.592H25.7592ZM24.1404 32.0476C23.1481 30.8985 21.9081 30.0025 20.4508 29.3492L19.2236 32.0868C20.3183 32.5775 21.1903 33.2215 21.87 34.0084L24.1404 32.0476ZM20.4508 29.3492C19.1089 28.7477 17.2954 28.0696 15.0316 27.315L14.0829 30.161C16.3071 30.9024 18.0135 31.5443 19.2236 32.0868L20.4508 29.3492ZM15.0316 27.315C12.1661 26.3598 9.86222 25.4394 8.10003 24.5584L6.75839 27.2416C8.69221 28.2085 11.1403 29.1802 14.0829 30.161L15.0316 27.315ZM8.12522 24.5713C6.49467 23.7172 5.08225 22.4887 3.88776 20.8562L1.46667 22.6278C2.91217 24.6033 4.66775 26.1468 6.7332 27.2287L8.12522 24.5713ZM3.90183 20.8758C2.85372 19.394 2.26321 17.3704 2.26321 14.68H-0.736789C-0.736789 17.7976 -0.0512969 20.482 1.45259 22.6082L3.90183 20.8758ZM2.26321 14.68C2.26321 11.0831 3.52233 8.38764 5.99025 6.4133L4.11617 4.07069C0.864093 6.67236 -0.736789 10.2689 -0.736789 14.68H2.26321ZM5.99241 6.41157C8.56392 4.34657 12.031 3.244 16.5372 3.244V0.243999C11.5395 0.243999 7.3505 1.47343 4.11401 4.07242L5.99241 6.41157ZM16.5372 3.244C21.2285 3.244 24.7734 4.37276 27.3354 6.46893L29.2351 4.14706C25.9891 1.49124 21.702 0.243999 16.5372 0.243999V3.244ZM27.3439 6.47589C29.9618 8.58584 31.4503 11.3781 31.8087 14.9613L34.7938 14.6627C34.3601 10.3259 32.5046 6.78216 29.2265 4.1401L27.3439 6.47589ZM33.3012 13.312H23.2692V16.312H33.3012V13.312ZM24.7509 14.5781C24.4391 12.6037 23.5888 10.9232 22.1746 9.61779L20.1398 11.8222C21.0136 12.6288 21.5713 13.6763 21.7876 15.0459L24.7509 14.5781ZM22.1969 9.63875C20.7083 8.20747 18.738 7.57 16.4712 7.57V10.57C18.1644 10.57 19.3181 11.0325 20.1175 11.8012L22.1969 9.63875ZM16.4712 7.57C14.4764 7.57 12.7124 8.11355 11.3255 9.32713L13.301 11.5849C14.026 10.9504 15.0341 10.57 16.4712 10.57V7.57ZM11.3529 9.30367C9.87212 10.5377 9.22921 12.3092 9.22921 14.35H12.2292C12.2292 12.9588 12.6423 12.1343 13.2735 11.6083L11.3529 9.30367ZM9.22921 14.35C9.22921 16.0259 9.7249 17.5292 10.7783 18.7582L13.0561 16.8058C12.5255 16.1868 12.2292 15.4021 12.2292 14.35H9.22921ZM10.8297 18.8151C11.8103 19.8473 13.0047 20.6785 14.3875 21.3205L15.6509 18.5995C14.5698 18.0975 13.6961 17.4767 13.0047 16.7489L10.8297 18.8151ZM14.4056 21.3288C15.7501 21.9315 17.5221 22.5882 19.7016 23.2999L20.6328 20.4481C18.5004 19.7518 16.8403 19.1325 15.6328 18.5912L14.4056 21.3288ZM19.668 23.2885C22.6288 24.3335 24.9851 25.3 26.7564 26.1856L28.098 23.5024C26.1733 22.54 23.6896 21.5265 20.6664 20.4595L19.668 23.2885ZM26.769 26.1918C28.4194 26.9979 29.8379 28.2124 31.0246 29.8739L33.4658 28.1301C32.0126 26.0956 30.219 24.5381 28.0855 23.4961L26.769 26.1918ZM31.0246 29.8739C32.113 31.3976 32.7252 33.4842 32.7252 36.262H35.7252C35.7252 33.0558 35.0174 30.3024 33.4658 28.1301L31.0246 29.8739ZM67.5464 14.218L66.8427 15.5427L66.8512 15.5471L67.5464 14.218ZM74.2785 20.752L72.9748 21.4941L72.9798 21.5028L74.2785 20.752ZM74.2785 40.684L75.577 41.4348L74.2785 40.684ZM67.5464 47.218L68.2502 48.5427L68.2576 48.5387L67.5464 47.218ZM48.3404 47.218L47.6207 48.5341L47.6329 48.5407L47.6452 48.5471L48.3404 47.218ZM41.6744 40.684L40.3758 41.4348L41.6744 40.684ZM41.6744 20.752L42.9731 21.5028L42.978 21.494L41.6744 20.752ZM48.3404 14.218L47.6452 12.8888L47.6367 12.8933L48.3404 14.218ZM51.3764 22.798L52.4371 23.8587L52.4435 23.8523L52.4498 23.8458L51.3764 22.798ZM51.3764 38.704L50.3031 39.7518L50.3094 39.7583L50.3158 39.7647L51.3764 38.704ZM64.5764 38.704L65.6371 39.7647L65.6435 39.7583L65.6498 39.7518L64.5764 38.704ZM64.5764 22.798L63.5031 23.8458L63.5094 23.8523L63.5158 23.8587L64.5764 22.798ZM57.9764 13.474C61.3244 13.474 64.2679 14.1748 66.8427 15.5427L68.2502 12.8933C65.193 11.2692 61.7565 10.474 57.9764 10.474V13.474ZM66.8512 15.5471C69.4511 16.9071 71.4862 18.8788 72.9749 21.494L75.582 20.0099C73.8147 16.9052 71.3618 14.5209 68.2417 12.8889L66.8512 15.5471ZM72.9798 21.5028C74.4542 24.0531 75.2204 27.1066 75.2204 30.718H78.2204C78.2204 26.6734 77.3587 23.0829 75.577 20.0012L72.9798 21.5028ZM75.2204 30.718C75.2204 34.3293 74.4542 37.3829 72.9798 39.9332L75.577 41.4348C77.3587 38.3531 78.2204 34.7626 78.2204 30.718H75.2204ZM72.9798 39.9332C71.4908 42.5088 69.4501 44.4893 66.8353 45.8973L68.2576 48.5387C71.3628 46.8667 73.8101 44.4912 75.577 41.4348L72.9798 39.9332ZM66.8427 45.8933C64.2679 47.2612 61.3244 47.962 57.9764 47.962V50.962C61.7565 50.962 65.193 50.1668 68.2502 48.5427L66.8427 45.8933ZM57.9764 47.962C54.6289 47.962 51.6595 47.2613 49.0357 45.8889L47.6452 48.5471C50.7414 50.1667 54.196 50.962 57.9764 50.962V47.962ZM49.0602 45.9019C46.4887 44.4957 44.4655 42.5147 42.973 39.9332L40.3758 41.4348C42.1394 44.4853 44.5602 46.8603 47.6207 48.5341L49.0602 45.9019ZM42.973 39.9332C41.4986 37.3829 40.7324 34.3293 40.7324 30.718H37.7324C37.7324 34.7626 38.5942 38.3531 40.3758 41.4348L42.973 39.9332ZM40.7324 30.718C40.7324 27.1066 41.4986 24.0531 42.973 21.5028L40.3758 20.0012C38.5942 23.0829 37.7324 26.6734 37.7324 30.718H40.7324ZM42.978 21.494C44.4701 18.8728 46.4877 16.9008 49.0442 15.5427L47.6367 12.8933C44.5612 14.5272 42.1348 16.9112 40.3708 20.0099L42.978 21.494ZM49.0357 15.5471C51.6595 14.1747 54.6289 13.474 57.9764 13.474V10.474C54.196 10.474 50.7414 11.2693 47.6452 12.8889L49.0357 15.5471ZM57.9764 18.526C54.9787 18.526 52.391 19.6113 50.3031 21.7502L52.4498 23.8458C53.9699 22.2887 55.7822 21.526 57.9764 21.526V18.526ZM50.3158 21.7373C48.1408 23.9123 47.1704 26.992 47.1704 30.718H50.1704C50.1704 27.492 51.0041 25.2917 52.4371 23.8587L50.3158 21.7373ZM47.1704 30.718C47.1704 34.4466 48.1418 37.5378 50.3031 39.7518L52.4498 37.6562C51.0031 36.1742 50.1704 33.9414 50.1704 30.718H47.1704ZM50.3158 39.7647C52.4066 41.8555 54.9905 42.91 57.9764 42.91V39.91C55.7704 39.91 53.9543 39.1605 52.4371 37.6433L50.3158 39.7647ZM57.9764 42.91C60.9624 42.91 63.5463 41.8555 65.6371 39.7647L63.5158 37.6433C61.9986 39.1605 60.1825 39.91 57.9764 39.91V42.91ZM65.6498 39.7518C67.8111 37.5378 68.7824 34.4466 68.7824 30.718H65.7824C65.7824 33.9414 64.9498 36.1742 63.5031 37.6562L65.6498 39.7518ZM68.7824 30.718C68.7824 26.992 67.8121 23.9123 65.6371 21.7373L63.5158 23.8587C64.9488 25.2917 65.7824 27.492 65.7824 30.718H68.7824ZM65.6498 21.7502C63.5619 19.6113 60.9742 18.526 57.9764 18.526V21.526C60.1707 21.526 61.983 22.2887 63.5031 23.8458L65.6498 21.7502ZM118.277 12.436H119.777V10.936H118.277V12.436ZM118.277 49V50.5H119.777V49H118.277ZM108.971 49H107.471V50.5H108.971V49ZM108.971 41.608H110.471L107.575 41.0595L108.971 41.608ZM104.153 47.416L104.944 48.6909L104.95 48.6866L104.153 47.416ZM86.3992 45.304L87.5115 44.2976L86.3992 45.304ZM82.6372 12.436V10.936H81.1372V12.436H82.6372ZM91.8772 12.436H93.3772V10.936H91.8772V12.436ZM94.1212 39.43L93.0168 40.4449L93.0237 40.4525L93.0307 40.4599L94.1212 39.43ZM106.595 39.232L107.697 40.2494L106.595 39.232ZM108.971 12.436V10.936H107.471V12.436H108.971ZM116.777 12.436V49H119.777V12.436H116.777ZM118.277 47.5H108.971V50.5H118.277V47.5ZM110.471 49V41.608H107.471V49H110.471ZM107.575 41.0595C106.724 43.2248 105.329 44.9078 103.356 46.1454L104.95 48.6866C107.466 47.1082 109.282 44.9193 110.367 42.1565L107.575 41.0595ZM103.363 46.1411C101.428 47.3406 99.1569 47.962 96.4972 47.962V50.962C99.6455 50.962 102.478 50.2194 104.944 48.6909L103.363 46.1411ZM96.4972 47.962C92.6361 47.962 89.6966 46.7127 87.5115 44.2976L85.2869 46.3104C88.1178 49.4393 91.9104 50.962 96.4972 50.962V47.962ZM87.5115 44.2976C85.3259 41.8819 84.1372 38.4131 84.1372 33.688H81.1372C81.1372 38.9069 82.4566 43.1821 85.2869 46.3104L87.5115 44.2976ZM84.1372 33.688V12.436H81.1372V33.688H84.1372ZM82.6372 13.936H91.8772V10.936H82.6372V13.936ZM90.3772 12.436V32.632H93.3772V12.436H90.3772ZM90.3772 32.632C90.3772 35.7911 91.195 38.4624 93.0168 40.4449L95.2257 38.4151C94.0555 37.1416 93.3772 35.2809 93.3772 32.632H90.3772ZM93.0307 40.4599C94.8589 42.3957 97.3055 43.306 100.193 43.306V40.306C97.977 40.306 96.3756 39.6323 95.2118 38.4001L93.0307 40.4599ZM100.193 43.306C103.227 43.306 105.786 42.3201 107.697 40.2494L105.493 38.2146C104.236 39.5759 102.527 40.306 100.193 40.306V43.306ZM107.697 40.2494C109.62 38.1667 110.471 35.2862 110.471 31.84H107.471C107.471 34.8178 106.739 36.8653 105.493 38.2146L107.697 40.2494ZM110.471 31.84V12.436H107.471V31.84H110.471ZM108.971 13.936H118.277V10.936H108.971V13.936ZM158.617 16.066L159.729 15.0596L158.617 16.066ZM162.379 49V50.5H163.879V49H162.379ZM153.139 49H151.639V50.5H153.139V49ZM150.895 22.072L149.79 23.0869L149.797 23.0945L149.804 23.1019L150.895 22.072ZM136.045 49V50.5H137.545V49H136.045ZM126.739 49H125.239V50.5H126.739V49ZM126.739 12.436V10.936H125.239V12.436H126.739ZM136.045 12.436H137.545V10.936H136.045V12.436ZM136.045 19.762H134.545L137.441 20.3105L136.045 19.762ZM140.797 14.02L141.587 15.2949L141.594 15.2906L140.797 14.02ZM148.519 13.408C152.38 13.408 155.319 14.6573 157.504 17.0724L159.729 15.0596C156.898 11.9307 153.105 10.408 148.519 10.408V13.408ZM157.504 17.0724C159.688 19.4859 160.879 22.9748 160.879 27.748H163.879C163.879 22.4892 162.561 18.1901 159.729 15.0596L157.504 17.0724ZM160.879 27.748V49H163.879V27.748H160.879ZM162.379 47.5H153.139V50.5H162.379V47.5ZM154.639 49V28.804H151.639V49H154.639ZM154.639 28.804C154.639 25.6476 153.822 22.9868 151.985 21.0421L149.804 23.1019C150.959 24.3252 151.639 26.1524 151.639 28.804H154.639ZM151.999 21.0571C150.169 19.0657 147.693 18.13 144.757 18.13V21.13C147.013 21.13 148.628 21.8223 149.79 23.0869L151.999 21.0571ZM144.757 18.13C141.758 18.13 139.225 19.1213 137.318 21.1866L139.523 23.2214C140.784 21.8547 142.475 21.13 144.757 21.13V18.13ZM137.318 21.1866C135.396 23.2693 134.545 26.1498 134.545 29.596H137.545C137.545 26.6182 138.277 24.5707 139.523 23.2214L137.318 21.1866ZM134.545 29.596V49H137.545V29.596H134.545ZM136.045 47.5H126.739V50.5H136.045V47.5ZM128.239 49V12.436H125.239V49H128.239ZM126.739 13.936H136.045V10.936H126.739V13.936ZM134.545 12.436V19.762H137.545V12.436H134.545ZM137.441 20.3105C138.293 18.1402 139.669 16.4843 141.587 15.2949L140.006 12.7451C137.525 14.2837 135.732 16.4558 134.649 19.2135L137.441 20.3105ZM141.594 15.2906C143.576 14.0468 145.869 13.408 148.519 13.408V10.408C145.361 10.408 142.505 11.1772 139.999 12.7494L141.594 15.2906ZM192.743 14.152L191.905 15.3962L191.917 15.4039L192.743 14.152ZM197.495 20.026L196.099 20.5745L198.995 20.026H197.495ZM197.495 0.16V-1.34H195.995V0.16H197.495ZM206.735 0.16H208.235V-1.34H206.735V0.16ZM206.735 49V50.5H208.235V49H206.735ZM197.495 49H195.995V50.5H197.495V49ZM197.495 41.344H198.995L196.099 40.7955L197.495 41.344ZM192.743 47.284L193.581 48.5282L193.586 48.5244L192.743 47.284ZM176.573 47.218L175.794 48.5002V48.5002L176.573 47.218ZM170.765 40.75L169.411 41.3957L169.417 41.4083L169.423 41.4208L170.765 40.75ZM170.765 20.752L169.419 20.0895L169.415 20.0981L170.765 20.752ZM176.573 14.218L177.351 15.5002L176.573 14.218ZM180.797 22.93L181.895 23.9517L180.797 22.93ZM180.797 38.506L179.699 39.5277L179.704 39.5341L179.711 39.5405L180.797 38.506ZM194.723 38.44L193.638 37.4043L193.637 37.4049L194.723 38.44ZM194.723 22.996L193.625 24.0186L193.637 24.0315L193.65 24.0441L194.723 22.996ZM184.889 13.474C187.727 13.474 190.039 14.1398 191.905 15.3962L193.581 12.9078C191.134 11.2602 188.211 10.474 184.889 10.474V13.474ZM191.917 15.4039C193.857 16.6849 195.243 18.3967 196.099 20.5745L198.891 19.4775C197.81 16.7273 196.028 14.5231 193.569 12.9001L191.917 15.4039ZM198.995 20.026V0.16H195.995V20.026H198.995ZM197.495 1.66H206.735V-1.34H197.495V1.66ZM205.235 0.16V49H208.235V0.16H205.235ZM206.735 47.5H197.495V50.5H206.735V47.5ZM198.995 49V41.344H195.995V49H198.995ZM196.099 40.7955C195.242 42.977 193.851 44.7165 191.899 46.0436L193.586 48.5244C196.035 46.8595 197.812 44.639 198.891 41.8925L196.099 40.7955ZM191.905 46.0398C190.039 47.2962 187.727 47.962 184.889 47.962V50.962C188.211 50.962 191.134 50.1758 193.581 48.5282L191.905 46.0398ZM184.889 47.962C182.064 47.962 179.564 47.2795 177.351 45.9358L175.794 48.5002C178.509 50.1485 181.554 50.962 184.889 50.962V47.962ZM177.351 45.9358C175.151 44.5999 173.4 42.6666 172.106 40.0792L169.423 41.4208C170.945 44.4654 173.067 46.8441 175.794 48.5002L177.351 45.9358ZM172.119 40.1043C170.869 37.4836 170.219 34.3683 170.219 30.718H167.219C167.219 34.7237 167.933 38.2964 169.411 41.3957L172.119 40.1043ZM170.219 30.718C170.219 27.0668 170.869 23.9776 172.115 21.4059L169.415 20.0981C167.932 23.1584 167.219 26.7132 167.219 30.718H170.219ZM172.111 21.4145C173.406 18.7828 175.157 16.8324 177.351 15.5002L175.794 12.9358C173.061 14.5956 170.939 17.0012 169.419 20.0895L172.111 21.4145ZM177.351 15.5002C179.564 14.1565 182.064 13.474 184.889 13.474V10.474C181.554 10.474 178.509 11.2875 175.794 12.9358L177.351 15.5002ZM187.793 18.592C184.529 18.592 181.779 19.6719 179.698 21.9083L181.895 23.9517C183.335 22.4041 185.248 21.592 187.793 21.592V18.592ZM179.699 21.9083C177.615 24.1485 176.657 27.1479 176.657 30.718H179.657C179.657 27.6881 180.459 25.4955 181.895 23.9517L179.699 21.9083ZM176.657 30.718C176.657 34.2881 177.615 37.2875 179.699 39.5277L181.895 37.4843C180.459 35.9405 179.657 33.7479 179.657 30.718H176.657ZM179.711 39.5405C181.794 41.7279 184.54 42.778 187.793 42.778V39.778C185.237 39.778 183.32 38.9801 181.883 37.4715L179.711 39.5405ZM187.793 42.778C190.984 42.778 193.698 41.6886 195.808 39.4751L193.637 37.4049C192.14 38.9754 190.234 39.778 187.793 39.778V42.778ZM195.808 39.4757C197.974 37.2065 198.995 34.2337 198.995 30.718H195.995C195.995 33.6263 195.168 35.8015 193.638 37.4043L195.808 39.4757ZM198.995 30.718C198.995 27.166 197.978 24.1819 195.796 21.9479L193.65 24.0441C195.164 25.5941 195.995 27.758 195.995 30.718H198.995ZM195.82 21.9734C193.713 19.7117 190.995 18.592 187.793 18.592V21.592C190.223 21.592 192.125 22.4083 193.625 24.0186L195.82 21.9734ZM250.676 6.43L251.6 5.24817L250.676 6.43ZM258.266 18.64V20.14H260.168L259.725 18.2909L258.266 18.64ZM248.498 18.64L247.107 19.2013L247.486 20.14H248.498V18.64ZM243.746 12.7L242.897 13.9361L242.902 13.9401L242.908 13.9442L243.746 12.7ZM229.424 12.37L228.632 11.0964L229.424 12.37ZM224.804 17.65L223.452 17.0001L224.804 17.65ZM229.424 38.968L228.632 40.2416L229.424 38.968ZM243.746 38.638L242.908 37.3938L242.902 37.3979L242.897 37.4019L243.746 38.638ZM248.498 32.698V31.198H247.486L247.107 32.1367L248.498 32.698ZM258.266 32.698L259.725 33.0471L260.168 31.198H258.266V32.698ZM250.676 44.908L251.6 46.0898V46.0898L250.676 44.908ZM224.408 46.426L223.639 47.7137L223.649 47.7196L223.659 47.7253L224.408 46.426ZM216.488 37.978L215.153 38.6618L215.157 38.6682L215.16 38.6746L216.488 37.978ZM216.488 13.36L215.16 12.6634L215.157 12.6698L215.153 12.6762L216.488 13.36ZM224.408 4.978L225.165 6.27305L225.171 6.26941L225.178 6.26571L224.408 4.978ZM236.222 3.442C241.763 3.442 246.237 4.86414 249.753 7.61183L251.6 5.24817C247.459 2.01185 242.297 0.441996 236.222 0.441996V3.442ZM249.753 7.61183C253.289 10.3757 255.647 14.1397 256.808 18.9891L259.725 18.2909C258.422 12.8443 255.72 8.46831 251.6 5.24817L249.753 7.61183ZM258.266 17.14H248.498V20.14H258.266V17.14ZM249.889 18.0787C248.77 15.3049 246.999 13.0822 244.584 11.4558L242.908 13.9442C244.806 15.2218 246.203 16.9591 247.107 19.2013L249.889 18.0787ZM244.596 11.4639C242.194 9.81268 239.334 9.022 236.09 9.022V12.022C238.831 12.022 241.074 12.6833 242.897 13.9361L244.596 11.4639ZM236.09 9.022C233.363 9.022 230.863 9.70791 228.632 11.0964L230.217 13.6436C231.945 12.5681 233.89 12.022 236.09 12.022V9.022ZM228.632 11.0964C226.389 12.4922 224.665 14.4789 223.452 17.0001L226.156 18.2999C227.144 16.2451 228.5 14.7118 230.217 13.6436L228.632 11.0964ZM223.452 17.0001C222.236 19.5295 221.654 22.4442 221.654 25.702H224.654C224.654 22.7998 225.172 20.3465 226.156 18.2999L223.452 17.0001ZM221.654 25.702C221.654 28.9195 222.238 31.8112 223.452 34.3379L226.156 33.0381C225.171 30.9888 224.654 28.5565 224.654 25.702H221.654ZM223.452 34.3379C224.665 36.8591 226.389 38.8458 228.632 40.2416L230.217 37.6944C228.5 36.6262 227.144 35.0929 226.156 33.0381L223.452 34.3379ZM228.632 40.2416C230.863 41.6301 233.363 42.316 236.09 42.316V39.316C233.89 39.316 231.945 38.7699 230.217 37.6944L228.632 40.2416ZM236.09 42.316C239.334 42.316 242.194 41.5253 244.596 39.8741L242.897 37.4019C241.074 38.6547 238.831 39.316 236.09 39.316V42.316ZM244.584 39.8822C246.999 38.2558 248.77 36.0331 249.889 33.2593L247.107 32.1367C246.203 34.3789 244.806 36.1162 242.908 37.3938L244.584 39.8822ZM248.498 34.198H258.266V31.198H248.498V34.198ZM256.808 32.3489C255.647 37.1983 253.289 40.9623 249.753 43.7262L251.6 46.0898C255.72 42.8697 258.422 38.4937 259.725 33.0471L256.808 32.3489ZM249.753 43.7262C246.237 46.4739 241.763 47.896 236.222 47.896V50.896C242.297 50.896 247.459 49.3261 251.6 46.0898L249.753 43.7262ZM236.222 47.896C232.009 47.896 228.335 46.9598 225.158 45.1267L223.659 47.7253C227.345 49.8522 231.548 50.896 236.222 50.896V47.896ZM225.178 45.1383C222.035 43.2608 219.585 40.6529 217.817 37.2814L215.16 38.6746C217.176 42.5191 220.006 45.5432 223.639 47.7137L225.178 45.1383ZM217.823 37.2942C216.097 33.9237 215.216 30.0711 215.216 25.702H212.216C212.216 30.4849 213.184 34.8163 215.153 38.6618L217.823 37.2942ZM215.216 25.702C215.216 21.2863 216.098 17.4123 217.823 14.0438L215.153 12.6762C213.183 16.5237 212.216 20.8777 212.216 25.702H215.216ZM217.817 14.0566C219.583 10.6877 222.03 8.10553 225.165 6.27305L223.651 3.68294C220.011 5.81047 217.177 8.81625 215.16 12.6634L217.817 14.0566ZM225.178 6.26571C228.303 4.39888 231.967 3.442 236.222 3.442V0.441996C231.501 0.441996 227.29 1.50911 223.639 3.69028L225.178 6.26571ZM274.554 0.16H276.054V-1.34H274.554V0.16ZM274.554 49V50.5H276.054V49H274.554ZM265.248 49H263.748V50.5H265.248V49ZM265.248 0.16V-1.34H263.748V0.16H265.248ZM273.054 0.16V49H276.054V0.16H273.054ZM274.554 47.5H265.248V50.5H274.554V47.5ZM266.748 49V0.16H263.748V49H266.748ZM265.248 1.66H274.554V-1.34H265.248V1.66ZM309.439 14.218L308.735 15.5427L308.744 15.5471L309.439 14.218ZM316.171 20.752L314.867 21.4941L314.872 21.5028L316.171 20.752ZM316.171 40.684L317.47 41.4348L316.171 40.684ZM309.439 47.218L310.143 48.5427L310.15 48.5387L309.439 47.218ZM290.233 47.218L289.513 48.5341L289.525 48.5407L289.538 48.5471L290.233 47.218ZM283.567 40.684L282.268 41.4348L283.567 40.684ZM283.567 20.752L284.866 21.5028L284.871 21.494L283.567 20.752ZM290.233 14.218L289.538 12.8888L289.529 12.8933L290.233 14.218ZM293.269 22.798L294.33 23.8587L294.336 23.8523L294.342 23.8458L293.269 22.798ZM293.269 38.704L292.196 39.7518L292.202 39.7583L292.208 39.7647L293.269 38.704ZM306.469 38.704L307.53 39.7647L307.536 39.7583L307.542 39.7518L306.469 38.704ZM306.469 22.798L305.396 23.8458L305.402 23.8523L305.408 23.8587L306.469 22.798ZM299.869 13.474C303.217 13.474 306.16 14.1748 308.735 15.5427L310.143 12.8933C307.086 11.2692 303.649 10.474 299.869 10.474V13.474ZM308.744 15.5471C311.344 16.9071 313.379 18.8788 314.867 21.494L317.475 20.0099C315.707 16.9052 313.254 14.5209 310.134 12.8889L308.744 15.5471ZM314.872 21.5028C316.347 24.0531 317.113 27.1066 317.113 30.718H320.113C320.113 26.6734 319.251 23.0829 317.47 20.0012L314.872 21.5028ZM317.113 30.718C317.113 34.3293 316.347 37.3829 314.872 39.9332L317.47 41.4348C319.251 38.3531 320.113 34.7626 320.113 30.718H317.113ZM314.872 39.9332C313.383 42.5088 311.343 44.4893 308.728 45.8973L310.15 48.5387C313.255 46.8667 315.703 44.4912 317.47 41.4348L314.872 39.9332ZM308.735 45.8933C306.16 47.2612 303.217 47.962 299.869 47.962V50.962C303.649 50.962 307.086 50.1668 310.143 48.5427L308.735 45.8933ZM299.869 47.962C296.521 47.962 293.552 47.2613 290.928 45.8889L289.538 48.5471C292.634 50.1667 296.089 50.962 299.869 50.962V47.962ZM290.953 45.9019C288.381 44.4957 286.358 42.5147 284.866 39.9332L282.268 41.4348C284.032 44.4853 286.453 46.8603 289.513 48.5341L290.953 45.9019ZM284.866 39.9332C283.391 37.3829 282.625 34.3293 282.625 30.718H279.625C279.625 34.7626 280.487 38.3531 282.268 41.4348L284.866 39.9332ZM282.625 30.718C282.625 27.1066 283.391 24.0531 284.866 21.5028L282.268 20.0012C280.487 23.0829 279.625 26.6734 279.625 30.718H282.625ZM284.871 21.494C286.363 18.8728 288.38 16.9008 290.937 15.5427L289.529 12.8933C286.454 14.5272 284.027 16.9112 282.263 20.0099L284.871 21.494ZM290.928 15.5471C293.552 14.1747 296.521 13.474 299.869 13.474V10.474C296.089 10.474 292.634 11.2693 289.538 12.8889L290.928 15.5471ZM299.869 18.526C296.871 18.526 294.284 19.6113 292.196 21.7502L294.342 23.8458C295.862 22.2887 297.675 21.526 299.869 21.526V18.526ZM292.208 21.7373C290.033 23.9123 289.063 26.992 289.063 30.718H292.063C292.063 27.492 292.897 25.2917 294.33 23.8587L292.208 21.7373ZM289.063 30.718C289.063 34.4466 290.034 37.5378 292.196 39.7518L294.342 37.6562C292.896 36.1742 292.063 33.9414 292.063 30.718H289.063ZM292.208 39.7647C294.299 41.8555 296.883 42.91 299.869 42.91V39.91C297.663 39.91 295.847 39.1605 294.33 37.6433L292.208 39.7647ZM299.869 42.91C302.855 42.91 305.439 41.8555 307.53 39.7647L305.408 37.6433C303.891 39.1605 302.075 39.91 299.869 39.91V42.91ZM307.542 39.7518C309.704 37.5378 310.675 34.4466 310.675 30.718H307.675C307.675 33.9414 306.842 36.1742 305.396 37.6562L307.542 39.7518ZM310.675 30.718C310.675 26.992 309.705 23.9123 307.53 21.7373L305.408 23.8587C306.841 25.2917 307.675 27.492 307.675 30.718H310.675ZM307.542 21.7502C305.454 19.6113 302.867 18.526 299.869 18.526V21.526C302.063 21.526 303.876 22.2887 305.396 23.8458L307.542 21.7502ZM360.17 12.436H361.67V10.936H360.17V12.436ZM360.17 49V50.5H361.67V49H360.17ZM350.864 49H349.364V50.5H350.864V49ZM350.864 41.608H352.364L349.468 41.0595L350.864 41.608ZM346.046 47.416L346.836 48.6909L346.843 48.6866L346.046 47.416ZM328.292 45.304L329.404 44.2976L328.292 45.304ZM324.53 12.436V10.936H323.03V12.436H324.53ZM333.77 12.436H335.27V10.936H333.77V12.436ZM336.014 39.43L334.909 40.4449L334.916 40.4525L334.923 40.4599L336.014 39.43ZM348.488 39.232L349.59 40.2494L348.488 39.232ZM350.864 12.436V10.936H349.364V12.436H350.864ZM358.67 12.436V49H361.67V12.436H358.67ZM360.17 47.5H350.864V50.5H360.17V47.5ZM352.364 49V41.608H349.364V49H352.364ZM349.468 41.0595C348.617 43.2248 347.221 44.9078 345.249 46.1454L346.843 48.6866C349.359 47.1082 351.175 44.9193 352.26 42.1565L349.468 41.0595ZM345.255 46.1411C343.321 47.3406 341.05 47.962 338.39 47.962V50.962C341.538 50.962 344.371 50.2194 346.836 48.6909L345.255 46.1411ZM338.39 47.962C334.529 47.962 331.589 46.7127 329.404 44.2976L327.18 46.3104C330.01 49.4393 333.803 50.962 338.39 50.962V47.962ZM329.404 44.2976C327.218 41.8819 326.03 38.4131 326.03 33.688H323.03C323.03 38.9069 324.349 43.1821 327.18 46.3104L329.404 44.2976ZM326.03 33.688V12.436H323.03V33.688H326.03ZM324.53 13.936H333.77V10.936H324.53V13.936ZM332.27 12.436V32.632H335.27V12.436H332.27ZM332.27 32.632C332.27 35.7911 333.088 38.4624 334.909 40.4449L337.118 38.4151C335.948 37.1416 335.27 35.2809 335.27 32.632H332.27ZM334.923 40.4599C336.751 42.3957 339.198 43.306 342.086 43.306V40.306C339.87 40.306 338.268 39.6323 337.104 38.4001L334.923 40.4599ZM342.086 43.306C345.12 43.306 347.679 42.3201 349.59 40.2494L347.386 38.2146C346.129 39.5759 344.42 40.306 342.086 40.306V43.306ZM349.59 40.2494C351.513 38.1667 352.364 35.2862 352.364 31.84H349.364C349.364 34.8178 348.631 36.8653 347.386 38.2146L349.59 40.2494ZM352.364 31.84V12.436H349.364V31.84H352.364ZM350.864 13.936H360.17V10.936H350.864V13.936ZM390.807 14.152L389.969 15.3962L389.981 15.4039L390.807 14.152ZM395.559 20.026L394.163 20.5745L397.059 20.026H395.559ZM395.559 0.16V-1.34H394.059V0.16H395.559ZM404.799 0.16H406.299V-1.34H404.799V0.16ZM404.799 49V50.5H406.299V49H404.799ZM395.559 49H394.059V50.5H395.559V49ZM395.559 41.344H397.059L394.163 40.7955L395.559 41.344ZM390.807 47.284L391.645 48.5282L391.651 48.5244L390.807 47.284ZM374.637 47.218L373.859 48.5002V48.5002L374.637 47.218ZM368.829 40.75L367.475 41.3957L367.481 41.4083L367.488 41.4208L368.829 40.75ZM368.829 20.752L367.483 20.0895L367.479 20.0981L368.829 20.752ZM374.637 14.218L375.416 15.5002L374.637 14.218ZM378.861 22.93L379.96 23.9517L378.861 22.93ZM378.861 38.506L377.763 39.5277L377.769 39.5341L377.775 39.5405L378.861 38.506ZM392.787 38.44L391.702 37.4043L391.702 37.4049L392.787 38.44ZM392.787 22.996L391.69 24.0186L391.702 24.0315L391.714 24.0441L392.787 22.996ZM382.953 13.474C385.791 13.474 388.104 14.1398 389.969 15.3962L391.645 12.9078C389.199 11.2602 386.275 10.474 382.953 10.474V13.474ZM389.981 15.4039C391.922 16.6849 393.308 18.3967 394.163 20.5745L396.955 19.4775C395.875 16.7273 394.093 14.5231 391.633 12.9001L389.981 15.4039ZM397.059 20.026V0.16H394.059V20.026H397.059ZM395.559 1.66H404.799V-1.34H395.559V1.66ZM403.299 0.16V49H406.299V0.16H403.299ZM404.799 47.5H395.559V50.5H404.799V47.5ZM397.059 49V41.344H394.059V49H397.059ZM394.163 40.7955C393.306 42.977 391.915 44.7165 389.964 46.0436L391.651 48.5244C394.099 46.8595 395.876 44.639 396.955 41.8925L394.163 40.7955ZM389.969 46.0398C388.104 47.2962 385.791 47.962 382.953 47.962V50.962C386.275 50.962 389.199 50.1758 391.645 48.5282L389.969 46.0398ZM382.953 47.962C380.128 47.962 377.629 47.2795 375.416 45.9358L373.859 48.5002C376.574 50.1485 379.618 50.962 382.953 50.962V47.962ZM375.416 45.9358C373.215 44.5999 371.465 42.6666 370.171 40.0792L367.488 41.4208C369.01 44.4654 371.131 46.8441 373.859 48.5002L375.416 45.9358ZM370.183 40.1043C368.933 37.4836 368.283 34.3683 368.283 30.718H365.283C365.283 34.7237 365.997 38.2964 367.475 41.3957L370.183 40.1043ZM368.283 30.718C368.283 27.0668 368.934 23.9776 370.179 21.4059L367.479 20.0981C365.997 23.1584 365.283 26.7132 365.283 30.718H368.283ZM370.175 21.4145C371.471 18.7828 373.221 16.8324 375.416 15.5002L373.859 12.9358C371.125 14.5956 369.004 17.0012 367.483 20.0895L370.175 21.4145ZM375.416 15.5002C377.629 14.1565 380.128 13.474 382.953 13.474V10.474C379.618 10.474 376.574 11.2875 373.859 12.9358L375.416 15.5002ZM385.857 18.592C382.594 18.592 379.843 19.6719 377.763 21.9083L379.96 23.9517C381.399 22.4041 383.313 21.592 385.857 21.592V18.592ZM377.763 21.9083C375.679 24.1485 374.721 27.1479 374.721 30.718H377.721C377.721 27.6881 378.523 25.4955 379.96 23.9517L377.763 21.9083ZM374.721 30.718C374.721 34.2881 375.679 37.2875 377.763 39.5277L379.96 37.4843C378.523 35.9405 377.721 33.7479 377.721 30.718H374.721ZM377.775 39.5405C379.858 41.7279 382.605 42.778 385.857 42.778V39.778C383.302 39.778 381.384 38.9801 379.947 37.4715L377.775 39.5405ZM385.857 42.778C389.048 42.778 391.762 41.6886 393.873 39.4751L391.702 37.4049C390.204 38.9754 388.298 39.778 385.857 39.778V42.778ZM393.872 39.4757C396.038 37.2065 397.059 34.2337 397.059 30.718H394.059C394.059 33.6263 393.232 35.8015 391.702 37.4043L393.872 39.4757ZM397.059 30.718C397.059 27.166 396.042 24.1819 393.86 21.9479L391.714 24.0441C393.228 25.5941 394.059 27.758 394.059 30.718H397.059ZM393.885 21.9734C391.777 19.7117 389.059 18.592 385.857 18.592V21.592C388.287 21.592 390.189 22.4083 391.69 24.0186L393.885 21.9734Z" fill="url(#paint0_linear_338_9696)"/>
<defs>
<linearGradient id="paint0_linear_338_9696" x1="140.664" y1="25.5" x2="247.036" y2="143.895" gradientUnits="userSpaceOnUse">
<stop stop-color="#2465FF" stop-opacity="0.9"/>
<stop offset="0.62938" stop-color="#BB4CFF" stop-opacity="0.453125"/>
<stop offset="1" stop-color="#D68AD3" stop-opacity="0.587575"/>
</linearGradient>
</defs>
</svg>
