<svg width="580" height="330" viewBox="0 0 58 33" fill="none" xmlns="http://www.w3.org/2000/svg">
<g clip-path="url(#clip0_313_713)">
<path d="M0.659061 15.0364C0.538105 15.0364 0.442103 15.1298 0.426463 15.263L0.00256348 18.4786L0.426463 21.6388C0.442103 21.7719 0.538047 21.8647 0.659061 21.8647C0.776209 21.8647 0.871626 21.7726 0.890311 21.6399L1.39276 18.4785L0.890311 15.2623C0.872212 15.1297 0.775623 15.0364 0.659061 15.0364ZM3.04296 13.2795C3.02299 13.1413 2.92388 13.046 2.8017 13.046C2.67887 13.046 2.57724 13.1444 2.56043 13.2795L1.99062 18.4786L2.56043 23.5625C2.57666 23.6988 2.67828 23.7972 2.8017 23.7972C2.92324 23.7972 3.0224 23.7013 3.04232 23.5638L3.69062 18.4786L3.04296 13.2795ZM12.0226 8.48382C11.7888 8.48382 11.5955 8.67492 11.5843 8.91773L11.1305 18.4829L11.5843 24.6644C11.5962 24.9059 11.7888 25.0964 12.0226 25.0964C12.2551 25.0964 12.4478 24.9053 12.4615 24.6632V24.665L12.9745 18.4829L12.4615 8.91773C12.4477 8.67492 12.2551 8.48382 12.0226 8.48382ZM7.37504 11.8083C7.19551 11.8083 7.04901 11.9515 7.03461 12.1426L6.52343 18.4804L7.03461 24.6121C7.04831 24.8019 7.19545 24.9451 7.37504 24.9451C7.55269 24.9451 7.69919 24.8019 7.71482 24.6121L8.29582 18.4804L7.71482 12.1413C7.69919 11.9515 7.55269 11.8083 7.37504 11.8083ZM16.7456 25.0959C17.0355 25.0959 17.2711 24.8624 17.2829 24.5635L17.7281 18.486L17.2836 5.75128C17.2718 5.45243 17.0361 5.21898 16.7462 5.21898C16.4538 5.21898 16.2176 5.45308 16.2082 5.75193L15.8136 18.4853L16.2082 24.5654C16.2175 24.8618 16.4538 25.0959 16.7456 25.0959ZM26.4147 25.1245C26.8137 25.1245 27.1429 24.7964 27.1503 24.393L27.4608 18.4897L27.1503 3.78211C27.1434 3.37931 26.8136 3.05063 26.4146 3.05063C26.015 3.05063 25.6853 3.37873 25.679 3.78275L25.4016 18.4848C25.4016 18.4941 25.679 24.3967 25.679 24.3967C25.6853 24.7964 26.0157 25.1245 26.4147 25.1245ZM21.5433 25.1015C21.8906 25.1015 22.1705 24.8232 22.1798 24.4683V24.4727L22.5576 18.4873L22.1792 5.66044C22.1698 5.30555 21.89 5.02794 21.5427 5.02794C21.1929 5.02794 20.9131 5.30561 20.9056 5.66044L20.5696 18.4879L20.9062 24.4721C20.9137 24.8232 21.1936 25.1015 21.5433 25.1015ZM9.68976 25.0454C9.89612 25.0454 10.0632 24.8804 10.0788 24.6632L10.6262 18.4804L10.0788 12.599C10.0639 12.3817 9.89682 12.218 9.68976 12.218C9.48036 12.218 9.31325 12.3829 9.30019 12.6015L8.81824 18.4804L9.30019 24.6626C9.3139 24.8804 9.4803 25.0454 9.68976 25.0454ZM5.07905 24.7068C5.22988 24.7068 5.35207 24.5878 5.36952 24.4235L5.9842 18.4791L5.37011 12.3107C5.35201 12.1458 5.22982 12.0268 5.079 12.0268C4.92623 12.0268 4.80405 12.1464 4.78847 12.3107L4.24736 18.4791L4.78847 24.4222C4.80346 24.5872 4.92565 24.7068 5.07905 24.7068ZM23.9697 5.44688C23.5925 5.44688 23.2901 5.74637 23.2827 6.12986L22.976 18.4885L23.2827 24.4353C23.2902 24.8138 23.5919 25.1133 23.9697 25.1133C24.3462 25.1133 24.6468 24.8144 24.6554 24.431V24.4359L24.9995 18.4891L24.6554 6.12858C24.6467 5.74637 24.3461 5.44688 23.9697 5.44688ZM14.3753 25.1083C14.6359 25.1083 14.851 24.896 14.8635 24.6252L15.3423 18.4847L14.8635 6.73184C14.8504 6.46036 14.6359 6.24873 14.3753 6.24873C14.1123 6.24873 13.8978 6.461 13.8866 6.73184L13.4627 18.4847L13.8872 24.6277C13.8978 24.896 14.1122 25.1083 14.3753 25.1083ZM19.7217 24.5255L20.1332 18.4866L19.7217 5.32298C19.7117 4.99617 19.4536 4.73967 19.1351 4.73967C18.8146 4.73967 18.5565 4.99553 18.5478 5.32298L18.1825 18.486L18.5484 24.5281C18.5572 24.8518 18.8153 25.1076 19.1351 25.1076C19.4543 25.1076 19.7111 24.8511 19.7217 24.5255ZM50.8412 10.8987C49.8643 10.8987 48.9323 11.0961 48.0832 11.4516C47.5159 5.03414 42.1271 0 35.5539 0C33.9455 0 32.3776 0.316282 30.993 0.851043C30.455 1.05899 30.3116 1.27314 30.3066 1.6884V24.2877C30.3123 24.7235 30.6508 25.0864 31.0766 25.1294C31.0947 25.1313 50.7134 25.1413 50.8406 25.1413C54.7781 25.1413 57.9706 21.953 57.9706 18.0203C57.9705 14.0875 54.7787 10.8987 50.8412 10.8987ZM28.8491 1.66851C28.4208 1.66851 28.0692 2.01966 28.063 2.45106L27.7413 18.4916L28.0636 24.3133C28.0692 24.7385 28.4208 25.089 28.8491 25.089C29.2761 25.089 29.6277 24.7385 29.6339 24.3071V24.3139L29.9837 18.4916L29.6339 2.44983C29.6277 2.01966 29.2761 1.66851 28.8491 1.66851ZM5.76045 29.668C4.91698 29.47 4.68878 29.3642 4.68878 29.0305C4.68878 28.7952 4.87891 28.5517 5.44871 28.5517C5.93558 28.5517 6.3159 28.7491 6.65756 29.0983L7.425 28.355C6.9232 27.8314 6.31532 27.5201 5.48743 27.5201C4.43761 27.5201 3.58665 28.1122 3.58665 29.0766C3.58665 30.1237 4.2712 30.4351 5.2512 30.6622C6.25422 30.8895 6.43692 31.042 6.43692 31.3838C6.43692 31.786 6.13954 31.9609 5.50987 31.9609C5.00057 31.9609 4.52178 31.7866 4.14902 31.3527L3.38146 32.0363C3.78416 32.6284 4.56032 33.0001 5.44866 33.0001C6.90123 33.0001 7.53957 32.3171 7.53957 31.3079C7.53963 30.1536 6.6045 29.8654 5.76045 29.668ZM10.6566 27.5201C9.20536 27.5201 8.3469 28.6433 8.3469 30.2601C8.3469 31.877 9.2053 32.9994 10.6566 32.9994C12.108 32.9994 12.9676 31.877 12.9676 30.2601C12.9676 28.6433 12.108 27.5201 10.6566 27.5201ZM10.6566 31.9454C9.79824 31.9454 9.44036 31.2089 9.44036 30.2607C9.44036 29.3119 9.79818 28.5754 10.6566 28.5754C11.5163 28.5754 11.8729 29.3119 11.8729 30.2607C11.8729 31.2089 11.5163 31.9454 10.6566 31.9454ZM17.2624 30.5869C17.2624 31.4367 16.8435 31.9609 16.1677 31.9609C15.4913 31.9609 15.081 31.4217 15.081 30.572V27.603H14.0163V30.587C14.0163 32.1347 14.8835 33.0001 16.1676 33.0001C17.5205 33.0001 18.3265 32.1116 18.3265 30.5721V27.603H17.2624V30.5869ZM22.9167 29.8505C22.9167 30.1468 22.9316 30.8142 22.9316 31.0116C22.8631 30.8746 22.6886 30.6094 22.5595 30.4114L20.6737 27.6024H19.6556V32.9167H20.7048V30.5782C20.7048 30.282 20.6898 29.6145 20.6898 29.4171C20.7578 29.5535 20.9336 29.8193 21.062 30.0173L23.0158 32.9166H23.9658V27.6023H22.9167L22.9167 29.8505ZM26.9982 27.603H25.3337V32.9172H26.9215C28.2899 32.9172 29.6433 32.1272 29.6433 30.2601C29.6433 28.3164 28.5181 27.603 26.9982 27.603ZM26.9215 31.885H26.3979V28.6358H26.9602C28.0855 28.6358 28.5493 29.1743 28.5493 30.2601C28.5492 31.2319 28.0393 31.885 26.9215 31.885ZM32.9343 28.5748C33.4131 28.5748 33.7173 28.7877 33.9074 29.1519L34.8955 28.6968C34.5607 28.0063 33.9523 27.5201 32.9492 27.5201C31.5596 27.5201 30.5858 28.6433 30.5858 30.2601C30.5858 31.9373 31.5203 32.9994 32.9111 32.9994C33.8768 32.9994 34.5152 32.5518 34.8799 31.8003L33.9834 31.2687C33.7022 31.74 33.4204 31.9448 32.9416 31.9448C32.1437 31.9448 31.6799 31.2157 31.6799 30.2601C31.6794 29.2739 32.137 28.5748 32.9343 28.5748ZM36.8811 27.603H35.8169V32.9172H39.0151V31.8688H36.8811V27.603ZM41.8185 27.5201C40.366 27.5201 39.5076 28.6433 39.5076 30.2601C39.5076 31.877 40.366 32.9994 41.8185 32.9994C43.2698 32.9994 44.1289 31.877 44.1289 30.2601C44.1289 28.6433 43.2698 27.5201 41.8185 27.5201ZM41.8185 31.9454C40.9588 31.9454 40.6022 31.2089 40.6022 30.2607C40.6022 29.3119 40.9588 28.5754 41.8185 28.5754C42.6764 28.5754 43.0335 29.3119 43.0335 30.2607C43.0335 31.2089 42.6764 31.9454 41.8185 31.9454ZM48.423 30.5869C48.423 31.4367 48.0059 31.9609 47.3295 31.9609C46.6519 31.9609 46.2423 31.4217 46.2423 30.572V27.603H45.1782V30.587C45.1782 32.1347 46.0447 33.0001 47.3295 33.0001C48.6824 33.0001 49.4878 32.1116 49.4878 30.5721V27.603H48.423V30.5869ZM52.482 27.603H50.8181V32.9172H52.406C53.775 32.9172 55.1271 32.1272 55.1271 30.2601C55.1271 28.3164 54.0025 27.603 52.482 27.603ZM52.406 31.885H51.8817V28.6358H52.4446C53.5686 28.6358 54.0324 29.1743 54.0324 30.2601C54.0324 31.2319 53.5231 31.885 52.406 31.885Z" fill="white"/>
</g>
<defs>
<clipPath id="clip0_313_713">
<rect width="57.973" height="33" fill="white"/>
</clipPath>
</defs>
</svg>
