<svg width="241" height="71" viewBox="0 0 231 71" fill="none" xmlns="http://www.w3.org/2000/svg">
<path d="M31.7596 46.6725L33.0459 47.4443L33.0496 47.4381L33.0532 47.4318L31.7596 46.6725ZM26.4796 51.4905L27.1605 52.8271L27.1704 52.822L27.1803 52.8168L26.4796 51.4905ZM9.12162 51.6225L8.51673 52.9952L8.52653 52.9995L8.53639 53.0037L9.12162 51.6225ZM2.85162 46.7385L1.63961 47.6223L1.64556 47.6305L1.65162 47.6385L2.85162 46.7385ZM0.211617 39.3465V37.8465H-1.41014L-1.28383 39.4634L0.211617 39.3465ZM10.1116 39.3465L11.6016 39.1733L11.4473 37.8465H10.1116V39.3465ZM12.3556 44.0985L11.295 45.1592L11.3132 45.1775L11.3321 45.1951L12.3556 44.0985ZM21.9916 44.4285L20.931 43.3679L21.9916 44.4285ZM22.3216 36.8385L21.1864 37.819L21.1977 37.8321L21.2093 37.8449L22.3216 36.8385ZM19.1536 34.5285L19.7672 33.1598H19.7672L19.1536 34.5285ZM13.8736 32.5485L13.3993 33.9716L13.8736 32.5485ZM6.74562 29.7105L6.04961 31.0393L6.06214 31.0459L6.0748 31.0522L6.74562 29.7105ZM1.99362 25.5525L0.768994 26.4187L0.775954 26.4286L0.783072 26.4383L1.99362 25.5525ZM4.36962 9.05254L5.30666 10.2238L5.30882 10.2221L4.36962 9.05254ZM27.6016 9.11854L26.6517 10.2795L26.6603 10.2864L27.6016 9.11854ZM32.6176 18.6225V20.1225H34.2751L34.1102 18.4733L32.6176 18.6225ZM22.5856 18.6225L21.104 18.8565L21.3039 20.1225H22.5856V18.6225ZM20.4736 14.5305L19.434 15.6118L19.445 15.6224L19.4562 15.6327L20.4736 14.5305ZM11.6296 14.2665L12.5899 15.4189L12.6038 15.4073L12.6174 15.3954L11.6296 14.2665ZM11.2336 21.5925L10.0947 22.5687L10.1197 22.5979L10.1461 22.6257L11.2336 21.5925ZM14.3356 23.7705L13.704 25.1311L13.713 25.1352L13.722 25.1393L14.3356 23.7705ZM19.4836 25.6845L19.9828 24.2701L19.9661 24.2641L19.9492 24.2586L19.4836 25.6845ZM26.7436 28.6545L26.0728 29.9962L26.0854 30.0024L26.7436 28.6545ZM31.5616 32.8125L32.7822 31.9407H32.7822L31.5616 32.8125ZM32.0416 40.0725C32.0416 42.1851 31.5171 44.1225 30.466 45.9132L33.0532 47.4318C34.3781 45.1746 35.0416 42.712 35.0416 40.0725H32.0416ZM30.4734 45.9008C29.4454 47.6141 27.9039 49.0416 25.7789 50.1643L27.1803 52.8168C29.7193 51.4755 31.6978 49.691 33.0459 47.4443L30.4734 45.9008ZM25.7987 50.154C23.728 51.2089 21.1368 51.7725 17.9656 51.7725V54.7725C21.4825 54.7725 24.5673 54.1482 27.1605 52.8271L25.7987 50.154ZM17.9656 51.7725C14.8329 51.7725 12.0889 51.2508 9.70684 50.2414L8.53639 53.0037C11.3463 54.1943 14.4984 54.7725 17.9656 54.7725V51.7725ZM9.72651 50.2499C7.34803 49.2018 5.46964 47.7292 4.05162 45.8385L1.65162 47.6385C3.4016 49.9719 5.70321 51.7553 8.51673 52.9952L9.72651 50.2499ZM4.06363 45.8548C2.70048 43.9853 1.90724 41.7919 1.70706 39.2297L-1.28383 39.4634C-1.044 42.5331 -0.0772479 45.2678 1.63961 47.6223L4.06363 45.8548ZM0.211617 40.8465H10.1116V37.8465H0.211617V40.8465ZM8.62166 39.5198C8.87836 41.7275 9.76608 43.6303 11.295 45.1592L13.4163 43.0379C12.3932 42.0148 11.7849 40.7496 11.6016 39.1733L8.62166 39.5198ZM11.3321 45.1951C12.9822 46.7352 15.1119 47.4465 17.5696 47.4465V44.4465C15.7153 44.4465 14.369 43.9259 13.3791 43.002L11.3321 45.1951ZM17.5696 47.4465C19.7592 47.4465 21.6712 46.8703 23.0523 45.4892L20.931 43.3679C20.288 44.0108 19.252 44.4465 17.5696 44.4465V47.4465ZM23.0523 45.4892C24.4163 44.1252 25.0756 42.3889 25.0756 40.4025H22.0756C22.0756 41.6722 21.6789 42.6199 20.931 43.3679L23.0523 45.4892ZM25.0756 40.4025C25.0756 38.644 24.5601 37.0769 23.4339 35.8322L21.2093 37.8449C21.7551 38.4482 22.0756 39.2571 22.0756 40.4025H25.0756ZM23.4569 35.8581C22.4645 34.7091 21.2245 33.813 19.7672 33.1598L18.54 35.8973C19.6348 36.388 20.5067 37.032 21.1864 37.819L23.4569 35.8581ZM19.7672 33.1598C18.4253 32.5582 16.6118 31.8801 14.348 31.1255L13.3993 33.9716C15.6235 34.713 17.3299 35.3548 18.54 35.8973L19.7672 33.1598ZM14.348 31.1255C11.4825 30.1704 9.17862 29.25 7.41644 28.3689L6.0748 31.0522C8.00861 32.0191 10.4567 32.9907 13.3993 33.9716L14.348 31.1255ZM7.44163 28.3818C5.81108 27.5277 4.39866 26.2993 3.20416 24.6668L0.783072 26.4383C2.22858 28.4138 3.98416 29.9574 6.04961 31.0393L7.44163 28.3818ZM3.21824 24.6863C2.17013 23.2045 1.57962 21.1809 1.57962 18.4905H-1.42038C-1.42038 21.6082 -0.734891 24.2926 0.768994 26.4187L3.21824 24.6863ZM1.57962 18.4905C1.57962 14.8937 2.83874 12.1982 5.30666 10.2238L3.43257 7.88124C0.180499 10.4829 -1.42038 14.0794 -1.42038 18.4905H1.57962ZM5.30882 10.2221C7.88033 8.15712 11.3474 7.05455 15.8536 7.05455V4.05455C10.8559 4.05455 6.66691 5.28397 3.43042 7.88297L5.30882 10.2221ZM15.8536 7.05455C20.5449 7.05455 24.0898 8.1833 26.6518 10.2795L28.5515 7.95761C25.3055 5.30179 21.0184 4.05455 15.8536 4.05455V7.05455ZM26.6603 10.2864C29.2782 12.3964 30.7668 15.1887 31.1251 18.7718L34.1102 18.4733C33.6765 14.1364 31.821 10.5927 28.5429 7.95065L26.6603 10.2864ZM32.6176 17.1225H22.5856V20.1225H32.6176V17.1225ZM24.0673 18.3886C23.7555 16.4142 22.9052 14.7337 21.491 13.4283L19.4562 15.6327C20.3301 16.4394 20.8877 17.4869 21.104 18.8565L24.0673 18.3886ZM21.5133 13.4493C20.0248 12.018 18.0544 11.3805 15.7876 11.3805V14.3805C17.4808 14.3805 18.6345 14.8431 19.434 15.6118L21.5133 13.4493ZM15.7876 11.3805C13.7928 11.3805 12.0288 11.9241 10.6419 13.1377L12.6174 15.3954C13.3424 14.761 14.3505 14.3805 15.7876 14.3805V11.3805ZM10.6693 13.1142C9.18853 14.3482 8.54562 16.1198 8.54562 18.1605H11.5456C11.5456 16.7693 11.9587 15.9449 12.5899 15.4189L10.6693 13.1142ZM8.54562 18.1605C8.54562 19.8364 9.0413 21.3397 10.0947 22.5687L12.3725 20.6164C11.8419 19.9974 11.5456 19.2127 11.5456 18.1605H8.54562ZM10.1461 22.6257C11.1267 23.6579 12.3211 24.489 13.704 25.1311L14.9673 22.41C13.8862 21.9081 13.0125 21.2872 12.3211 20.5594L10.1461 22.6257ZM13.722 25.1393C15.0665 25.742 16.8385 26.3988 19.018 27.1105L19.9492 24.2586C17.8168 23.5623 16.1567 22.9431 14.9492 22.4018L13.722 25.1393ZM18.9844 27.099C21.9452 28.144 24.3015 29.1105 26.0728 29.9962L27.4144 27.3129C25.4897 26.3505 23.006 25.3371 19.9828 24.2701L18.9844 27.099ZM26.0854 30.0024C27.7358 30.8084 29.1543 32.023 30.341 33.6844L32.7822 31.9407C31.329 29.9061 29.5354 28.3486 27.4019 27.3067L26.0854 30.0024ZM30.341 33.6844C31.4294 35.2082 32.0416 37.2948 32.0416 40.0725H35.0416C35.0416 36.8663 34.3338 34.1129 32.7822 31.9407L30.341 33.6844ZM70.5589 18.0285L69.7804 19.3107V19.3107L70.5589 18.0285ZM76.3009 24.5625L74.9469 25.2083L74.953 25.2209L74.9592 25.2334L76.3009 24.5625ZM76.3009 44.5605L74.9551 43.898L74.9509 43.9067L76.3009 44.5605ZM70.5589 51.0285L71.3373 52.3107L70.5589 51.0285ZM54.3229 51.0945L53.4677 52.3269L53.482 52.3369L53.4966 52.3465L54.3229 51.0945ZM49.7029 45.1545L51.1073 44.6279L48.2029 45.1545H49.7029ZM49.7029 70.2346V71.7346H51.2029V70.2346H49.7029ZM40.3969 70.2346H38.8969V71.7346H40.3969V70.2346ZM40.3969 16.2465V14.7465H38.8969V16.2465H40.3969ZM49.7029 16.2465H51.2029V14.7465H49.7029V16.2465ZM49.7029 23.8365H48.2029L51.1073 24.3632L49.7029 23.8365ZM54.3229 17.9625L53.4966 16.7106L53.485 16.7184L54.3229 17.9625ZM52.3429 26.8065L51.2578 25.7708L51.2572 25.7714L52.3429 26.8065ZM52.3429 42.2505L51.2454 43.2731L51.2575 43.286L51.2698 43.2987L52.3429 42.2505ZM66.3349 42.3165L67.4211 43.351L67.4271 43.3447L67.4331 43.3382L66.3349 42.3165ZM66.3349 26.7405L65.2366 27.7622L66.3349 26.7405ZM62.2429 17.2845C65.0679 17.2845 67.5672 17.967 69.7804 19.3107L71.3373 16.7464C68.6225 15.0981 65.5778 14.2845 62.2429 14.2845V17.2845ZM69.7804 19.3107C71.9701 20.6402 73.6957 22.5847 74.9469 25.2083L77.6548 23.9168C76.178 20.8204 74.0756 18.4089 71.3373 16.7464L69.7804 19.3107ZM74.9592 25.2334C76.243 27.8009 76.9129 30.8839 76.9129 34.5285H79.9129C79.9129 30.5172 79.1747 26.9562 77.6425 23.8917L74.9592 25.2334ZM76.9129 34.5285C76.9129 38.1724 76.2432 41.2815 74.9551 43.898L77.6466 45.2231C79.1745 42.1196 79.9129 38.5407 79.9129 34.5285H76.9129ZM74.9509 43.9067C73.7017 46.4857 71.9762 48.4132 69.7804 49.7464L71.3373 52.3107C74.0695 50.6519 76.1721 48.2674 77.6508 45.2144L74.9509 43.9067ZM69.7804 49.7464C67.5672 51.0901 65.0679 51.7725 62.2429 51.7725V54.7725C65.5778 54.7725 68.6225 53.959 71.3373 52.3107L69.7804 49.7464ZM62.2429 51.7725C59.406 51.7725 57.0649 51.107 55.1491 49.8426L53.4966 52.3465C55.9808 53.9861 58.9197 54.7725 62.2429 54.7725V51.7725ZM55.178 49.8622C53.2733 48.5406 51.9246 46.8071 51.1073 44.6279L48.2984 45.6812C49.3291 48.43 51.0604 50.6565 53.4677 52.3269L55.178 49.8622ZM48.2029 45.1545V70.2346H51.2029V45.1545H48.2029ZM49.7029 68.7346H40.3969V71.7346H49.7029V68.7346ZM41.8969 70.2346V16.2465H38.8969V70.2346H41.8969ZM40.3969 17.7465H49.7029V14.7465H40.3969V17.7465ZM48.2029 16.2465V23.8365H51.2029V16.2465H48.2029ZM51.1073 24.3632C51.9232 22.1876 53.2671 20.482 55.1608 19.2067L53.485 16.7184C51.0666 18.3471 49.3305 20.5575 48.2984 23.3099L51.1073 24.3632ZM55.1491 19.2145C57.0649 17.9501 59.406 17.2845 62.2429 17.2845V14.2845C58.9197 14.2845 55.9808 15.071 53.4966 16.7106L55.1491 19.2145ZM59.3389 22.4025C56.1369 22.4025 53.405 23.5214 51.2578 25.7708L53.4279 27.8423C54.9767 26.2197 56.9088 25.4025 59.3389 25.4025V22.4025ZM51.2572 25.7714C49.1258 28.0069 48.1369 30.9864 48.1369 34.5285H51.1369C51.1369 31.5587 51.9519 29.3902 53.4285 27.8417L51.2572 25.7714ZM48.1369 34.5285C48.1369 38.0345 49.1297 41.0026 51.2454 43.2731L53.4403 41.228C51.948 39.6265 51.1369 37.4466 51.1369 34.5285H48.1369ZM51.2698 43.2987C53.4197 45.4998 56.148 46.5885 59.3389 46.5885V43.5885C56.8977 43.5885 54.962 42.7853 53.4159 41.2024L51.2698 43.2987ZM59.3389 46.5885C62.5913 46.5885 65.3378 45.5384 67.4211 43.351L65.2486 41.2821C63.8119 42.7906 61.8944 43.5885 59.3389 43.5885V46.5885ZM67.4331 43.3382C69.517 41.098 70.4749 38.0987 70.4749 34.5285H67.4749C67.4749 37.5584 66.6727 39.7511 65.2366 41.2949L67.4331 43.3382ZM70.4749 34.5285C70.4749 30.9584 69.517 27.9591 67.4331 25.7189L65.2366 27.7622C66.6727 29.306 67.4749 31.4987 67.4749 34.5285H70.4749ZM67.4331 25.7189C65.3527 23.4825 62.6025 22.4025 59.3389 22.4025V25.4025C61.8832 25.4025 63.797 26.2146 65.2366 27.7622L67.4331 25.7189ZM111.464 18.0285L110.761 19.3532L110.769 19.3577L111.464 18.0285ZM118.196 24.5625L116.893 25.3046L116.898 25.3133L118.196 24.5625ZM118.196 44.4945L119.495 45.2453L118.196 44.4945ZM111.464 51.0285L112.168 52.3532L112.176 52.3493L111.464 51.0285ZM92.2584 51.0285L91.5387 52.3446L91.5509 52.3513L91.5632 52.3577L92.2584 51.0285ZM85.5924 44.4945L84.2938 45.2453L85.5924 44.4945ZM85.5924 24.5625L86.891 25.3133L86.896 25.3046L85.5924 24.5625ZM92.2584 18.0285L91.5632 16.6994L91.5547 16.7039L92.2584 18.0285ZM95.2944 26.6085L96.3551 27.6692L96.3615 27.6628L96.3678 27.6563L95.2944 26.6085ZM95.2944 42.5145L94.2211 43.5624L94.2274 43.5688L94.2338 43.5752L95.2944 42.5145ZM108.494 42.5145L109.555 43.5752L109.561 43.5688L109.568 43.5624L108.494 42.5145ZM108.494 26.6085L107.421 27.6564L107.427 27.6628L107.434 27.6692L108.494 26.6085ZM101.894 17.2845C105.242 17.2845 108.186 17.9854 110.761 19.3532L112.168 16.7039C109.111 15.0797 105.674 14.2845 101.894 14.2845V17.2845ZM110.769 19.3577C113.369 20.7176 115.404 22.6894 116.893 25.3046L119.5 23.8205C117.733 20.7157 115.28 18.3315 112.16 16.6994L110.769 19.3577ZM116.898 25.3133C118.372 27.8636 119.138 30.9172 119.138 34.5285H122.138C122.138 30.4839 121.277 26.8935 119.495 23.8118L116.898 25.3133ZM119.138 34.5285C119.138 38.1399 118.372 41.1935 116.898 43.7438L119.495 45.2453C121.277 42.1636 122.138 38.5732 122.138 34.5285H119.138ZM116.898 43.7438C115.409 46.3194 113.368 48.2999 110.753 49.7078L112.176 52.3493C115.281 50.6772 117.728 48.3017 119.495 45.2453L116.898 43.7438ZM110.761 49.7039C108.186 51.0717 105.242 51.7725 101.894 51.7725V54.7725C105.674 54.7725 109.111 53.9774 112.168 52.3532L110.761 49.7039ZM101.894 51.7725C98.5469 51.7725 95.5774 51.0718 92.9537 49.6994L91.5632 52.3577C94.6594 53.9773 98.114 54.7725 101.894 54.7725V51.7725ZM92.9781 49.7125C90.4066 48.3062 88.3834 46.3253 86.891 43.7438L84.2938 45.2453C86.0574 48.2958 88.4782 50.6709 91.5387 52.3446L92.9781 49.7125ZM86.891 43.7438C85.4166 41.1935 84.6504 38.1399 84.6504 34.5285H81.6504C81.6504 38.5732 82.5122 42.1636 84.2938 45.2453L86.891 43.7438ZM84.6504 34.5285C84.6504 30.9172 85.4166 27.8636 86.891 25.3133L84.2938 23.8118C82.5122 26.8935 81.6504 30.4839 81.6504 34.5285H84.6504ZM86.896 25.3046C88.3881 22.6834 90.4056 20.7114 92.9622 19.3532L91.5547 16.7039C88.4792 18.3377 86.0527 20.7217 84.2888 23.8205L86.896 25.3046ZM92.9537 19.3577C95.5774 17.9853 98.5469 17.2845 101.894 17.2845V14.2845C98.114 14.2845 94.6594 15.0798 91.5632 16.6994L92.9537 19.3577ZM101.894 22.3365C98.8967 22.3365 96.309 23.4219 94.2211 25.5607L96.3678 27.6563C97.8878 26.0992 99.7001 25.3365 101.894 25.3365V22.3365ZM94.2338 25.5479C92.0588 27.7228 91.0884 30.8025 91.0884 34.5285H94.0884C94.0884 31.3025 94.922 29.1023 96.3551 27.6692L94.2338 25.5479ZM91.0884 34.5285C91.0884 38.2571 92.0598 41.3484 94.2211 43.5624L96.3678 41.4667C94.9211 39.9847 94.0884 37.7519 94.0884 34.5285H91.0884ZM94.2338 43.5752C96.3245 45.666 98.9084 46.7205 101.894 46.7205V43.7205C99.6884 43.7205 97.8723 42.9711 96.3551 41.4539L94.2338 43.5752ZM101.894 46.7205C104.88 46.7205 107.464 45.666 109.555 43.5752L107.434 41.4539C105.917 42.9711 104.1 43.7205 101.894 43.7205V46.7205ZM109.568 43.5624C111.729 41.3484 112.7 38.2571 112.7 34.5285H109.7C109.7 37.7519 108.868 39.9847 107.421 41.4667L109.568 43.5624ZM112.7 34.5285C112.7 30.8025 111.73 27.7228 109.555 25.5479L107.434 27.6692C108.867 29.1023 109.7 31.3025 109.7 34.5285H112.7ZM109.568 25.5607C107.48 23.4219 104.892 22.3365 101.894 22.3365V25.3365C104.089 25.3365 105.901 26.0992 107.421 27.6564L109.568 25.5607ZM146.751 44.8245H148.251V43.3245H146.751V44.8245ZM146.751 52.8105V54.3105H148.251V52.8105H146.751ZM132.429 49.8405L131.415 50.9453L131.42 50.9504L131.426 50.9555L132.429 49.8405ZM129.195 24.1005H130.695V22.6005H129.195V24.1005ZM124.113 24.1005H122.613V25.6005H124.113V24.1005ZM124.113 16.2465V14.7465H122.613V16.2465H124.113ZM129.195 16.2465V17.7465H130.695V16.2465H129.195ZM129.195 7.20454V5.70454H127.695V7.20454H129.195ZM138.501 7.20454H140.001V5.70454H138.501V7.20454ZM138.501 16.2465H137.001V17.7465H138.501V16.2465ZM146.685 16.2465H148.185V14.7465H146.685V16.2465ZM146.685 24.1005V25.6005H148.185V24.1005H146.685ZM138.501 24.1005V22.6005H137.001V24.1005H138.501ZM145.251 44.8245V52.8105H148.251V44.8245H145.251ZM146.751 51.3105H141.867V54.3105H146.751V51.3105ZM141.867 51.3105C138.003 51.3105 135.267 50.3767 133.433 48.7256L131.426 50.9555C133.991 53.2644 137.547 54.3105 141.867 54.3105V51.3105ZM133.444 48.7358C131.737 47.1685 130.695 44.3788 130.695 39.9405H127.695C127.695 44.7423 128.809 48.5526 131.415 50.9453L133.444 48.7358ZM130.695 39.9405V24.1005H127.695V39.9405H130.695ZM129.195 22.6005H124.113V25.6005H129.195V22.6005ZM125.613 24.1005V16.2465H122.613V24.1005H125.613ZM124.113 17.7465H129.195V14.7465H124.113V17.7465ZM130.695 16.2465V7.20454H127.695V16.2465H130.695ZM129.195 8.70454H138.501V5.70454H129.195V8.70454ZM137.001 7.20454V16.2465H140.001V7.20454H137.001ZM138.501 17.7465H146.685V14.7465H138.501V17.7465ZM145.185 16.2465V24.1005H148.185V16.2465H145.185ZM146.685 22.6005H138.501V25.6005H146.685V22.6005ZM137.001 24.1005V40.0725H140.001V24.1005H137.001ZM137.001 40.0725C137.001 41.9491 137.361 43.6933 138.497 44.8292L140.618 42.7079C140.346 42.4358 140.001 41.716 140.001 40.0725H137.001ZM138.497 44.8292C139.622 45.9542 141.306 46.3245 143.121 46.3245V43.3245C141.592 43.3245 140.901 42.9909 140.618 42.7079L138.497 44.8292ZM143.121 46.3245H146.751V43.3245H143.121V46.3245ZM153.976 2.12255L154.963 3.25141L154.976 3.23999L154.989 3.22828L153.976 2.12255ZM162.292 2.12255L161.278 3.22828L161.291 3.23999L161.304 3.25141L162.292 2.12255ZM162.292 9.38254L163.279 10.5114L163.292 10.5L163.305 10.4883L162.292 9.38254ZM153.976 9.38254L152.962 10.4883L152.975 10.5L152.988 10.5114L153.976 9.38254ZM162.754 16.2465H164.254V14.7465H162.754V16.2465ZM162.754 52.8105V54.3105H164.254V52.8105H162.754ZM153.448 52.8105H151.948V54.3105H153.448V52.8105ZM153.448 16.2465V14.7465H151.948V16.2465H153.448ZM153.892 5.75254C153.892 4.65667 154.257 3.86991 154.963 3.25141L152.988 0.993681C151.583 2.22318 150.892 3.85641 150.892 5.75254H153.892ZM154.989 3.22828C155.716 2.56234 156.714 2.17055 158.134 2.17055V-0.829454C156.121 -0.829454 154.348 -0.253244 152.962 1.01682L154.989 3.22828ZM158.134 2.17055C159.553 2.17055 160.552 2.56234 161.278 3.22828L163.305 1.01682C161.92 -0.253244 160.146 -0.829454 158.134 -0.829454V2.17055ZM161.304 3.25141C162.011 3.86991 162.376 4.65667 162.376 5.75254H165.376C165.376 3.85641 164.685 2.22318 163.279 0.993681L161.304 3.25141ZM162.376 5.75254C162.376 6.79059 162.019 7.5973 161.278 8.27681L163.305 10.4883C164.676 9.23179 165.376 7.6185 165.376 5.75254H162.376ZM161.304 8.25368C160.579 8.8881 159.571 9.26855 158.134 9.26855V12.2685C160.128 12.2685 161.892 11.725 163.279 10.5114L161.304 8.25368ZM158.134 9.26855C156.696 9.26855 155.688 8.8881 154.963 8.25368L152.988 10.5114C154.375 11.725 156.139 12.2685 158.134 12.2685V9.26855ZM154.989 8.27681C154.248 7.5973 153.892 6.79059 153.892 5.75254H150.892C150.892 7.6185 151.591 9.23179 152.962 10.4883L154.989 8.27681ZM161.254 16.2465V52.8105H164.254V16.2465H161.254ZM162.754 51.3105H153.448V54.3105H162.754V51.3105ZM154.948 52.8105V16.2465H151.948V52.8105H154.948ZM153.448 17.7465H162.754V14.7465H153.448V17.7465ZM189.256 9.91055L189.16 11.4074L190.756 11.5104V9.91055H189.256ZM181.864 16.2465H180.364V17.7465H181.864V16.2465ZM189.256 16.2465H190.756V14.7465H189.256V16.2465ZM189.256 24.1005V25.6005H190.756V24.1005H189.256ZM181.864 24.1005V22.6005H180.364V24.1005H181.864ZM181.864 52.8105V54.3105H183.364V52.8105H181.864ZM172.558 52.8105H171.058V54.3105H172.558V52.8105ZM172.558 24.1005H174.058V22.6005H172.558V24.1005ZM167.872 24.1005H166.372V25.6005H167.872V24.1005ZM167.872 16.2465V14.7465H166.372V16.2465H167.872ZM172.558 16.2465V17.7465H174.058V16.2465H172.558ZM176.254 5.35654L177.285 6.44598L177.286 6.44547L176.254 5.35654ZM189.256 1.85855H190.756V0.501071L189.406 0.365991L189.256 1.85855ZM189.353 8.41366C186.536 8.23195 184.094 8.59042 182.523 9.97248L184.505 12.2246C185.135 11.6707 186.52 11.2371 189.16 11.4074L189.353 8.41366ZM182.523 9.97248C180.94 11.3657 180.364 13.6015 180.364 16.1805H183.364C183.364 13.9196 183.888 12.7674 184.505 12.2246L182.523 9.97248ZM180.364 16.1805V16.2465H183.364V16.1805H180.364ZM181.864 17.7465H189.256V14.7465H181.864V17.7465ZM187.756 16.2465V24.1005H190.756V16.2465H187.756ZM189.256 22.6005H181.864V25.6005H189.256V22.6005ZM180.364 24.1005V52.8105H183.364V24.1005H180.364ZM181.864 51.3105H172.558V54.3105H181.864V51.3105ZM174.058 52.8105V24.1005H171.058V52.8105H174.058ZM172.558 22.6005H167.872V25.6005H172.558V22.6005ZM169.372 24.1005V16.2465H166.372V24.1005H169.372ZM167.872 17.7465H172.558V14.7465H167.872V17.7465ZM174.058 16.2465V15.3885H171.058V16.2465H174.058ZM174.058 15.3885C174.058 11.3211 175.2 8.41966 177.285 6.44598L175.223 4.2671C172.381 6.95743 171.058 10.744 171.058 15.3885H174.058ZM177.286 6.44547C179.418 4.42568 182.683 3.29254 187.342 3.29254V0.292542C182.234 0.292542 178.107 1.53541 175.223 4.26762L177.286 6.44547ZM187.342 3.29254C188.164 3.29254 188.742 3.31465 189.107 3.3511L189.406 0.365991C188.89 0.314439 188.193 0.292542 187.342 0.292542V3.29254ZM187.756 1.85855V9.91055H190.756V1.85855H187.756ZM201.097 16.2465L202.488 15.6875L202.111 14.7465H201.097V16.2465ZM211.063 41.0625L209.671 41.6215L211.115 45.2193L212.468 41.586L211.063 41.0625ZM220.303 16.2465V14.7465H219.26L218.897 15.7231L220.303 16.2465ZM230.533 16.2465L231.918 16.8208L232.778 14.7465H230.533V16.2465ZM208.159 70.2346V71.7346H209.161L209.544 70.8088L208.159 70.2346ZM197.863 70.2346L196.493 69.6231L195.55 71.7346H197.863V70.2346ZM206.113 51.7545L207.482 52.366L207.751 51.7637L207.489 51.1584L206.113 51.7545ZM190.735 16.2465V14.7465H188.45L189.358 16.8427L190.735 16.2465ZM199.705 16.8055L209.671 41.6215L212.454 40.5035L202.488 15.6875L199.705 16.8055ZM212.468 41.586L221.708 16.77L218.897 15.7231L209.657 40.5391L212.468 41.586ZM220.303 17.7465H230.533V14.7465H220.303V17.7465ZM229.147 15.6723L206.773 69.6603L209.544 70.8088L231.918 16.8208L229.147 15.6723ZM208.159 68.7346H197.863V71.7346H208.159V68.7346ZM199.232 70.846L207.482 52.366L204.743 51.1431L196.493 69.6231L199.232 70.846ZM207.489 51.1584L192.111 15.6504L189.358 16.8427L204.736 52.3507L207.489 51.1584ZM190.735 17.7465H201.097V14.7465H190.735V17.7465Z" fill="url(#paint0_linear_320_5391)"/>
<defs>
<linearGradient id="paint0_linear_320_5391" x1="78.3113" y1="29.3105" x2="174.951" y2="90.4024" gradientUnits="userSpaceOnUse">
<stop stop-color="#2465FF" stop-opacity="0.9"/>
<stop offset="0.62938" stop-color="#BB4CFF" stop-opacity="0.453125"/>
<stop offset="1" stop-color="#D68AD3" stop-opacity="0.587575"/>
</linearGradient>
</defs>
</svg>
