<svg width="21" height="17" viewBox="0 0 21 17" fill="none" xmlns="http://www.w3.org/2000/svg">
<path d="M6.8146 16.1036C14.312 16.1036 18.4117 10.0625 18.4117 4.82406C18.4117 4.65247 18.4081 4.48165 18.4002 4.31161C19.196 3.75202 19.8878 3.0537 20.4333 2.25875C19.703 2.57449 18.9171 2.78704 18.0926 2.88288C18.9342 2.39208 19.5803 1.61569 19.885 0.690128C19.0975 1.14421 18.2253 1.47425 17.2968 1.65241C16.553 0.881812 15.4941 0.399902 14.3215 0.399902C12.0706 0.399902 10.2452 2.17528 10.2452 4.36378C10.2452 4.67488 10.281 4.97748 10.3509 5.2677C6.96322 5.10191 3.95935 3.5244 1.94922 1.12567C1.59917 1.71154 1.39732 2.39208 1.39732 3.11823C1.39732 4.49363 2.1169 5.70788 3.21116 6.41818C2.54245 6.39809 1.91426 6.21955 1.36513 5.92236C1.36453 5.939 1.36454 5.95521 1.36454 5.97299C1.36454 7.8929 2.76952 9.49592 4.63462 9.85919C4.29212 9.95001 3.93173 9.9987 3.55982 9.9987C3.29758 9.9987 3.04209 9.9736 2.79376 9.92721C3.31268 11.5024 4.8174 12.6486 6.60144 12.6807C5.20639 13.7442 3.44897 14.3776 1.53897 14.3776C1.21037 14.3776 0.885743 14.3595 0.566681 14.3228C2.37059 15.4474 4.51264 16.1036 6.81481 16.1036" fill="white"/>
</svg>
