<svg width="24" height="24" viewBox="0 0 24 24" fill="none" xmlns="http://www.w3.org/2000/svg">
<path d="M12 0C9.62663 0 7.30655 0.703788 5.33316 2.02236C3.35977 3.34094 1.8217 5.21509 0.913451 7.4078C0.0051995 9.60051 -0.232441 12.0133 0.230582 14.3411C0.693605 16.6689 1.83649 18.8071 3.51472 20.4853C5.19295 22.1635 7.33115 23.3064 9.65892 23.7694C11.9867 24.2324 14.3995 23.9948 16.5922 23.0866C18.7849 22.1783 20.6591 20.6402 21.9776 18.6668C23.2962 16.6935 24 14.3734 24 12C24 8.8174 22.7357 5.76515 20.4853 3.51472C18.2348 1.26428 15.1826 0 12 0ZM17.4343 13.0629L10.5771 17.7771C10.3771 17.8947 10.1492 17.9567 9.91715 17.9567C9.68508 17.9567 9.45723 17.8947 9.25715 17.7771C9.05986 17.6755 8.8927 17.5238 8.77238 17.3373C8.65205 17.1508 8.58276 16.936 8.57143 16.7143V7.28571C8.57057 7.05229 8.63413 6.82316 8.75512 6.62353C8.8761 6.42391 9.04982 6.26153 9.25715 6.15429C9.45723 6.03673 9.68508 5.97474 9.91715 5.97474C10.1492 5.97474 10.3771 6.03673 10.5771 6.15429L17.4343 10.8686C17.6075 10.9865 17.7493 11.145 17.8473 11.3302C17.9453 11.5155 17.9965 11.7219 17.9965 11.9314C17.9965 12.141 17.9453 12.3474 17.8473 12.5326C17.7493 12.7179 17.6075 12.8764 17.4343 12.9943V13.0629Z" fill="url(#paint0_linear_301_1589)"/>
<defs>
<linearGradient id="paint0_linear_301_1589" x1="1.68401" y1="6.49563" x2="36.9626" y2="6.3577" gradientUnits="userSpaceOnUse">
<stop stop-color="#2465FF" stop-opacity="0.9"/>
<stop offset="0.62938" stop-color="#BB4CFF" stop-opacity="0.453125"/>
<stop offset="1" stop-color="#D68AD3" stop-opacity="0.587575"/>
</linearGradient>
</defs>
</svg>
