<svg width="860" height="330" viewBox="0 0 86 33" fill="none" xmlns="http://www.w3.org/2000/svg">
<path fill-rule="evenodd" clip-rule="evenodd" d="M13.2313 29.0716C20.5388 29.0716 26.4627 23.2353 26.4627 16.0358C26.4627 8.83633 20.5388 3 13.2313 3C5.92388 3 0 8.83633 0 16.0358C0 23.2353 5.92388 29.0716 13.2313 29.0716ZM4.64072 16.0358C4.64072 11.347 8.49604 7.56253 13.2313 7.56253C17.9666 7.56253 21.8219 11.347 21.8219 16.0358C21.8219 20.7246 17.9666 24.5091 13.2313 24.5091C8.49604 24.5091 4.64072 20.7246 4.64072 16.0358ZM13.2313 8.86611C9.19763 8.86611 5.9443 12.0852 5.9443 16.0358C5.9443 19.9864 9.19763 23.2055 13.2313 23.2055C17.265 23.2055 20.5183 19.9864 20.5183 16.0358C20.5183 12.0852 17.265 8.86611 13.2313 8.86611ZM17.4583 16.037L10.5851 19.8869V12.1849L17.4583 16.037Z" fill="white"/>
<path d="M39.3063 21.9193C39.5572 20.3572 40.0352 16.5736 40.6642 13.4743L42.2231 5.907H47.1799V26.3841H44.1339V9.49511L43.808 11.08L40.763 26.3819H37.717L34.621 11.08L34.3201 9.5038V26.3852H31.2751V5.90809H36.1853L37.7963 13.5004C38.4481 16.5507 38.9261 20.3094 39.1292 21.9193H39.3063Z" fill="white"/>
<path d="M53.927 24.2614C54.5332 24.2614 55.135 23.8714 55.4131 23.3098L55.4099 23.3087V11.4244H58.8839V26.383H56.1659L55.865 24.5536H55.789C55.0068 26.0169 53.8749 26.6274 52.467 26.6274C50.4008 26.6274 49.471 25.3608 49.471 22.6015V11.4233H52.945V22.4082C52.945 23.7248 53.2231 24.2614 53.927 24.2614Z" fill="white"/>
<path d="M63.768 14.8148C63.768 15.9859 64.4719 16.5225 65.6049 17.3285C68.3251 19.2807 69.582 20.2583 69.5852 22.6993C69.5852 25.3825 68.0242 26.7252 65.0281 26.7252C61.6073 26.7252 60.32 24.9186 60.7752 21.8205L63.7191 21.7727C63.5648 23.4326 64.1699 24.3853 65.2019 24.3853C66.0829 24.3853 66.587 23.8497 66.587 23.0676C66.587 22.0421 65.6049 21.3349 63.9179 20.065C61.9549 18.6234 60.7458 17.5252 60.7458 15.1092C60.7458 12.4499 62.2069 11.1572 65.1758 11.1572C68.3718 11.1572 69.6058 12.6715 69.3799 16.3063L66.4588 16.4269C66.436 14.1793 66.109 13.5221 65.1259 13.5221C64.1699 13.5221 63.768 13.9859 63.768 14.8148Z" fill="white"/>
<path d="M71.4939 11.4233H74.8169L74.818 11.4244V26.3819H71.4939V11.4233Z" fill="white"/>
<path d="M71.2918 7.59188C71.2918 5.97979 71.898 5.51593 73.1798 5.51593C74.4899 5.51593 75.0689 6.05583 75.0689 7.59188C75.0689 9.2496 74.4899 9.66566 73.1809 9.66566C71.8936 9.66566 71.2918 9.25178 71.2918 7.59188Z" fill="white"/>
<path d="M82.9458 20.8428L85.9908 20.9894C86.0657 23.3098 85.6898 24.8209 84.71 25.7051C84.03 26.3395 83.024 26.6329 81.564 26.6329C78.1139 26.6329 76.932 24.9979 76.932 19.9216V17.8228C76.932 12.8953 78.317 11.1376 81.6889 11.1376C83.1229 11.1376 84.1538 11.4516 84.8349 12.112C85.7648 13.0137 86.069 14.6008 85.8658 16.919L82.848 17.1124C82.848 14.3281 82.596 13.4265 81.6401 13.4265C80.6081 13.4265 80.4049 14.3759 80.4049 17.3796V20.2801C80.4049 23.3793 80.582 24.332 81.614 24.332C82.6449 24.332 82.9458 23.4782 82.9458 20.8428Z" fill="white"/>
</svg>
